<svg width="92" height="92" viewBox="0 0 92 92" fill="none" xmlns="http://www.w3.org/2000/svg">
<g clip-path="url(#clip0_2_8)">
<path d="M85.9998 0H46.8281V44.5977H85.9998V0Z" fill="#FF57D4"/>
<path d="M46.8979 44.5977V0H6V44.5977V45.4435V91.4833H85.9943V44.5977H46.8979Z" fill="#7B7D4D"/>
<path d="M27.646 78.3343C26.4607 78.3676 25.2848 78.0901 24.2265 77.5272C23.2858 76.9912 22.5191 76.1747 22.0205 75.1815C21.4843 74.089 21.2209 72.8726 21.2491 71.6444V66.3197C21.2209 65.098 21.489 63.8884 22.0205 62.8017C22.5285 61.8198 23.2905 61.0121 24.2265 60.4757C25.2754 59.8907 26.456 59.5995 27.646 59.6298C28.8219 59.6014 29.9884 59.8932 31.0232 60.4757C31.9545 61.0151 32.7118 61.8228 33.2104 62.8017C33.7466 63.8884 34.01 65.098 33.9818 66.3197V69.4725H23.2905V71.6444C23.2105 72.9308 23.615 74.1991 24.4099 75.1815C24.8286 75.6269 25.3366 75.9725 25.8916 76.1948C26.4513 76.417 27.0487 76.511 27.646 76.4698C28.6244 76.5183 29.5933 76.2496 30.4165 75.7008C31.1455 75.1781 31.6629 74.4003 31.8887 73.5094H33.9442C33.8407 74.2128 33.6008 74.8868 33.2433 75.4938C32.8906 76.1008 32.4202 76.6285 31.8699 77.0465C30.6328 77.9452 29.1512 78.397 27.646 78.3343ZM31.9451 67.9923V66.3197C32.011 65.0319 31.6206 63.7636 30.8398 62.7636C30.4306 62.3201 29.9273 61.9755 29.377 61.7532C28.8266 61.531 28.234 61.4361 27.646 61.4757C27.0487 61.4356 26.456 61.5281 25.8963 61.7469C25.3413 61.9652 24.8333 62.3054 24.4099 62.744C23.615 63.7435 23.2152 65.0221 23.2905 66.3197V67.7422H32.2367L31.9451 67.9923Z" fill="white"/>
<path d="M73.7422 60.6686L72.4017 59.4189L65.6944 67.3776L58.987 59.4189L57.6465 60.6686L64.4996 68.781L57.6465 76.9124L58.987 78.1616L65.6944 70.2034L72.4017 78.1616L73.7422 76.9124L66.8891 68.781L73.7422 60.6686Z" fill="white"/>
<path d="M28.8559 33.5443V18.8003V16.647H26.7958H23.1787V18.8003H26.7958V33.5443H23.1787V35.6975H32.473V33.5443H28.8559Z" fill="white"/>
</g>
<defs>
<clipPath id="clip0_2_8">
<rect width="80" height="92" fill="white" transform="translate(6)"/>
</clipPath>
</defs>
</svg>
