<?xml version="1.0" standalone="no"?>
<!DOCTYPE svg PUBLIC "-//W3C//DTD SVG 20010904//EN"
 "http://www.w3.org/TR/2001/REC-SVG-20010904/DTD/svg10.dtd">
<svg version="1.0" xmlns="http://www.w3.org/2000/svg"
 width="700.000000pt" height="700.000000pt" viewBox="0 0 700.000000 700.000000"
 preserveAspectRatio="xMidYMid meet">
<metadata>
Created by potrace 1.14, written by Peter Selinger 2001-2017
</metadata>
<g transform="translate(0.000000,700.000000) scale(0.100000,-0.100000)"
fill="#000000" stroke="none">
<path d="M460 3520 l0 -3480 3040 0 3040 0 0 3480 0 3480 -3040 0 -3040 0 0
-3480z m1740 1570 l0 -640 135 0 135 0 0 -85 0 -85 -352 2 -353 3 0 80 0 80
138 3 137 3 0 559 0 560 -140 0 -140 0 0 80 0 80 220 0 220 0 0 -640z m2540
-2910 c139 -165 257 -299 261 -298 4 2 119 135 254 296 135 160 250 292 254
292 5 0 30 -19 56 -42 l47 -43 -261 -309 c-231 -273 -260 -311 -248 -325 8 -9
126 -149 262 -311 l248 -294 -49 -43 c-27 -23 -52 -43 -55 -43 -4 0 -118 133
-255 295 -136 162 -251 295 -255 295 -4 0 -118 -132 -254 -292 -135 -161 -250
-294 -255 -296 -5 -2 -31 17 -57 41 l-47 45 146 173 c80 96 198 235 261 310
l115 136 -260 307 -261 308 49 49 c26 27 49 49 50 49 1 0 115 -135 254 -300z
m-2497 265 c77 -20 130 -48 184 -98 64 -59 98 -113 129 -203 25 -73 27 -93 28
-254 l1 -175 -409 -3 -408 -2 4 -138 c3 -137 4 -140 41 -216 45 -89 98 -136
187 -162 71 -22 189 -14 256 15 64 28 128 92 154 153 l21 48 75 0 76 0 -7 -37
c-11 -58 -62 -151 -110 -198 -81 -82 -220 -135 -351 -135 -205 0 -363 88 -438
243 -51 104 -56 148 -56 464 0 313 5 360 50 458 51 113 162 206 289 241 64 17
215 17 284 -1z"/>
<path d="M1970 2302 c-25 -10 -67 -39 -96 -67 -70 -70 -95 -137 -102 -277 l-5
-108 333 0 333 0 -5 114 c-4 107 -7 119 -41 189 -41 82 -79 118 -158 148 -63
24 -195 25 -259 1z"/>
</g>
</svg>
