<svg width="140" height="40" viewBox="0 0 140 40" fill="none" xmlns="http://www.w3.org/2000/svg">
<path d="M7.64599 18.4203L12.5016 13.5402L17.3591 18.4243L20.1828 15.5831L12.5016 7.85791L4.82031 15.5812L7.64599 18.4203Z" fill="white"/>
<path d="M0 20.427L2.82464 17.5869L5.64928 20.427L2.82464 23.2671L0 20.427Z" fill="white"/>
<path d="M7.64994 22.4326L12.5055 27.3148L17.3631 22.4307L20.1887 25.2678L20.1868 25.2698L12.5055 32.995L4.82426 25.2738L4.82031 25.2698L7.64994 22.4326Z" fill="white"/>
<path d="M19.3477 20.4282L22.1723 17.5881L24.9969 20.4282L22.1723 23.2683L19.3477 20.4282Z" fill="white"/>
<path d="M15.371 20.4258L12.5058 17.543L10.3871 19.6733L10.1422 19.9175L9.64067 20.4218L9.63672 20.4258L9.64067 20.4317L12.5058 23.3106L15.371 20.4278L15.373 20.4258H15.371Z" fill="white"/>
<path d="M29.4023 13.9465H35.5473C37.0717 13.9465 38.2249 14.3436 39.0069 15.1378C39.3015 15.4311 39.5337 15.7816 39.6895 16.168C39.8453 16.5543 39.9214 16.9685 39.9132 17.3853V17.423C39.9185 17.7644 39.8712 18.1047 39.773 18.4316C39.6855 18.713 39.5585 18.9804 39.3959 19.2257C39.2442 19.4571 39.0607 19.6656 38.8509 19.8452C38.6458 20.0226 38.4212 20.1758 38.1815 20.3018C38.8729 20.544 39.4946 20.953 39.9922 21.4931C40.4319 21.9961 40.6517 22.6909 40.6517 23.5778V23.6155C40.6642 24.1693 40.5444 24.7181 40.3022 25.2157C40.0676 25.6742 39.7236 26.0671 39.3011 26.3593C38.8234 26.6813 38.2915 26.9134 37.7313 27.0443C37.0657 27.203 36.3834 27.2797 35.6994 27.2726H29.4023V13.9465ZM34.9313 19.3349C35.4629 19.3608 35.992 19.2458 36.4655 19.0014C36.6502 18.8929 36.801 18.7346 36.9008 18.5445C37.0006 18.3543 37.0455 18.1398 37.0303 17.9253V17.8876C37.0401 17.6899 37.0001 17.493 36.9142 17.315C36.8283 17.137 36.6991 16.9836 36.5386 16.8691C36.2108 16.6348 35.7376 16.5176 35.1189 16.5176H32.2438V19.3349H34.9313ZM35.7073 24.7055C36.237 24.7353 36.7642 24.6135 37.2277 24.3541C37.4083 24.2374 37.5545 24.0742 37.651 23.8815C37.7476 23.6887 37.791 23.4734 37.7767 23.2581V23.2204C37.7838 23.0157 37.7409 22.8124 37.6517 22.6283C37.5626 22.4441 37.4299 22.2848 37.2653 22.1642C36.9256 21.8994 36.3767 21.7671 35.6184 21.7671H32.2438V24.7055H35.7073Z" fill="white"/>
<path d="M44.3164 13.9463H47.2329V27.2763H44.3164V13.9463Z" fill="white"/>
<path d="M51.6406 13.9463H54.33L60.5461 22.15V13.9463H63.4251V27.2763H60.943L54.5236 18.8026V27.2763H51.6406V13.9463Z" fill="white"/>
<path d="M72.2572 13.8516H74.9426L80.6236 27.2769H77.5787L76.3663 24.2869H70.7604L69.548 27.2769H66.5742L72.2572 13.8516ZM75.3257 21.6979L73.5604 17.3737L71.803 21.6979H75.3257Z" fill="white"/>
<path d="M83.7812 13.9463H86.4707L92.6828 22.15V13.9463H95.5618V27.2763H93.0797L86.6602 18.8026V27.2763H83.7812V13.9463Z" fill="white"/>
<path d="M106.059 27.5119C105.129 27.5199 104.208 27.3389 103.349 26.9798C102.542 26.6444 101.809 26.1497 101.194 25.5251C100.579 24.9004 100.095 24.1583 99.7695 23.3425C99.4264 22.4892 99.2527 21.5766 99.2581 20.6562V20.6185C99.2428 18.8043 99.9371 17.0567 101.191 15.7523C101.808 15.1151 102.547 14.61 103.363 14.2672C104.251 13.8974 105.204 13.713 106.165 13.7252C106.734 13.7209 107.301 13.7721 107.859 13.878C108.337 13.9689 108.804 14.1093 109.254 14.297C109.661 14.4694 110.048 14.6865 110.409 14.9442C110.76 15.1956 111.091 15.4758 111.396 15.7821L109.542 17.9342C109.068 17.4947 108.537 17.1227 107.962 16.8284C107.398 16.5571 106.779 16.4212 106.153 16.4313C105.633 16.4257 105.117 16.5315 104.641 16.7417C104.164 16.9519 103.737 17.2616 103.389 17.6503C103.043 18.0381 102.773 18.4872 102.591 18.9746C102.401 19.4897 102.305 20.0353 102.309 20.5848V20.6225C102.307 21.1712 102.403 21.7158 102.591 22.2307C102.771 22.7199 103.038 23.1715 103.381 23.5629C103.727 23.9564 104.152 24.2707 104.629 24.4845C105.106 24.6982 105.623 24.8064 106.146 24.8018C106.81 24.8228 107.47 24.679 108.067 24.3829C108.635 24.0717 109.16 23.6872 109.629 23.2393L111.485 25.1254C111.157 25.4831 110.803 25.8149 110.425 26.1181C110.053 26.4135 109.65 26.6659 109.222 26.8706C108.766 27.0863 108.286 27.2456 107.792 27.3451C107.222 27.4601 106.641 27.516 106.059 27.5119Z" fill="white"/>
<path d="M114.922 13.9463H124.9V16.5551H117.791V19.2592H124.051V21.8681H117.801V24.6675H124.998V27.2763H114.928L114.922 13.9463Z" fill="white"/>
</svg>
