<svg width="123" height="40" viewBox="0 0 123 40" fill="none" xmlns="http://www.w3.org/2000/svg">
<g opacity="0.4">
<path d="M7.61595 17.5017L11.9819 13.1137L16.3497 17.5053L18.8886 14.9506L11.9819 8.00439L5.0752 14.9489L7.61595 17.5017Z" fill="white"/>
<path d="M0.741211 19.3059L3.28103 16.7522L5.82086 19.3059L3.28103 21.8596L0.741211 19.3059Z" fill="white"/>
<path d="M7.61754 21.1095L11.9835 25.4993L16.3513 21.1077L18.892 23.6587L18.8902 23.6605L11.9835 30.6068L5.07679 23.6641L5.07324 23.6605L7.61754 21.1095Z" fill="white"/>
<path d="M18.1396 19.3071L20.6795 16.7534L23.2193 19.3071L20.6795 21.8608L18.1396 19.3071Z" fill="white"/>
<path d="M14.5604 19.305L11.9841 16.7129L10.079 18.6284L9.85883 18.848L9.40785 19.3014L9.4043 19.305L9.40785 19.3104L11.9841 21.8989L14.5604 19.3068L14.5621 19.305H14.5604Z" fill="white"/>
<path d="M27.1807 13.4792H32.706C34.0767 13.4792 35.1136 13.8363 35.8167 14.5504C36.0816 14.8142 36.2905 15.1293 36.4305 15.4767C36.5706 15.8241 36.6391 16.1964 36.6317 16.5712V16.6052C36.6365 16.9122 36.5939 17.2181 36.5056 17.512C36.427 17.7651 36.3128 18.0055 36.1665 18.2261C36.0301 18.4341 35.8652 18.6217 35.6765 18.7831C35.4921 18.9427 35.2902 19.0804 35.0746 19.1937C35.6963 19.4114 36.2553 19.7792 36.7027 20.2648C37.0981 20.7171 37.2957 21.3419 37.2957 22.1393V22.1732C37.307 22.6712 37.1992 23.1647 36.9815 23.6121C36.7705 24.0244 36.4612 24.3776 36.0813 24.6404C35.6517 24.9299 35.1735 25.1386 34.6698 25.2563C34.0713 25.399 33.4578 25.4679 32.8428 25.4616H27.1807V13.4792ZM32.1521 18.3243C32.6301 18.3475 33.1059 18.2441 33.5317 18.0244C33.6977 17.9269 33.8333 17.7845 33.923 17.6135C34.0128 17.4425 34.0531 17.2497 34.0394 17.0568V17.0229C34.0482 16.8452 34.0123 16.6681 33.9351 16.508C33.8578 16.348 33.7416 16.2101 33.5973 16.1071C33.3026 15.8964 32.8771 15.7911 32.3208 15.7911H29.7356V18.3243H32.1521ZM32.8499 23.1533C33.3261 23.1801 33.8002 23.0706 34.217 22.8373C34.3794 22.7324 34.5108 22.5857 34.5976 22.4124C34.6844 22.2391 34.7234 22.0455 34.7106 21.8519V21.818C34.717 21.6339 34.6784 21.4511 34.5982 21.2855C34.5181 21.12 34.3988 20.9767 34.2507 20.8682C33.9453 20.6302 33.4518 20.5112 32.77 20.5112H29.7356V23.1533H32.8499Z" fill="white"/>
<path d="M40.5898 13.4792H43.2123V25.4651H40.5898V13.4792Z" fill="white"/>
<path d="M47.1768 13.4792H49.595L55.1843 20.8557V13.4792H57.773V25.4651H55.5412L49.769 17.8459V25.4651H47.1768V13.4792Z" fill="white"/>
<path d="M65.7164 13.3936H68.131L73.2392 25.4651H70.5014L69.4112 22.7766H64.3705L63.2804 25.4651H60.6064L65.7164 13.3936ZM68.4755 20.4487L66.8882 16.5605L65.308 20.4487H68.4755Z" fill="white"/>
<path d="M76.0752 13.4792H78.4934L84.0792 20.8557V13.4792H86.6679V25.4651H84.4361L78.6639 17.8459V25.4651H76.0752V13.4792Z" fill="white"/>
<path d="M96.1063 25.6763C95.2705 25.6835 94.4419 25.5208 93.6703 25.1979C92.9438 24.8963 92.2848 24.4515 91.7319 23.8898C91.1791 23.3281 90.7437 22.6609 90.4513 21.9274C90.1428 21.1601 89.9866 20.3396 89.9914 19.512V19.4781C89.9777 17.8468 90.602 16.2754 91.7297 15.1025C92.2845 14.5296 92.9488 14.0754 93.6827 13.7672C94.481 13.4347 95.3382 13.2689 96.2022 13.2798C96.7132 13.276 97.2234 13.322 97.7255 13.4173C98.1552 13.499 98.5753 13.6252 98.9791 13.7939C99.3455 13.949 99.6938 14.1442 100.018 14.3759C100.334 14.6019 100.631 14.8539 100.905 15.1293L99.2383 17.0644C98.8122 16.6693 98.3343 16.3347 97.8179 16.0701C97.3105 15.8262 96.7538 15.7039 96.1915 15.713C95.7236 15.708 95.2599 15.8032 94.8313 15.9922C94.4028 16.1811 94.0191 16.4596 93.7058 16.8092C93.3952 17.1578 93.1519 17.5616 92.9885 17.9999C92.8174 18.4631 92.7314 18.9536 92.7346 19.4477V19.4816C92.7329 19.975 92.8189 20.4647 92.9885 20.9276C93.1498 21.3675 93.3906 21.7736 93.6987 22.1255C94.0095 22.4794 94.3923 22.762 94.8211 22.9542C95.25 23.1464 95.7149 23.2437 96.1844 23.2395C96.7823 23.2584 97.3756 23.1291 97.912 22.8628C98.4226 22.583 98.8948 22.2373 99.3164 21.8345L100.985 23.5305C100.691 23.8521 100.372 24.1505 100.032 24.4231C99.6979 24.6886 99.3352 24.9156 98.9506 25.0997C98.5409 25.2936 98.1092 25.4369 97.6652 25.5263C97.152 25.6298 96.6296 25.68 96.1063 25.6763Z" fill="white"/>
<path d="M104.077 13.4792H113.049V15.825H106.657V18.2565H112.285V20.6022H106.666V23.1194H113.138V25.4651H104.082L104.077 13.4792Z" fill="white"/>
</g>
</svg>
