<svg width="140" height="40" viewBox="0 0 140 40" fill="none" xmlns="http://www.w3.org/2000/svg">
<path fill-rule="evenodd" clip-rule="evenodd" d="M53.0781 14.6699H56.5792V26.4997H53.0781V14.6699Z" fill="white"/>
<path d="M50.8242 19.495C50.4466 18.8232 49.9069 18.249 49.2559 17.824C50.0608 16.9386 50.5354 15.7626 50.4774 14.4753C50.359 11.9223 48.1102 9.95166 45.4778 9.95166H38.1797V26.4969H46.5301C49.2275 26.4969 51.4148 24.3757 51.4148 21.7562C51.4148 20.9374 51.2018 20.168 50.8242 19.495ZM45.9868 23.689H41.6796V19.6282H45.9619C47.0864 19.6282 48.038 20.4953 48.038 21.6597C48.038 22.8093 47.0887 23.689 45.9868 23.689ZM45.0718 16.8203H41.6796V12.7607H45.0458C46.1714 12.7607 47.123 13.6266 47.123 14.7911C47.1207 15.9395 46.1714 16.8203 45.0718 16.8203Z" fill="white"/>
<path d="M98.0001 10.4429H93.9722L90.8262 15.3363L87.6814 10.4429H83.6523L88.8129 18.4703L83.6523 26.4989H87.6814L90.8262 21.6055L93.9722 26.4989H98.0001L92.8407 18.4703L98.0001 10.4429Z" fill="white"/>
<path d="M69.0639 19.9174V26.4967H65.564V19.3283C65.564 18.2855 64.6775 17.4437 63.5933 17.4736C62.5493 17.5046 61.7433 18.39 61.7433 19.4052V26.4944H58.2422V14.6646H61.7433V15.2284C62.5316 14.8667 63.4098 14.6646 64.339 14.6646C64.8041 14.6646 65.2574 14.7151 65.693 14.8115C67.6329 15.2399 69.0036 16.9212 69.0533 18.8505C69.0604 19.1973 69.0639 19.5556 69.0639 19.9174Z" fill="white"/>
<path fill-rule="evenodd" clip-rule="evenodd" d="M53.0781 9.95142H56.5792V13.3484H53.0781V9.95142Z" fill="white"/>
<path d="M82.7143 14.6678H76.6767C76.6566 14.6678 76.6376 14.6655 76.6163 14.6655C73.2501 14.6655 70.5207 17.3149 70.5207 20.5822C70.5207 23.8333 73.2229 26.4701 76.5642 26.4942C76.5796 26.4976 76.5974 26.4976 76.6163 26.4976C77.9159 26.4976 79.2131 26.8674 79.2131 27.9642C79.2131 29.077 78.0378 30.0221 76.6163 30.0221C75.183 30.0221 74.0206 28.8944 74.0206 27.5037H70.5195C70.5195 30.7697 73.2501 33.4191 76.6151 33.4191C79.9837 33.4191 82.7107 30.7697 82.7107 27.5037C82.7107 27.5037 82.7782 25.7362 81.2336 24.4431C82.1568 23.4084 82.7119 22.0613 82.7119 20.5822C82.7119 19.4418 82.3805 18.3784 81.8041 17.4757H82.7143V14.6678ZM76.6163 23.1006C75.183 23.1006 74.0206 21.9729 74.0206 20.5822C74.0206 19.1914 75.183 18.0637 76.6163 18.0637C78.0497 18.0637 79.2131 19.1914 79.2131 20.5822C79.2131 21.9729 78.0497 23.1006 76.6163 23.1006Z" fill="white"/>
<path d="M32.4368 5.85791C28.6919 5.85791 24.9895 6.77664 21.7275 8.51649C19.9805 9.44785 18.3673 10.6032 16.9339 11.9525C16.5966 12.2684 16.2663 12.5991 15.9503 12.9367C14.8934 14.0668 13.9559 15.3071 13.1688 16.622C12.8895 17.094 12.5794 17.5545 12.248 17.9944C12.2042 18.0518 12.1628 18.1092 12.1154 18.1655C9.21677 21.8875 4.80072 24.0212 0 24.0212V30.8979C3.74494 30.8979 7.44727 29.9792 10.7093 28.2405C12.4528 27.3114 14.066 26.1538 15.5029 24.8045C15.8402 24.4875 16.1705 24.1567 16.4877 23.8203C17.5458 22.6891 18.4797 21.4511 19.2668 20.135L19.3189 20.05C19.5852 19.6067 19.8787 19.1749 20.1876 18.7638C20.2314 18.7075 20.2752 18.649 20.3214 18.5892C23.2189 14.8684 27.6361 12.7335 32.4368 12.7335V5.85791Z" fill="white"/>
<path d="M32.4368 24.0247C27.6361 24.0247 23.2189 21.8898 20.319 18.1678C20.2764 18.1115 20.2314 18.0553 20.1876 17.9944C19.8574 17.558 19.5473 17.0963 19.268 16.6232C18.4809 15.3094 17.5446 14.0703 16.4865 12.9391C16.1705 12.6037 15.8402 12.273 15.5029 11.956C14.0696 10.6067 12.4575 9.4502 10.7093 8.51998C7.44727 6.78128 3.74494 5.86255 0 5.86255V12.7393C4.80072 12.7393 9.21795 14.873 12.1178 18.595C12.1628 18.6513 12.2054 18.7099 12.2492 18.7661C12.5605 19.1784 12.854 19.6114 13.1168 20.0501L13.1724 20.1396C13.9583 21.4523 14.8934 22.6903 15.9503 23.8226C16.2652 24.1579 16.5966 24.4887 16.9339 24.8056C18.3696 26.155 19.9829 27.3126 21.7275 28.2417C24.9895 29.9804 28.6919 30.8991 32.4368 30.8991V24.0247Z" fill="white"/>
</svg>
