<svg width="124" height="40" viewBox="0 0 124 40" fill="none" xmlns="http://www.w3.org/2000/svg">
<g opacity="0.4">
<path fill-rule="evenodd" clip-rule="evenodd" d="M53.4395 16.9141H56.9039V28.62H53.4395V16.9141Z" fill="white"/>
<path d="M51.2065 21.6895C50.8329 21.0247 50.2988 20.4565 49.6546 20.0361C50.451 19.1599 50.9207 17.9962 50.8633 16.7223C50.7462 14.1961 48.5209 12.2461 45.9161 12.2461H38.6943V28.6181H46.9573C49.6265 28.6181 51.7909 26.5192 51.7909 23.9271C51.7909 23.1168 51.5801 22.3554 51.2065 21.6895ZM46.4197 25.8396H42.1576V21.8213H46.3951C47.5078 21.8213 48.4494 22.6793 48.4494 23.8316C48.4494 24.9692 47.5101 25.8396 46.4197 25.8396ZM45.5143 19.0429H42.1576V15.0257H45.4886C46.6024 15.0257 47.5441 15.8826 47.5441 17.0349C47.5417 18.1712 46.6024 19.0429 45.5143 19.0429Z" fill="white"/>
<path d="M97.888 12.7324H93.9023L90.7892 17.5746L87.6773 12.7324H83.6904L88.7969 20.6758L83.6904 28.6203H87.6773L90.7892 23.7782L93.9023 28.6203H97.888L92.7826 20.6758L97.888 12.7324Z" fill="white"/>
<path d="M69.2573 22.1075V28.6179H65.794V21.5246C65.794 20.4927 64.9168 19.6597 63.8439 19.6893C62.8109 19.72 62.0133 20.5961 62.0133 21.6007V28.6157H58.5488V16.9097H62.0133V17.4676C62.7933 17.1097 63.6624 16.9097 64.5818 16.9097C65.0421 16.9097 65.4907 16.9597 65.9217 17.0551C67.8413 17.479 69.1976 19.1427 69.2467 21.0518C69.2538 21.395 69.2573 21.7496 69.2573 22.1075Z" fill="white"/>
<path fill-rule="evenodd" clip-rule="evenodd" d="M53.4395 12.2451H56.9039V15.6066H53.4395V12.2451Z" fill="white"/>
<path d="M82.7624 16.9124H76.788C76.7681 16.9124 76.7493 16.9102 76.7283 16.9102C73.3973 16.9102 70.6965 19.5318 70.6965 22.7649C70.6965 25.982 73.3704 28.5911 76.6767 28.615C76.692 28.6184 76.7095 28.6184 76.7283 28.6184C78.0143 28.6184 79.2979 28.9843 79.2979 30.0696C79.2979 31.1708 78.1349 32.106 76.7283 32.106C75.3099 32.106 74.1598 30.9901 74.1598 29.6139H70.6953C70.6953 32.8458 73.3973 35.4675 76.7271 35.4675C80.0604 35.4675 82.7589 32.8458 82.7589 29.6139C82.7589 29.6139 82.8256 27.865 81.2972 26.5854C82.2107 25.5615 82.7601 24.2285 82.7601 22.7649C82.7601 21.6364 82.4321 20.5841 81.8617 19.6909H82.7624V16.9124ZM76.7283 25.257C75.3099 25.257 74.1598 24.141 74.1598 22.7649C74.1598 21.3887 75.3099 20.2727 76.7283 20.2727C78.1466 20.2727 79.2979 21.3887 79.2979 22.7649C79.2979 24.141 78.1466 25.257 76.7283 25.257Z" fill="white"/>
<path d="M33.0113 8.19458C29.3056 8.19458 25.642 9.10369 22.4141 10.8253C20.6854 11.7469 19.0891 12.8902 17.6707 14.2254C17.3369 14.5379 17.0101 14.8652 16.6974 15.1993C15.6515 16.3175 14.7239 17.5448 13.9451 18.846C13.6686 19.3131 13.3618 19.7687 13.0338 20.204C12.9905 20.2608 12.9495 20.3176 12.9027 20.3733C10.0344 24.0564 5.66453 26.1678 0.914062 26.1678V32.9725C4.6198 32.9725 8.28338 32.0634 11.5113 30.3429C13.2365 29.4235 14.8328 28.2781 16.2547 26.9428C16.5885 26.6292 16.9153 26.3019 17.2292 25.9689C18.2762 24.8496 19.2003 23.6245 19.9792 22.3222L20.0307 22.2381C20.2942 21.7995 20.5847 21.3722 20.8904 20.9654C20.9337 20.9097 20.9771 20.8517 21.0227 20.7926C23.8899 17.1107 28.2609 14.9982 33.0113 14.9982V8.19458Z" fill="white"/>
<path d="M33.0113 26.171C28.2609 26.171 23.8899 24.0585 21.0204 20.3754C20.9782 20.3197 20.9337 20.2641 20.8904 20.2038C20.5636 19.772 20.2568 19.3152 19.9804 18.847C19.2015 17.5469 18.2751 16.3208 17.228 15.2014C16.9153 14.8696 16.5885 14.5423 16.2547 14.2287C14.8364 12.8934 13.2412 11.7491 11.5113 10.8286C8.28338 9.10809 4.6198 8.19897 0.914062 8.19897V15.0037C5.66453 15.0037 10.0355 17.1151 12.905 20.7982C12.9495 20.8539 12.9917 20.9118 13.035 20.9675C13.343 21.3755 13.6335 21.8039 13.8935 22.238L13.9486 22.3266C14.7263 23.6255 15.6515 24.8505 16.6974 25.971C17.009 26.3029 17.3369 26.6301 17.6707 26.9438C19.0914 28.279 20.6878 29.4245 22.4141 30.3439C25.642 32.0644 29.3056 32.9735 33.0113 32.9735V26.171Z" fill="white"/>
</g>
</svg>
