<svg width="124" height="40" viewBox="0 0 124 40" fill="none" xmlns="http://www.w3.org/2000/svg">
<path d="M94.721 25.4944C94.7939 25.5831 94.7393 25.7072 94.63 25.7072H91.7161C91.6797 25.7072 91.6433 25.6894 91.6251 25.6717L87.746 21.6825L83.8306 25.6717C83.8124 25.7072 83.7759 25.7072 83.7395 25.7072H80.8257C80.7164 25.7072 80.6436 25.5653 80.7346 25.4944L86.0706 20.0514L80.9167 14.7679C80.8439 14.6793 80.8985 14.5552 81.0078 14.5552H83.9216C83.9581 14.5552 83.9945 14.5729 84.0127 14.5906L87.7096 18.4203L91.4248 14.5906C91.443 14.5552 91.4794 14.5552 91.5158 14.5552H94.4297C94.5389 14.5552 94.6118 14.697 94.5207 14.7679L89.3851 20.0514L94.721 25.4944ZM67.1488 25.7072C67.0578 25.7072 66.9667 25.6185 66.9667 25.5299V14.7325C66.9667 14.6261 67.0578 14.5552 67.1488 14.5552H78.1304C78.2397 14.5552 78.3125 14.6438 78.3125 14.7325V16.275C78.3125 16.3636 78.2214 16.4523 78.1304 16.4523H69.6256V18.9344H74.7248C74.8341 18.9344 74.9069 19.0231 74.9069 19.1117V20.6542C74.9069 20.7606 74.8159 20.8315 74.7248 20.8315H69.6256V23.6151H78.2396C78.3307 23.6151 78.4218 23.686 78.4218 23.7924V25.5299C78.4218 25.6362 78.3307 25.7072 78.2396 25.7072H67.1488ZM47.6808 25.7072C47.5897 25.7072 47.4986 25.6185 47.4986 25.5299V14.7325C47.4986 14.6261 47.5897 14.5552 47.6808 14.5552H49.9754C50.0847 14.5552 50.1575 14.6438 50.1575 14.7325V25.5299C50.1575 25.6362 50.0665 25.7072 49.9754 25.7072H47.6808ZM34.6231 25.7072C34.5139 25.7072 34.441 25.6185 34.441 25.5299V14.7325C34.441 14.6261 34.5139 14.5552 34.6231 14.5552H45.4772C45.5864 14.5552 45.6593 14.6438 45.6593 14.7325V16.3281C45.6593 16.4168 45.5864 16.5054 45.4772 16.5054H37.0999V19.4486H41.7256C41.8349 19.4486 41.9077 19.5372 41.9077 19.6259V21.2925C41.9077 21.3988 41.8167 21.4698 41.7256 21.4698H37.0999V25.5299C37.0999 25.6362 37.0088 25.7072 36.9178 25.7072H34.6231ZM27.4842 16.5409V25.5299C27.4842 25.6362 27.3932 25.7072 27.3021 25.7072H25.0075C24.9164 25.7072 24.8253 25.6185 24.8253 25.5299V16.5409H19.9264C19.8172 16.5409 19.7443 16.4523 19.7443 16.3636V14.7325C19.7443 14.6261 19.8172 14.5552 19.9264 14.5552H32.4013C32.4924 14.5552 32.5834 14.6438 32.5834 14.7325V16.3636C32.5834 16.47 32.4924 16.5409 32.4013 16.5409H27.4842ZM15.4282 25.7072C15.3189 25.7072 15.2461 25.6185 15.2461 25.5299V14.7325C15.2461 14.6261 15.3372 14.5552 15.4282 14.5552H17.7229C17.8321 14.5552 17.905 14.6438 17.905 14.7325V25.5299C17.905 25.6362 17.8139 25.7072 17.7229 25.7072H15.4282Z" fill="white"/>
<path fill-rule="evenodd" clip-rule="evenodd" d="M0.914062 14.7325C0.914062 14.6261 1.00512 14.5552 1.09618 14.5552H10.9122C12.2416 14.5552 13.2979 15.6012 13.2979 16.8778V17.6224C13.2979 18.9167 12.2234 19.945 10.9122 19.945H11.0032C12.3327 19.945 13.4071 20.9911 13.4071 22.2676V23.3668C13.4071 24.6611 12.3327 25.6894 11.0032 25.6894H1.09618C0.986908 25.6894 0.914062 25.6008 0.914062 25.5121V14.7325ZM3.53652 16.3636H9.74664C10.3658 16.3636 10.8575 16.8423 10.8575 17.4451V17.9593C10.8575 18.5621 10.3658 19.0408 9.74664 19.0408H3.53652V16.3636ZM3.53652 20.867H9.80127C10.4205 20.867 10.9122 21.3457 10.9122 21.9485V22.6399C10.9122 23.2427 10.4205 23.7214 9.80127 23.7214H3.53652V20.867Z" fill="white"/>
<path d="M51.9961 25.5299V14.7325C51.9961 14.6261 52.0872 14.5552 52.1782 14.5552H53.7444C53.799 14.5552 53.8355 14.5729 53.8719 14.6084L62.7227 22.2321V14.7502C62.7227 14.6438 62.7955 14.5729 62.9048 14.5729H64.9445C65.0537 14.5729 65.1266 14.6616 65.1266 14.7502V25.5476C65.1266 25.654 65.0537 25.7249 64.9445 25.7249H63.3783C63.3419 25.7249 63.2872 25.7072 63.2508 25.6717L54.4182 18.0302V25.5299C54.4182 25.6362 54.3272 25.7072 54.2361 25.7072H52.1964C52.0871 25.7072 52.0143 25.6185 51.9961 25.5299Z" fill="white"/>
<path d="M96.9417 21.2225C96.8324 19.3963 97.6155 17.3574 99.2363 15.7795C102.769 12.3399 110.127 12.8186 110.163 12.8186C110.145 12.8541 104.773 20.4424 98.3986 21.1516C97.9069 21.2047 97.4152 21.2225 96.9417 21.2225Z" fill="white"/>
<path d="M97.6904 23.5445C97.8725 23.8282 98.0911 24.0941 98.346 24.3246C100.531 26.4522 104.465 26.0621 107.142 23.4381C110.693 19.9808 110.184 12.8003 110.184 12.8003C110.165 12.8358 106.304 21.2574 100.185 23.0835C99.3295 23.3495 98.4917 23.509 97.6904 23.5445Z" fill="white"/>
</svg>
