<svg width="140" height="40" viewBox="0 0 140 40" fill="none" xmlns="http://www.w3.org/2000/svg">
<path d="M101.935 26.6566C102.014 26.7529 101.955 26.8878 101.836 26.8878H98.6699C98.6304 26.8878 98.5908 26.8685 98.571 26.8492L94.3559 22.5144L90.1011 26.8492C90.0813 26.8878 90.0418 26.8878 90.0022 26.8878H86.8359C86.7171 26.8878 86.638 26.7336 86.7369 26.6566L92.5352 20.742L86.9348 15.0007C86.8557 14.9044 86.915 14.7695 87.0338 14.7695H90.2001C90.2397 14.7695 90.2792 14.7888 90.299 14.8081L94.3163 18.9695L98.3533 14.8081C98.3731 14.7695 98.4127 14.7695 98.4523 14.7695H101.619C101.737 14.7695 101.816 14.9237 101.718 15.0007L96.1369 20.742L101.935 26.6566ZM71.974 26.8878C71.8751 26.8878 71.7761 26.7914 71.7761 26.6951V14.9622C71.7761 14.8466 71.8751 14.7695 71.974 14.7695H83.9071C84.0258 14.7695 84.1049 14.8659 84.1049 14.9622V16.6383C84.1049 16.7347 84.006 16.831 83.9071 16.831H74.6654V19.5282H80.2064C80.3252 19.5282 80.4043 19.6245 80.4043 19.7209V21.397C80.4043 21.5126 80.3054 21.5896 80.2064 21.5896H74.6654V24.6144H84.0258C84.1247 24.6144 84.2237 24.6915 84.2237 24.8071V26.6951C84.2237 26.8107 84.1247 26.8878 84.0258 26.8878H71.974ZM50.8192 26.8878C50.7202 26.8878 50.6213 26.7914 50.6213 26.6951V14.9622C50.6213 14.8466 50.7202 14.7695 50.8192 14.7695H53.3126C53.4314 14.7695 53.5105 14.8659 53.5105 14.9622V26.6951C53.5105 26.8107 53.4116 26.8878 53.3126 26.8878H50.8192ZM36.6301 26.8878C36.5114 26.8878 36.4323 26.7914 36.4323 26.6951V14.9622C36.4323 14.8466 36.5114 14.7695 36.6301 14.7695H48.4246C48.5434 14.7695 48.6225 14.8659 48.6225 14.9622V16.6961C48.6225 16.7924 48.5434 16.8888 48.4246 16.8888H39.3215V20.0869H44.348C44.4668 20.0869 44.5459 20.1832 44.5459 20.2796V22.0906C44.5459 22.2062 44.447 22.2832 44.348 22.2832H39.3215V26.6951C39.3215 26.8107 39.2226 26.8878 39.1236 26.8878H36.6301ZM28.8727 16.9273V26.6951C28.8727 26.8107 28.7738 26.8878 28.6748 26.8878H26.1813C26.0824 26.8878 25.9834 26.7914 25.9834 26.6951V16.9273H20.6601C20.5414 16.9273 20.4622 16.831 20.4622 16.7347V14.9622C20.4622 14.8466 20.5414 14.7695 20.6601 14.7695H34.2158C34.3148 14.7695 34.4137 14.8659 34.4137 14.9622V16.7347C34.4137 16.8502 34.3148 16.9273 34.2158 16.9273H28.8727ZM15.7721 26.8878C15.6534 26.8878 15.5742 26.7914 15.5742 26.6951V14.9622C15.5742 14.8466 15.6732 14.7695 15.7721 14.7695H18.2656C18.3843 14.7695 18.4635 14.8659 18.4635 14.9622V26.6951C18.4635 26.8107 18.3645 26.8878 18.2656 26.8878H15.7721Z" fill="white"/>
<path fill-rule="evenodd" clip-rule="evenodd" d="M0 14.9622C0 14.8466 0.098947 14.7695 0.197894 14.7695H10.8644C12.309 14.7695 13.4568 15.9062 13.4568 17.2934V18.1025C13.4568 19.5089 12.2892 20.6264 10.8644 20.6264H10.9633C12.408 20.6264 13.5755 21.763 13.5755 23.1502V24.3447C13.5755 25.7511 12.408 26.8685 10.9633 26.8685H0.197894C0.0791576 26.8685 0 26.7722 0 26.6758V14.9622ZM2.84967 16.7347H9.59786C10.2707 16.7347 10.805 17.2548 10.805 17.9099V18.4686C10.805 19.1236 10.2707 19.6438 9.59786 19.6438H2.84967V16.7347ZM2.84967 21.6282H9.65723C10.3301 21.6282 10.8644 22.1484 10.8644 22.8034V23.5548C10.8644 24.2098 10.3301 24.73 9.65723 24.73H2.84967V21.6282Z" fill="white"/>
<path d="M55.5078 26.6951V14.9622C55.5078 14.8466 55.6068 14.7695 55.7057 14.7695H57.4076C57.467 14.7695 57.5065 14.7888 57.5461 14.8273L67.1638 23.1117V14.9815C67.1638 14.8659 67.2429 14.7888 67.3617 14.7888H69.5781C69.6968 14.7888 69.776 14.8851 69.776 14.9815V26.7144C69.776 26.83 69.6968 26.907 69.5781 26.907H67.8762C67.8366 26.907 67.7772 26.8878 67.7377 26.8492L58.1398 18.5456V26.6951C58.1398 26.8107 58.0409 26.8878 57.9419 26.8878H55.7255C55.6068 26.8878 55.5276 26.7914 55.5078 26.6951Z" fill="white"/>
<path d="M104.347 22.0146C104.228 20.0302 105.079 17.8146 106.84 16.1C110.679 12.3624 118.674 12.8826 118.714 12.8826C118.694 12.9211 112.856 21.1669 105.93 21.9375C105.396 21.9953 104.861 22.0146 104.347 22.0146Z" fill="white"/>
<path d="M105.164 24.5374C105.362 24.8457 105.599 25.1347 105.876 25.3851C108.251 27.697 112.526 27.2732 115.435 24.4218C119.294 20.665 118.74 12.8623 118.74 12.8623C118.72 12.9008 114.524 22.0521 107.875 24.0365C106.945 24.3255 106.035 24.4989 105.164 24.5374Z" fill="white"/>
</svg>
