<svg width="140" height="40" viewBox="0 0 140 40" fill="none" xmlns="http://www.w3.org/2000/svg">
<path d="M115.007 13.6074C115.135 13.6074 115.264 13.6074 115.393 13.7324C115.522 13.8574 115.522 13.9824 115.522 14.1074V16.8574C115.522 16.9824 115.522 17.1074 115.393 17.2324C115.264 17.3574 115.135 17.3574 115.007 17.3574H112.559V28.3574C112.559 28.4824 112.559 28.6074 112.43 28.7324C112.301 28.8574 112.172 28.8574 112.043 28.8574H108.307C108.178 28.8574 108.049 28.8574 107.92 28.7324C107.791 28.6074 107.791 28.4824 107.791 28.3574V17.2324H105.343C105.215 17.2324 105.086 17.2324 104.957 17.1074C104.828 16.9824 104.828 16.8574 104.828 16.7324V13.9824C104.828 13.8574 104.828 13.7324 104.957 13.6074C105.086 13.6074 105.215 13.6074 105.343 13.6074H107.791V9.73242C107.791 9.60742 107.791 9.48242 107.92 9.35742C108.049 9.23242 108.178 9.23242 108.307 9.23242H112.043C112.172 9.23242 112.301 9.23242 112.43 9.35742C112.559 9.48242 112.559 9.60742 112.559 9.73242V13.6074H115.007Z" fill="white"/>
<path d="M104.313 20.9829C104.313 21.6079 104.184 22.1079 104.055 22.4829C103.926 22.7329 103.668 22.8579 103.153 22.8579H93.8766C94.1343 23.7329 94.5208 24.3579 95.165 24.7329C95.8092 25.1079 96.7111 25.3579 97.7418 25.3579C98.2572 25.3579 98.7725 25.3579 99.1591 25.2329C99.6744 25.1079 100.19 24.8579 100.705 24.4829C100.834 24.3579 100.963 24.3579 101.092 24.3579C101.22 24.3579 101.349 24.3579 101.478 24.4829L103.153 25.9829C103.282 26.1079 103.282 26.1079 103.282 26.2329C103.282 26.3579 103.282 26.4829 103.153 26.6079C102.38 27.3579 101.607 27.8579 100.576 28.3579C99.6744 28.7329 98.6437 28.9829 97.4841 28.9829C95.9381 28.9829 94.5208 28.6079 93.2324 27.9829C92.0728 27.2329 91.0421 26.3579 90.3979 25.1079C89.7537 23.9829 89.3672 22.6079 89.3672 21.2329C89.3672 19.8579 89.7537 18.4829 90.3979 17.3579C91.0421 16.2329 92.0728 15.2329 93.2324 14.6079C94.392 13.8579 95.6804 13.6079 97.2264 13.6079C98.6437 13.6079 99.9321 13.9829 100.963 14.6079C102.122 15.2329 102.895 16.2329 103.54 17.3579C104.055 18.3579 104.313 19.6079 104.313 20.9829ZM97.0976 17.3579C96.3246 17.3579 95.5515 17.6079 95.0362 17.9829C94.392 18.3579 94.1343 18.9829 93.8766 19.8579H100.19C100.061 18.9829 99.6744 18.3579 99.1591 17.9829C98.5149 17.6079 97.8707 17.3579 97.0976 17.3579Z" fill="white"/>
<path d="M87.3084 13.8569C87.4372 13.8569 87.566 13.8569 87.6949 13.9819C87.8237 14.1069 87.8237 14.2319 87.8237 14.3569V28.7319C87.8237 30.2319 87.4372 31.4819 86.5353 32.3569C85.7623 33.3569 84.7316 33.9819 83.4432 34.3569C82.1548 34.6069 80.9952 34.8569 79.5779 34.8569C78.2895 34.8569 77.0011 34.7319 75.8416 34.3569C74.682 33.9819 73.6513 33.4819 72.8782 32.9819C72.7494 32.8569 72.7494 32.7319 72.7494 32.6069C72.7494 32.4819 72.7494 32.3569 72.7494 32.3569L73.909 30.2319C74.0378 30.1069 74.1666 29.9819 74.2955 29.9819C74.4243 29.9819 74.4243 29.9819 74.5532 29.9819C75.1974 30.3569 75.9704 30.7319 76.7435 30.8569C77.5165 30.9819 78.2895 31.1069 79.3203 31.1069C80.351 31.1069 81.3817 30.8569 82.1548 30.4819C83.0566 30.1069 83.4432 29.3569 83.4432 28.3569V26.9819C82.2836 28.3569 80.7375 28.9819 78.9337 28.9819C77.5165 28.9819 76.2281 28.6069 75.1974 27.9819C74.0378 27.2319 73.1359 26.3569 72.4917 25.1069C71.8475 23.9819 71.5898 22.6069 71.5898 21.2319C71.5898 19.8569 71.8475 18.6069 72.4917 17.3569C73.2648 16.1069 74.0378 15.2319 75.1974 14.4819C76.3569 13.7319 77.5165 13.4819 78.9337 13.4819C80.6087 13.4819 82.0259 14.1069 83.3143 15.4819L83.4432 14.2319C83.4432 13.9819 83.7008 13.7319 83.9585 13.7319H87.3084V13.8569ZM79.5779 24.7319C80.4798 24.7319 81.3817 24.3569 82.0259 23.6069C82.6701 22.8569 83.0566 22.1069 83.0566 21.1069C83.0566 20.1069 82.6701 19.3569 82.0259 18.6069C81.3817 17.8569 80.6087 17.4819 79.5779 17.4819C78.5472 17.4819 77.7742 17.8569 77.13 18.4819C76.4858 19.1069 76.0993 19.9819 76.0993 20.9819C76.0993 21.9819 76.3569 22.8569 77.0011 23.4819C77.7742 24.3569 78.5472 24.7319 79.5779 24.7319Z" fill="white"/>
<path d="M70.0417 13.6074C70.1705 13.6074 70.2994 13.6074 70.4282 13.7324C70.557 13.8574 70.557 13.9824 70.557 14.1074V16.8574C70.557 16.9824 70.557 17.1074 70.4282 17.2324C70.2994 17.3574 70.1705 17.3574 70.0417 17.3574H67.5937V28.3574C67.5937 28.4824 67.5937 28.6074 67.4649 28.7324C67.336 28.8574 67.2072 28.8574 67.0783 28.8574H63.342C63.2131 28.8574 63.0843 28.8574 62.9555 28.7324C62.9555 28.6074 62.9555 28.4824 62.9555 28.3574V17.2324H60.3786C60.2498 17.2324 60.121 17.2324 59.9921 17.1074C59.8633 16.9824 59.8633 16.8574 59.8633 16.7324V13.9824C59.8633 13.8574 59.8633 13.7324 59.9921 13.6074C60.121 13.6074 60.2498 13.6074 60.3786 13.6074H62.9555V9.73242C62.9555 9.60742 62.9555 9.48242 63.0843 9.35742C63.2131 9.23242 63.342 9.23242 63.4708 9.23242H67.2072C67.336 9.23242 67.4649 9.23242 67.5937 9.35742C67.7225 9.48242 67.7225 9.60742 67.7225 9.73242V13.6074H70.0417Z" fill="white"/>
<path d="M55.8698 12.3574C55.2256 12.3574 54.5814 12.1074 54.0661 11.6074C53.6796 11.1074 53.4219 10.6074 53.4219 9.85741C53.4219 9.10742 53.6796 8.60742 54.1949 8.10742C54.5814 7.60742 55.2256 7.35742 55.8698 7.35742C56.514 7.35742 57.1583 7.60742 57.6736 8.10742C58.189 8.60742 58.4467 9.23242 58.4467 9.85741C58.4467 10.4824 58.189 11.1074 57.6736 11.6074C57.1583 12.1074 56.6429 12.3574 55.8698 12.3574ZM53.5507 13.9824C53.5507 13.8574 53.5507 13.7324 53.6796 13.6074C53.8084 13.6074 53.9372 13.6074 54.0661 13.6074H57.8025C57.9313 13.6074 58.0601 13.6074 58.189 13.7324C58.3178 13.8574 58.3178 13.9824 58.3178 14.1074V28.3574C58.3178 28.4824 58.3178 28.6074 58.189 28.7324C58.0601 28.8574 57.9313 28.8574 57.8025 28.8574H54.0661C53.9372 28.8574 53.8084 28.8574 53.6796 28.7324C53.5507 28.6074 53.5507 28.4824 53.5507 28.3574V13.9824Z" fill="white"/>
<path d="M47.6228 17.3576C48.7823 17.6076 49.8131 18.2326 50.5861 19.2326C51.488 20.2326 51.8745 21.3576 51.8745 22.6076C51.8745 24.6076 51.2303 26.2326 49.8131 27.2326C48.5247 28.2326 46.4632 28.7326 43.7576 28.7326H36.156C36.0271 28.7326 35.8983 28.7326 35.7695 28.6076C35.6406 28.4826 35.6406 28.3576 35.6406 28.2326V7.85766C35.6406 7.73266 35.6406 7.60767 35.7695 7.48267C35.7695 7.48267 35.8983 7.35767 36.0271 7.35767H43.6287C45.046 7.35767 46.2055 7.60767 47.1074 8.10766C48.1381 8.60766 48.9112 9.23266 49.2977 10.1077C49.8131 10.9827 50.0707 11.8577 50.0707 12.9826C50.0707 13.9826 49.8131 14.9826 49.2977 15.7326C48.9112 16.4826 48.267 17.1076 47.6228 17.3576ZM45.6902 13.6076C45.6902 12.3576 44.9171 11.6077 43.2422 11.6077H40.4077V15.7326H43.2422C44.0153 15.7326 44.6594 15.6076 45.046 15.2326C45.4325 14.8576 45.6902 14.2326 45.6902 13.6076ZM43.8864 24.6076C44.7883 24.6076 45.5613 24.3576 46.2055 23.9826C46.7209 23.6076 47.1074 22.8576 47.1074 22.1076C47.1074 21.2326 46.8497 20.6076 46.2055 20.2326C45.6902 19.8576 44.9171 19.6076 43.8864 19.6076H40.4077V24.6076H43.8864Z" fill="white"/>
<path d="M8.97161 5.48291C9.35813 5.10791 9.87349 4.85791 10.3889 4.85791H14.1252C14.6406 4.85791 14.8983 5.35791 14.5117 5.73291L7.16785 13.4829H11.2907L15.4136 17.7329H7.16785L15.4136 26.3578H10.3889C9.87349 26.3578 9.22929 26.1078 8.84277 25.7328L0.468146 16.9829C-0.176056 16.2329 -0.176056 14.9829 0.596986 14.2329L8.97161 5.48291Z" fill="white"/>
<path d="M20.4381 34.2324C20.0516 34.6074 19.5362 34.8574 18.892 34.8574H15.1557C14.6403 34.8574 14.3826 34.3574 14.7691 33.9824L22.2419 26.2324H18.119L13.9961 21.9824H22.2419L13.9961 13.3574H19.0209C19.5362 13.3574 20.1804 13.6074 20.567 13.9824L28.9416 22.7324C29.7146 23.4824 29.7146 24.7324 28.9416 25.4824L20.4381 34.2324Z" fill="white"/>
</svg>
