<svg width="140" height="40" viewBox="0 0 140 40" fill="none" xmlns="http://www.w3.org/2000/svg">
<path d="M45.0259 16.9715H43.2646L40.1641 27.6995H43.5994L46.2196 18.6419C46.3651 18.2531 46.3069 17.8067 46.0594 17.4611C45.8265 17.1443 45.4335 16.9571 45.0259 16.9715Z" fill="white"/>
<path d="M47.4286 14.5671C47.123 15.5319 46.235 16.2087 45.2161 16.2663C44.5174 16.2951 43.9351 15.7767 43.906 15.0855C43.8914 14.9127 43.9205 14.7255 43.9933 14.5671C44.299 13.6024 45.187 12.9256 46.2059 12.868C46.628 12.8392 47.0356 13.0408 47.2976 13.3864C47.4141 13.5592 47.5014 13.7608 47.516 13.9624C47.5305 14.164 47.5014 14.3656 47.4286 14.5671Z" fill="white"/>
<path d="M61.476 16.396C60.7918 16.396 60.1222 16.5256 59.4963 16.7704C59.1906 16.9 58.914 17.0728 58.6375 17.26L59.4235 14.524C59.5545 14.1352 59.5108 13.6888 59.2634 13.3576C59.1469 13.1992 58.9868 13.0696 58.8121 12.9832C58.6375 12.8968 58.4337 12.8536 58.2299 12.868H56.5413L52.2617 27.6999H55.6097L57.2546 21.9975C57.4293 21.2487 57.8077 20.5719 58.3463 20.0247C58.7539 19.6071 59.3216 19.3623 59.9039 19.3767C60.3697 19.3335 60.8209 19.5927 61.0102 20.0247C61.214 20.6727 61.1848 21.3639 60.9519 21.9975L59.3216 27.6855H62.7133L64.329 22.1127C64.824 20.7735 64.8094 19.3047 64.2854 17.9944C63.7613 16.9432 62.6551 16.324 61.476 16.396Z" fill="white"/>
<path d="M91.9996 16.3667C90.413 16.3379 88.8554 16.7843 87.5308 17.6483C86.9485 16.7843 85.9587 16.3091 84.9106 16.3811C84.2265 16.3811 83.5569 16.5107 82.931 16.7555C82.567 16.9139 82.2177 17.1299 81.8974 17.3747C81.8101 16.7699 81.257 16.3379 80.6456 16.3811H78.9716L75.7109 27.6851H79.0589L80.7184 21.9683C80.893 21.2195 81.2715 20.5427 81.8101 19.9955C82.0139 19.7939 82.2468 19.6211 82.5234 19.5059C82.7854 19.3907 83.0765 19.3331 83.3676 19.3475C83.6005 19.3187 83.8335 19.3763 84.0227 19.4915C84.2119 19.6067 84.372 19.7939 84.4594 19.9955C84.6632 20.6435 84.6341 21.3347 84.4012 21.9683L82.7563 27.6851H86.1479L87.8074 21.9683C87.982 21.2339 88.3605 20.5427 88.8991 19.9955C89.3067 19.5779 89.8744 19.3331 90.4567 19.3475C90.937 19.3043 91.3737 19.5635 91.5629 19.9955C91.7667 20.6435 91.7376 21.3347 91.5047 21.9683L89.8453 27.6851H93.2369L94.8527 22.0835C95.3476 20.7443 95.3331 19.2755 94.809 17.9651C94.2996 16.9139 93.1787 16.2803 91.9996 16.3667Z" fill="white"/>
<path d="M65.2913 22.8184L67.1545 16.3672H70.5462L68.683 22.8184C68.1298 24.7192 69.9348 24.7192 69.9348 24.7192C71.0848 24.7048 72.0746 23.9272 72.3657 22.8184L74.229 16.3672H77.577L75.7137 22.8184C74.884 25.756 72.1474 27.7576 69.076 27.6856C69.076 27.6856 63.792 28.0312 65.2913 22.8184Z" fill="white"/>
<path d="M106.382 22.0991C106.876 20.7599 106.862 19.2911 106.338 17.9807C105.814 16.9295 104.708 16.3103 103.543 16.3967C102.859 16.3823 102.189 16.5119 101.563 16.7711C101.258 16.9007 100.981 17.0591 100.705 17.2607L101.491 14.5391C101.622 14.1503 101.578 13.7183 101.33 13.3727C101.214 13.2143 101.054 13.0847 100.865 12.9983C100.69 12.9119 100.486 12.8687 100.282 12.8831H98.6084L95.7699 22.7327C94.2123 28.1183 99.7147 27.7151 99.7147 27.7151C99.7147 27.7151 104.737 27.8015 106.382 22.0991ZM103.019 21.9839C102.83 22.7615 102.451 23.4815 101.898 24.0719C101.694 24.2879 101.461 24.4463 101.185 24.5615C100.923 24.6767 100.632 24.7343 100.341 24.7199C99.8603 24.7775 99.3944 24.5039 99.2052 24.0575C99.016 23.3663 99.0742 22.6319 99.3362 21.9695C99.5109 21.2207 99.8894 20.5439 100.428 19.9967C100.836 19.5791 101.403 19.3343 101.986 19.3487C102.451 19.3055 102.903 19.5647 103.092 19.9967C103.281 20.6591 103.266 21.3503 103.019 21.9839Z" fill="white"/>
<path d="M52.4366 14.5242C52.5094 14.337 52.5239 14.121 52.4948 13.9194C52.4657 13.7178 52.3929 13.5162 52.2765 13.3434C52.0436 13.0266 51.6651 12.8394 51.2721 12.8538H49.5253L45.9153 25.3818C45.4204 27.1098 46.2792 27.5418 47.0943 27.6138C47.6766 27.657 48.3608 27.6858 49.0304 27.6858C49.4671 27.6858 49.8892 27.6714 50.2386 27.657L50.5879 27.6426L51.3594 24.9642H49.8455C49.4379 24.9642 49.4816 24.8202 49.5107 24.6762L51.0683 19.2618H51.4904C51.9708 19.2474 52.422 19.089 52.8005 18.801C53.2081 18.513 53.4992 18.081 53.6448 17.6058L53.9068 16.713H51.8106L52.4366 14.5242Z" fill="white"/>
<path d="M40.5886 22.0991C41.0835 20.7599 41.069 19.2911 40.5449 17.9807C40.0209 16.9439 38.9146 16.3103 37.7501 16.3967C37.0659 16.3823 36.3963 16.5119 35.7704 16.7711C35.4647 16.9007 35.1881 17.0591 34.9116 17.2607L35.6976 14.5391C35.8286 14.1503 35.785 13.7183 35.5375 13.3727C35.421 13.2143 35.2609 13.0847 35.0862 12.9983C34.9116 12.9119 34.7078 12.8687 34.504 12.8831H32.8154L29.9769 22.7327C28.4194 28.1183 33.9217 27.7151 33.9217 27.7151C33.9217 27.7151 38.9292 27.8015 40.5886 22.0991ZM37.226 21.9839C37.0368 22.7615 36.6583 23.4815 36.1052 24.0719C35.6976 24.4895 35.1299 24.7343 34.5477 24.7199C34.0673 24.7775 33.6015 24.5039 33.3977 24.0575C33.2085 23.3663 33.2667 22.6319 33.5287 21.9695C33.7034 21.2207 34.0818 20.5439 34.6204 19.9967C35.028 19.5791 35.5957 19.3343 36.178 19.3487C36.6438 19.3055 37.095 19.5647 37.2843 19.9967C37.4881 20.6591 37.4735 21.3503 37.226 21.9839Z" fill="white"/>
<path d="M0.195406 17.2605C-0.328627 18.4556 0.239076 19.8524 1.44726 20.3564C1.78206 20.5004 2.14598 20.558 2.52444 20.5436H3.36872L5.77054 12.2349H1.66561L0.195406 17.2605Z" fill="white"/>
<path d="M22.8748 15.4453C21.7685 13.2565 19.8325 12.2053 17.0958 12.2053H12.0011L9.61382 20.5572H13.2384C13.8206 20.4708 14.3883 20.7732 14.6212 21.306C14.8833 22.1124 14.8542 22.9908 14.5485 23.7972C14.3156 24.7764 13.8352 25.6836 13.151 26.4324C12.6416 26.9652 11.9429 27.2676 11.2005 27.2532C10.5891 27.3252 10.0068 26.9796 9.77394 26.418C9.54103 25.554 9.59926 24.6324 9.93406 23.7972L14.3738 8.30287C14.6649 7.48207 14.5485 6.58927 14.0535 5.86928C13.5586 5.19248 12.7435 4.81808 11.8992 4.86128H6.96454L1.11283 25.266C-2.0896 36.426 9.24991 35.6052 9.24991 35.6052C9.24991 35.6052 19.5705 35.8356 22.9767 23.9988C23.9665 20.514 23.9374 17.634 22.8748 15.4453Z" fill="white"/>
<path d="M22.9743 23.9557C23.9787 20.4997 23.9496 17.6341 22.8724 15.4597C21.7661 13.2853 19.8301 12.2485 17.0935 12.2485H13.2505L10.8633 20.5573H13.2214C13.8037 20.4709 14.3714 20.7733 14.6043 21.2917C14.8663 22.0981 14.8372 22.9621 14.5315 23.7541" fill="white"/>
</svg>
