<svg width="124" height="40" viewBox="0 0 124 40" fill="none" xmlns="http://www.w3.org/2000/svg">
<path d="M45.941 16.6106H44.1796L41.0791 27.3386H44.5144L47.1346 18.281C47.2802 17.8922 47.2219 17.4458 46.9745 17.1002C46.7416 16.7834 46.3485 16.5962 45.941 16.6106Z" fill="white"/>
<path d="M48.3437 14.2066C48.038 15.1714 47.1501 15.8482 46.1311 15.9058C45.4324 15.9346 44.8501 15.4162 44.821 14.725C44.8065 14.5522 44.8356 14.365 44.9084 14.2066C45.214 13.2418 46.102 12.565 47.1209 12.5074C47.5431 12.4786 47.9507 12.6802 48.2127 13.0258C48.3291 13.1986 48.4165 13.4002 48.431 13.6018C48.4456 13.8034 48.4165 14.005 48.3437 14.2066Z" fill="white"/>
<path d="M62.392 16.0354C61.7078 16.0354 61.0382 16.165 60.4123 16.4098C60.1066 16.5394 59.83 16.7122 59.5535 16.8994L60.3395 14.1634C60.4705 13.7746 60.4269 13.3282 60.1794 12.997C60.063 12.8386 59.9028 12.709 59.7282 12.6226C59.5535 12.5362 59.3497 12.493 59.1459 12.5074H57.4573L53.1777 27.3393H56.5257L58.1706 21.6369C58.3453 20.8881 58.7238 20.2113 59.2623 19.6641C59.6699 19.2465 60.2376 19.0017 60.8199 19.0161C61.2857 18.9729 61.7369 19.2321 61.9262 19.6641C62.13 20.3121 62.1009 21.0033 61.868 21.6369L60.2376 27.3249H63.6293L65.2451 21.7521C65.74 20.4129 65.7254 18.9442 65.2014 17.6338C64.6774 16.5826 63.5711 15.9634 62.392 16.0354Z" fill="white"/>
<path d="M92.9137 16.0064C91.327 15.9776 89.7695 16.424 88.4449 17.288C87.8626 16.424 86.8728 15.9488 85.8247 16.0208C85.1405 16.0208 84.4709 16.1504 83.845 16.3952C83.4811 16.5536 83.1317 16.7696 82.8115 17.0144C82.7242 16.4096 82.171 15.9776 81.5596 16.0208H79.8856L76.625 27.3247H79.973L81.6324 21.608C81.8071 20.8592 82.1856 20.1824 82.7242 19.6352C82.928 19.4336 83.1609 19.2608 83.4374 19.1456C83.6994 19.0304 83.9906 18.9728 84.2817 18.9872C84.5146 18.9584 84.7475 19.016 84.9367 19.1312C85.126 19.2464 85.2861 19.4336 85.3734 19.6352C85.5772 20.2832 85.5481 20.9744 85.3152 21.608L83.6703 27.3247H87.062L88.7214 21.608C88.8961 20.8736 89.2746 20.1824 89.8132 19.6352C90.2208 19.2176 90.7885 18.9728 91.3707 18.9872C91.8511 18.944 92.2878 19.2032 92.477 19.6352C92.6808 20.2832 92.6517 20.9744 92.4188 21.608L90.7593 27.3247H94.151L95.7668 21.7232C96.2617 20.384 96.2471 18.9152 95.7231 17.6048C95.2136 16.5536 94.0928 15.92 92.9137 16.0064Z" fill="white"/>
<path d="M66.2034 22.458L68.0666 16.0068H71.4583L69.5951 22.458C69.0419 24.3588 70.8469 24.3588 70.8469 24.3588C71.9969 24.3444 72.9867 23.5668 73.2779 22.458L75.1411 16.0068H78.4891L76.6258 22.458C75.7961 25.3956 73.0595 27.3972 69.9881 27.3252C69.9881 27.3252 64.7041 27.6708 66.2034 22.458Z" fill="white"/>
<path d="M107.296 21.7382C107.791 20.399 107.776 18.9302 107.252 17.6198C106.728 16.5687 105.622 15.9495 104.457 16.0359C103.773 16.0215 103.103 16.1511 102.477 16.4103C102.172 16.5399 101.895 16.6982 101.619 16.8998L102.405 14.1783C102.536 13.7895 102.492 13.3575 102.245 13.0119C102.128 12.8535 101.968 12.7239 101.779 12.6375C101.604 12.5511 101.4 12.5079 101.196 12.5223H99.5225L96.6839 22.3718C95.1264 27.7574 100.629 27.3542 100.629 27.3542C100.629 27.3542 105.651 27.4406 107.296 21.7382ZM103.933 21.623C103.744 22.4006 103.365 23.1206 102.812 23.711C102.608 23.927 102.376 24.0854 102.099 24.2006C101.837 24.3158 101.546 24.3734 101.255 24.359C100.774 24.4166 100.309 24.143 100.119 23.6966C99.93 23.0054 99.9883 22.271 100.25 21.6086C100.425 20.8598 100.803 20.183 101.342 19.6358C101.75 19.2182 102.317 18.9734 102.9 18.9878C103.365 18.9446 103.817 19.2038 104.006 19.6358C104.195 20.2982 104.181 20.9894 103.933 21.623Z" fill="white"/>
<path d="M53.3516 14.1636C53.4244 13.9764 53.439 13.7604 53.4098 13.5588C53.3807 13.3572 53.308 13.1556 53.1915 12.9828C52.9586 12.666 52.5801 12.4788 52.1871 12.4932H50.4403L46.8303 25.0212C46.3354 26.7492 47.1942 27.1812 48.0094 27.2532C48.5916 27.2964 49.2758 27.3252 49.9454 27.3252C50.3821 27.3252 50.8042 27.3108 51.1536 27.2964L51.5029 27.282L52.2744 24.6036H50.7606C50.353 24.6036 50.3967 24.4596 50.4258 24.3156L51.9833 18.9012H52.4054C52.8858 18.8868 53.3371 18.7284 53.7155 18.4404C54.1231 18.1524 54.4142 17.7204 54.5598 17.2452L54.8218 16.3524H52.7257L53.3516 14.1636Z" fill="white"/>
<path d="M41.5027 21.7382C41.9976 20.399 41.983 18.9302 41.459 17.6198C40.935 16.5831 39.8287 15.9495 38.6641 16.0359C37.98 16.0215 37.3104 16.1511 36.6845 16.4103C36.3788 16.5399 36.1022 16.6982 35.8256 16.8998L36.6117 14.1783C36.7427 13.7895 36.699 13.3575 36.4516 13.0119C36.3351 12.8535 36.175 12.7239 36.0003 12.6375C35.8256 12.5511 35.6218 12.5079 35.418 12.5223H33.7295L30.891 22.3718C29.3334 27.7574 34.8358 27.3542 34.8358 27.3542C34.8358 27.3542 39.8432 27.4406 41.5027 21.7382ZM38.1401 21.623C37.9509 22.4006 37.5724 23.1206 37.0193 23.711C36.6117 24.1286 36.044 24.3734 35.4617 24.359C34.9814 24.4166 34.5155 24.143 34.3118 23.6966C34.1225 23.0054 34.1807 22.271 34.4428 21.6086C34.6174 20.8598 34.9959 20.183 35.5345 19.6358C35.9421 19.2182 36.5098 18.9734 37.092 18.9878C37.5579 18.9446 38.0091 19.2038 38.1983 19.6358C38.4021 20.2982 38.3876 20.9894 38.1401 21.623Z" fill="white"/>
<path d="M1.10947 16.8996C0.585435 18.0948 1.15314 19.4916 2.36133 19.9956C2.69613 20.1396 3.06004 20.1972 3.43851 20.1828H4.28278L6.6846 11.874H2.57967L1.10947 16.8996Z" fill="white"/>
<path d="M23.7888 15.0847C22.6825 12.8959 20.7465 11.8447 18.0099 11.8447H12.9151L10.5279 20.1966H14.1524C14.7347 20.1102 15.3024 20.4126 15.5353 20.9454C15.7973 21.7518 15.7682 22.6302 15.4625 23.4366C15.2296 24.4158 14.7493 25.323 14.0651 26.0718C13.5556 26.6046 12.8569 26.907 12.1145 26.8926C11.5032 26.9646 10.9209 26.619 10.688 26.0574C10.4551 25.1934 10.5133 24.2718 10.8481 23.4366L15.2879 7.94227C15.579 7.12147 15.4625 6.22868 14.9676 5.50868C14.4727 4.83188 13.6575 4.45748 12.8132 4.50068H7.8786L2.02689 24.9054C-1.17553 36.0654 10.164 35.2446 10.164 35.2446C10.164 35.2446 20.4845 35.475 23.8907 23.6382C24.8806 20.1534 24.8515 17.2734 23.7888 15.0847Z" fill="white"/>
<path d="M23.8864 23.5949C24.8908 20.1389 24.8617 17.2733 23.7845 15.0989C22.6782 12.9245 20.7422 11.8877 18.0056 11.8877H14.1627L11.7754 20.1965H14.1335C14.7158 20.1101 15.2835 20.4125 15.5164 20.9309C15.7784 21.7373 15.7493 22.6013 15.4436 23.3933" fill="white"/>
</svg>
