<svg width="140" height="40" viewBox="0 0 140 40" fill="none" xmlns="http://www.w3.org/2000/svg">
<path d="M10.0207 11.208H21.0331C21.0264 11.3498 20.9761 11.4864 20.8887 11.6C20.5159 12.2224 20.1803 12.8702 19.8141 13.4927C19.2959 14.3864 18.8113 15.2964 18.2847 16.1865C17.951 16.8271 17.5745 17.4477 17.2185 18.0774C15.0786 18.0774 12.9388 18.0774 10.7989 18.0774C10.6871 18.0774 10.5762 18.0829 10.4644 18.0892C10.3712 18.3288 10.2165 18.5383 10.0916 18.7634C9.92847 19.021 9.79613 19.296 9.63489 19.5537C9.46434 19.9003 9.22855 20.2106 9.05706 20.5563C8.70291 21.1415 8.37205 21.7358 8.02535 22.3274C7.66374 22.9323 7.3102 23.5456 6.96475 24.1674C6.81855 24.3878 6.68386 24.6152 6.5612 24.8488C5.83704 26.0756 5.13619 27.3132 4.4111 28.539C4.3496 28.6707 4.26859 28.793 4.17065 28.9019C2.9311 28.8937 1.69156 28.9019 0.452014 28.9019C0.299345 28.9047 0.147582 28.9254 0 28.9636C0 28.6297 0.229269 28.362 0.383979 28.0817C0.570377 27.7051 0.819218 27.3558 1.00655 26.9784C2.49214 24.3906 3.96188 21.7939 5.44281 19.2043C5.77833 18.6418 6.06631 18.0674 6.40369 17.5158C6.82495 16.7899 7.21732 16.0477 7.65628 15.33C7.79608 15.0297 7.98434 14.7548 8.13812 14.4617C8.68427 13.5154 9.22016 12.5636 9.76444 11.6172C9.82901 11.4694 9.91535 11.3316 10.0207 11.208Z" fill="white"/>
<path d="M22.7789 15.0168C23.5123 13.7692 24.2207 12.508 24.9644 11.2659H28.9421C29.0001 11.2687 29.0575 11.2775 29.1136 11.2922C28.9813 11.4873 28.8703 11.6941 28.7538 11.8974C27.7945 13.5735 26.838 15.2506 25.8843 16.9285C25.4835 17.6118 25.1107 18.3104 24.7044 18.99L24.6643 19.0036L24.6568 19.0889C22.7866 22.3553 20.9227 25.6241 19.0649 28.8953C15.4134 28.899 11.7615 28.899 8.10938 28.8953C8.31721 28.4725 8.56325 28.0688 8.79439 27.6577C9.83449 25.7959 10.9016 23.9504 11.9268 22.0885C14.1704 22.0849 16.414 22.0849 18.6576 22.0885C20.0435 19.7385 21.3995 17.3704 22.7751 15.0168H22.7789Z" fill="white"/>
<path d="M63.8281 11.217V29.1096H67.0127V16.5277L72.8218 24.8143L78.5843 16.3308V29.1096H81.8621V11.217H78.3364L72.8451 19.4765L67.2923 11.217H63.8281Z" fill="white"/>
<path d="M48.9336 15.8337H51.0147V29.2623H48.9336V15.8337Z" fill="white"/>
<path d="M48.7578 10.8579H51.1968V13.1108H48.7578V10.8579Z" fill="white"/>
<path d="M54.9895 11.9849H57.1638V15.8329H61.4509V17.7083H57.1638V25.6856C57.1601 25.993 57.2333 26.2966 57.3772 26.5702C57.7454 27.2507 58.7454 28.0583 61.4509 27.1146V28.8531C61.4509 28.8531 58.9812 30.2141 56.7444 28.9747C56.7444 28.9747 55.6335 28.5156 55.1665 26.9658C55.0453 26.5507 54.9856 26.1208 54.9895 25.6892V17.6784L53.1562 17.7083V15.8329H55.0044L54.9895 11.9849Z" fill="white"/>
<path d="M85.2188 11.2173V29.2306H99.0429V26.3271H88.5898V21.5482H97.8006V18.6901H88.5739V14.1389H98.9348V11.2173H85.2188Z" fill="white"/>
<path d="M100.338 11.217H104.275L108.796 17.5411L113.28 11.217H117.218L110.787 20.0018L117.619 29.2149H113.471L108.811 22.4861L103.926 29.2303H99.9883L106.722 20.0817L100.338 11.217Z" fill="white"/>
<path d="M42.5625 19.8852C42.5625 19.8852 45.6074 18.7665 45.421 15.5454C45.421 15.5454 45.3958 12.4478 41.8132 11.4915C41.2176 11.3361 40.6032 11.2592 39.9865 11.2628H31.3945L31.4178 29.1554H40.6678C40.6678 29.1554 46.0808 29.042 46.462 24.3466C46.462 24.3466 46.8497 21.0647 42.5625 19.8852ZM33.6155 13.1101H39.0993C43.4013 13.0956 43.2774 16.0445 43.2774 16.0445C43.3417 19.4088 39.3938 19.3408 39.3938 19.3408H33.6155V13.1101ZM40.3258 27.2645H33.6155V21.0348H40.0313C44.3333 21.0194 44.2094 23.9682 44.2094 23.9682C44.2737 27.3326 40.3258 27.2645 40.3258 27.2645Z" fill="white"/>
</svg>
