<svg width="140" height="40" viewBox="0 0 140 40" fill="none" xmlns="http://www.w3.org/2000/svg">
<path d="M61.5273 27.5605V6.92676H65.7909V27.5605H61.5273Z" fill="white"/>
<path d="M11.8713 33.6889H2.73828V13.0552H11.501C15.7646 13.0552 18.2442 15.3163 18.2442 18.8553C18.2442 21.1492 16.651 22.6238 15.5514 23.1153C16.8642 23.6943 18.5584 24.9941 18.5584 27.7577C18.5584 31.6026 15.7646 33.6889 11.8713 33.6889ZM11.1757 16.6489H7.01307V21.4004H11.1757C12.9821 21.4004 13.9919 20.4392 13.9919 19.0192C13.9919 17.5992 12.9821 16.6489 11.1757 16.6489ZM11.4449 25.016H7.00185V30.0843H11.4449C13.3748 30.0843 14.2948 28.9264 14.2948 27.5283C14.2948 26.1301 13.3748 25.016 11.4449 25.016Z" fill="white"/>
<path d="M31.5514 25.2235V33.6889H27.3215V25.2235L20.7578 13.0552H25.3804L29.4533 21.3677L33.47 13.0552H38.0926L31.5514 25.2235Z" fill="white"/>
<path d="M50.1877 33.6889H41.0547V13.0552H49.8174C54.081 13.0552 56.5606 15.3163 56.5606 18.8553C56.5606 21.1492 54.9674 22.6238 53.8678 23.1153C55.1806 23.6943 56.8748 24.9941 56.8748 27.7577C56.8636 31.6026 54.081 33.6889 50.1877 33.6889ZM49.4809 16.6489H45.3183V21.4004H49.4809C51.2873 21.4004 52.297 20.4392 52.297 19.0192C52.297 17.5992 51.2873 16.6489 49.4809 16.6489ZM49.7501 25.016H45.307V30.0843H49.7501C51.68 30.0843 52.6 28.9264 52.6 27.5283C52.6 26.1301 51.6912 25.016 49.7501 25.016Z" fill="white"/>
<path d="M79.5146 16.6489V33.6889H75.251V16.6489H69.5625V13.0552H85.2143V16.6489H79.5146Z" fill="white"/>
</svg>
