<svg width="124" height="40" viewBox="0 0 124 40" fill="none" xmlns="http://www.w3.org/2000/svg">
<g opacity="0.4">
<path d="M62.4434 25.3852V4.75146H66.7069V25.3852H62.4434Z" fill="white"/>
<path d="M12.7834 31.5136H3.65039V10.8799H12.4132C16.6767 10.8799 19.1563 13.141 19.1563 16.68C19.1563 18.9739 17.5631 20.4485 16.4635 20.9401C17.7763 21.519 19.4705 22.8188 19.4705 25.5824C19.4705 29.4273 16.6767 31.5136 12.7834 31.5136ZM12.0878 14.4736H7.92518V19.2251H12.0878C13.8942 19.2251 14.904 18.2639 14.904 16.8439C14.904 15.4239 13.8942 14.4736 12.0878 14.4736ZM12.3571 22.8407H7.91396V27.909H12.3571C14.2869 27.909 15.2069 26.7511 15.2069 25.353C15.2069 23.9548 14.2869 22.8407 12.3571 22.8407Z" fill="white"/>
<path d="M32.4664 23.0482V31.5136H28.2365V23.0482L21.6729 10.8799H26.2955L30.3683 19.1924L34.385 10.8799H39.0076L32.4664 23.0482Z" fill="white"/>
<path d="M51.1018 31.5136H41.9688V10.8799H50.7315C54.9951 10.8799 57.4747 13.141 57.4747 16.68C57.4747 18.9739 55.8815 20.4485 54.7819 20.9401C56.0946 21.519 57.7888 22.8188 57.7888 25.5824C57.7776 29.4273 54.9951 31.5136 51.1018 31.5136ZM50.3949 14.4736H46.2323V19.2251H50.3949C52.2013 19.2251 53.2111 18.2639 53.2111 16.8439C53.2111 15.4239 52.2013 14.4736 50.3949 14.4736ZM50.6642 22.8407H46.2211V27.909H50.6642C52.594 27.909 53.5141 26.7511 53.5141 25.353C53.5141 23.9548 52.6052 22.8407 50.6642 22.8407Z" fill="white"/>
<path d="M80.4306 14.4736V31.5136H76.167V14.4736H70.4785V10.8799H86.1303V14.4736H80.4306Z" fill="white"/>
</g>
</svg>
