<svg width="188" height="59" viewBox="0 0 188 59" fill="none" xmlns="http://www.w3.org/2000/svg">
<g clip-path="url(#clip0_3035_4686)">
<path d="M76.9206 26.7476C76.4324 24.8268 75.2007 23.4209 72.7847 23.4209C69.2272 23.4209 67.7401 26.5835 67.7401 29.7916C67.7401 32.9997 69.2272 36.1648 72.7847 36.1648C75.3634 36.1648 76.7904 34.2213 77.0132 31.7856H79.8498C79.6169 35.7912 76.8054 38.5551 72.7847 38.5551C67.8102 38.5551 64.8359 34.5721 64.8359 29.7916C64.8359 25.0111 67.8102 21.0306 72.7847 21.0306C76.525 21.0534 79.4767 23.1382 79.8247 26.7476H76.9206ZM81.5697 32.0885C81.5697 28.3882 83.7778 25.7153 87.6358 25.7153C91.4938 25.7153 93.6994 28.3882 93.6994 32.0885C93.6994 35.7887 91.4913 38.4844 87.6358 38.4844C83.7803 38.4844 81.5697 35.814 81.5697 32.0885ZM91.0507 32.0885C91.0507 30.0036 90.0042 27.8254 87.6358 27.8254C85.2674 27.8254 84.2185 30.0036 84.2185 32.0885C84.2185 34.1733 85.2649 36.3793 87.6358 36.3793C90.0067 36.3793 91.0507 34.1986 91.0507 32.0885ZM95.9777 21.4294H98.6264V23.9535H95.9777V21.4294ZM95.9777 26.0434H98.6264V38.1588H95.9777V26.0434ZM101.511 26.0434H104.014V27.8254L104.062 27.8708C104.442 27.2117 104.988 26.6653 105.645 26.2869C106.301 25.9084 107.046 25.7112 107.802 25.7153C110.406 25.7153 112.058 27.1212 112.058 29.8396V38.1689H109.412V30.5438C109.364 28.6457 108.621 27.8254 107.063 27.8254C105.298 27.8254 104.159 29.2313 104.159 31.0107V38.1563H101.511V26.0434ZM129.701 38.1563H127.84L127.4 36.19C125.843 37.9695 124.423 38.5551 122.393 38.5551C117.418 38.5551 114.444 34.5721 114.444 29.7916C114.444 25.0111 117.418 21.0306 122.393 21.0306C126.018 21.0306 129.062 22.9742 129.503 26.7476H126.679C126.398 24.5441 124.493 23.4209 122.403 23.4209C118.848 23.4209 117.358 26.5835 117.358 29.7916C117.358 32.9997 118.848 36.1648 122.403 36.1648C125.377 36.2128 127.004 34.398 127.049 31.5736H122.636V29.3474H129.701V38.1563ZM134.557 32.7927C134.557 34.6908 135.579 36.3768 137.787 36.3768C139.322 36.3768 140.251 35.6979 140.716 34.3576H143.22C142.639 37.0053 140.408 38.4794 137.782 38.4794C134.027 38.4794 131.904 35.8316 131.904 32.1061C131.904 28.6633 134.134 25.7102 137.712 25.7102C141.5 25.7102 143.826 29.1555 143.382 32.7775L134.557 32.7927ZM140.739 31.0259C140.646 29.3398 139.507 27.8178 137.717 27.8178C135.882 27.8178 134.628 29.2237 134.557 31.0259H140.739ZM153.522 30.097C153.312 28.6204 152.243 27.8254 150.768 27.8254C149.399 27.8254 147.468 28.5523 147.468 32.2298C147.468 34.2491 148.352 36.3768 150.653 36.3768C152.187 36.3768 153.257 35.347 153.512 33.613H156.161C155.66 36.7504 153.745 38.4844 150.653 38.4844C146.897 38.4844 144.82 35.7912 144.82 32.2298C144.82 28.575 146.795 25.7153 150.745 25.7153C153.534 25.7153 155.905 27.1212 156.161 30.097H153.522ZM158.401 21.4294H161.053V30.94L165.852 26.0434H169.107L164.505 30.4958L169.55 38.1563H166.303L162.632 32.2753L161.053 33.8225V38.1563H158.401V21.4294ZM170.256 32.0885C170.256 28.3882 172.464 25.7153 176.319 25.7153C180.175 25.7153 182.375 28.3882 182.375 32.0885C182.375 35.7887 180.167 38.4844 176.309 38.4844C172.451 38.4844 170.256 35.814 170.256 32.0885ZM179.737 32.0885C179.737 30.0036 178.69 27.8254 176.319 27.8254C173.948 27.8254 172.904 30.0036 172.904 32.0885C172.904 34.1733 173.951 36.3793 176.319 36.3793C178.688 36.3793 179.737 34.1986 179.737 32.0885Z" fill="white"/>
<path d="M50.1316 31.7932C50.1524 36.531 48.7792 41.1686 46.1857 45.1196C43.5922 49.0706 39.8948 52.1576 35.5612 53.9901C31.2275 55.8227 26.4522 56.3185 21.8391 55.4149C17.2259 54.5114 12.9821 52.249 9.64429 48.9138C6.30647 45.5787 4.02452 41.3206 3.08701 36.678C2.14951 32.0354 2.59854 27.2167 4.37732 22.8314C6.15611 18.446 9.18477 14.6909 13.0803 12.0409C16.9759 9.3909 21.5634 7.96498 26.2627 7.94347C32.5649 7.91529 38.62 10.4121 43.0962 14.8848C47.5725 19.3574 50.1031 25.4395 50.1316 31.7932Z" fill="#8DC63F"/>
<path d="M48.3445 31.7982C48.3643 36.1792 47.095 40.4677 44.6973 44.1214C42.2995 47.7752 38.881 50.63 34.8739 52.325C30.8668 54.0199 26.4512 54.4789 22.1854 53.6438C17.9196 52.8087 13.9952 50.717 10.9085 47.6333C7.82185 44.5496 5.71148 40.6123 4.8443 36.3194C3.97711 32.0265 4.39205 27.5707 6.03666 23.5156C7.68126 19.4604 10.4817 15.988 14.0837 13.5374C17.6858 11.0868 21.9278 9.76817 26.2732 9.74816C29.1585 9.73487 32.0181 10.2947 34.6889 11.3956C37.3596 12.4965 39.789 14.117 41.8386 16.1646C43.8881 18.2121 45.5175 20.6466 46.6338 23.329C47.7501 26.0114 48.3314 28.8893 48.3445 31.7982Z" fill="#F9E988"/>
<path d="M26.7734 11.1843C28.1702 10.9329 29.6001 10.9329 30.9969 11.1843C32.4071 11.4095 33.7702 11.8702 35.0302 12.5472C36.2819 13.2414 37.366 14.1828 38.4425 15.0713C39.519 15.9598 40.5931 16.8583 41.6145 17.8477C42.6561 18.8206 43.5652 19.9281 44.3183 21.1416C45.0949 22.3469 45.7308 23.6385 46.2135 24.9908C47.1528 27.6918 47.4202 30.584 46.9921 33.4135H46.852C46.4396 30.7103 45.7499 28.0576 44.794 25.4981C44.3359 24.2323 43.7965 22.998 43.1792 21.8029C42.5305 20.6113 41.8167 19.4569 41.0412 18.345C40.2501 17.2196 39.2808 16.233 38.1721 15.4247C37.058 14.6245 35.7762 14.1046 34.5345 13.6124C33.2927 13.1202 32.0509 12.6305 30.7616 12.2545C29.4723 11.8784 28.1529 11.5982 26.7784 11.3256L26.7734 11.1843Z" fill="white"/>
<path d="M37.5141 23.9736C35.9193 23.5067 34.2595 22.8479 32.5921 22.1815C32.497 21.7575 32.124 21.23 31.3729 20.5863C30.2788 19.6297 28.2259 19.655 26.4509 20.0815C24.4931 19.6171 22.5579 19.453 20.6927 19.9023C5.50866 24.1175 14.1209 34.4232 8.54297 44.7717C9.3366 46.4679 17.8912 56.3823 30.2688 53.7144C30.2688 53.7144 26.0378 43.4592 35.5889 38.5373C43.3374 34.5317 48.9378 27.116 37.5141 23.9736Z" fill="#8BC53F"/>
<path d="M39.3895 30.7154C39.391 30.8993 39.3382 31.0795 39.238 31.2332C39.1378 31.3869 38.9946 31.5071 38.8265 31.5786C38.6585 31.6502 38.4731 31.6698 38.294 31.635C38.1148 31.6002 37.95 31.5126 37.8203 31.3833C37.6906 31.2539 37.6019 31.0887 37.5654 30.9085C37.529 30.7283 37.5464 30.5412 37.6156 30.371C37.6847 30.2008 37.8024 30.0551 37.9537 29.9524C38.105 29.8497 38.2832 29.7946 38.4657 29.7941C38.5863 29.7934 38.7059 29.8167 38.8176 29.8627C38.9294 29.9086 39.031 29.9763 39.1168 30.0618C39.2026 30.1474 39.2708 30.2491 39.3176 30.3612C39.3644 30.4734 39.3888 30.5937 39.3895 30.7154Z" fill="white"/>
<path d="M26.4492 20.0765C27.5558 20.1573 31.559 21.4748 32.5904 22.1816C31.7367 19.6575 28.8351 19.3294 26.4492 20.0765Z" fill="#009345"/>
<path d="M27.5043 26.4421C27.5043 27.2908 27.2547 28.1204 26.787 28.826C26.3193 29.5316 25.6546 30.0816 24.877 30.4064C24.0993 30.7311 23.2435 30.8161 22.4179 30.6505C21.5923 30.485 20.834 30.0763 20.2388 29.4762C19.6435 28.8761 19.2382 28.1116 19.074 27.2792C18.9097 26.4469 18.994 25.5841 19.3162 24.8001C19.6383 24.016 20.1838 23.3459 20.8837 22.8744C21.5836 22.4029 22.4065 22.1512 23.2482 22.1512C24.377 22.1512 25.4595 22.6033 26.2577 23.408C27.0559 24.2127 27.5043 25.3041 27.5043 26.4421Z" fill="white"/>
<path d="M26.2441 26.48C26.2446 27.0762 26.0697 27.6591 25.7416 28.155C25.4134 28.6509 24.9467 29.0376 24.4005 29.2661C23.8544 29.4946 23.2533 29.5546 22.6732 29.4386C22.0932 29.3226 21.5603 29.0358 21.142 28.6144C20.7237 28.1931 20.4388 27.6561 20.3232 27.0714C20.2077 26.4867 20.2668 25.8806 20.4929 25.3298C20.7191 24.779 21.1022 24.3082 21.5939 23.9769C22.0855 23.6456 22.6635 23.4688 23.2549 23.4688C24.047 23.4695 24.8066 23.7869 25.367 24.3514C25.9273 24.9158 26.2428 25.6814 26.2441 26.48Z" fill="#58595B"/>
<path d="M42.8323 32.6034C39.3899 35.0492 35.4744 36.8942 29.9215 36.8942C27.3228 36.8942 26.7971 34.1178 25.0796 35.4757C24.1908 36.1799 21.0739 37.7474 18.5829 37.6363C16.0918 37.5252 12.0736 36.0487 10.9596 30.7103C10.5164 36.0487 10.2886 39.9811 8.30078 44.4891C12.2614 50.8825 21.7023 55.8119 30.2695 53.6917C29.3507 47.21 34.9687 40.8595 38.1357 37.6111C39.3323 36.3819 41.6406 34.3727 42.8323 32.5933V32.6034Z" fill="#8BC53F"/>
<path d="M42.6973 32.7649C41.6006 33.7158 40.377 34.5068 39.0622 35.1148C37.7516 35.7426 36.3853 36.2446 34.9814 36.6141C33.5794 36.9801 32.1123 37.2552 30.6277 37.1189C29.1431 36.9826 27.6234 36.4727 26.6445 35.3521L26.6921 35.2965C27.9038 36.0866 29.2883 36.3642 30.6702 36.4046C32.0734 36.4457 33.4766 36.328 34.8537 36.0537C36.2449 35.7614 37.6061 35.3389 38.9195 34.7917C40.2541 34.2779 41.5106 33.5778 42.6523 32.7119L42.6973 32.7649Z" fill="#58595B"/>
</g>
<defs>
<clipPath id="clip0_3035_4686">
<rect width="188" height="58" fill="white" transform="translate(0 0.483398)"/>
</clipPath>
</defs>
</svg>
