<svg width="140" height="40" viewBox="0 0 140 40" fill="none" xmlns="http://www.w3.org/2000/svg">
<path d="M20.5709 10.7097H19.7064V5.85791H14.7842V10.7097H9.86204V5.85791H4.9222V10.7097H0V15.5615H4.9222V25.2826H0V30.1344H4.9222V35.0037H9.84439V30.1519H14.7666V35.0037H19.6888V30.1519H20.5533C25.9871 30.1519 30.4153 25.8062 30.4153 20.4308C30.4329 15.0729 26.0224 10.7097 20.5709 10.7097ZM20.5709 25.3001H9.86204V15.579H20.5885C23.3055 15.579 25.5107 17.7606 25.5107 20.4308C25.5107 23.1185 23.2878 25.3001 20.5709 25.3001Z" fill="white"/>
<path d="M43.2969 12.9785H37.3867V27.534H43.2969C47.3722 27.534 50.4773 24.375 50.4773 20.2562C50.4773 16.1374 47.3722 12.9785 43.2969 12.9785ZM43.2969 24.3401H40.7564V16.1898H43.2792C45.608 16.1898 47.1958 17.778 47.1958 20.2737C47.1958 22.7694 45.608 24.3401 43.2969 24.3401Z" fill="white"/>
<path d="M55.0786 23.5896H62.5766C62.6648 23.1882 62.7001 22.7868 62.7001 22.333C62.7001 19.1915 60.4242 16.8354 57.3368 16.8354C54.0024 16.8354 51.7266 19.2265 51.7266 22.333C51.7266 25.4396 53.9671 27.8306 57.5662 27.8306C59.5774 27.8306 61.1299 27.0976 62.1708 25.6839L59.6479 24.2528C59.2245 24.7066 58.4836 25.0382 57.6191 25.0382C56.4547 25.0556 55.4844 24.6717 55.0786 23.5896ZM55.0257 21.2684C55.3256 20.2038 56.1195 19.6279 57.3192 19.6279C58.2718 19.6279 59.2245 20.0642 59.5597 21.2684H55.0257Z" fill="white"/>
<path d="M67.658 18.9998V17.1499H64.5V27.5516H67.658V22.8394C67.658 20.78 69.5104 20.2564 70.8159 20.4659V16.9404C69.4928 16.9404 68.0814 17.6036 67.658 18.9998Z" fill="white"/>
<path d="M73.8858 16.2251C74.9267 16.2251 75.7912 15.3699 75.7912 14.3577C75.7912 13.3454 74.9267 12.4902 73.8858 12.4902C72.8449 12.4902 71.9805 13.3454 71.9805 14.3577C71.9805 15.3699 72.8449 16.2251 73.8858 16.2251ZM72.298 27.5518H75.456V17.1501H72.298V27.5518Z" fill="white"/>
<path d="M84.103 16.853C82.6916 16.853 81.6507 17.3242 80.9627 18.127V12.9785H77.8047V27.534H80.9627V26.5566C81.6507 27.342 82.6916 27.8307 84.103 27.8307C86.8728 27.8307 89.1487 25.4397 89.1487 22.3331C89.131 19.244 86.8552 16.853 84.103 16.853ZM83.4679 24.8812C82.0036 24.8812 80.9627 23.9038 80.9627 22.3506C80.9627 20.7973 82.0212 19.8199 83.4679 19.8199C84.9322 19.8199 85.9731 20.7973 85.9731 22.3506C85.9731 23.9038 84.9145 24.8812 83.4679 24.8812Z" fill="white"/>
<path d="M92.5187 16.2251C93.5596 16.2251 94.424 15.3699 94.424 14.3577C94.424 13.3454 93.5596 12.4902 92.5187 12.4902C91.4778 12.4902 90.6133 13.3454 90.6133 14.3577C90.6133 15.3699 91.4778 16.2251 92.5187 16.2251ZM90.9309 27.5518H94.0888V17.1501H90.9309V27.5518Z" fill="white"/>
<path d="M102.608 20.1343V17.1499H100.438V14.2354L97.2796 15.1778V17.1499H95.5859V20.1518H97.2796V23.8343C97.2796 26.7488 98.4793 27.9705 102.625 27.5517V24.7069C101.231 24.7942 100.455 24.7069 100.455 23.8168V20.1343H102.608Z" fill="white"/>
</svg>
