<svg width="123" height="40" viewBox="0 0 123 40" fill="none" xmlns="http://www.w3.org/2000/svg">
<g opacity="0.4">
<path fill-rule="evenodd" clip-rule="evenodd" d="M90.2326 15.4331H93.3251V12.3739H90.2326V15.4331ZM73.7945 20.5304C74.3869 18.9792 75.8983 17.8762 77.671 17.8762C79.4438 17.8762 80.9595 18.9792 81.5475 20.5304H73.7945ZM77.671 15.0281C73.7945 15.0281 70.6498 18.139 70.6498 21.9738C70.6498 25.8087 73.7945 28.9196 77.671 28.9196C80.3323 28.9196 82.6451 27.4546 83.8342 25.3002L81.2426 24.055C80.5196 25.2657 79.1911 26.0758 77.671 26.0758C75.7502 26.0758 74.1343 24.7832 73.6638 23.0252H81.6782V23.0295H84.6139C84.6661 22.6848 84.6923 22.3315 84.6923 21.9738C84.6923 18.139 81.5519 15.0281 77.671 15.0281ZM85.5111 28.549H88.6036V25.4898H85.5111V28.549ZM90.2326 28.549H93.3251V16.7774H90.2326V28.549ZM101.954 26.0758C99.6626 26.0758 97.8071 24.2403 97.8071 21.9738C97.8071 19.7074 99.6626 17.8719 101.954 17.8719C104.245 17.8719 106.1 19.7074 106.1 21.9738C106.1 24.2403 104.245 26.0758 101.954 26.0758ZM101.954 15.0281C98.0771 15.0281 94.9324 18.139 94.9324 21.9738C94.9324 25.8087 98.0771 28.9196 101.954 28.9196C105.83 28.9196 108.975 25.8087 108.975 21.9738C108.975 18.139 105.83 15.0281 101.954 15.0281ZM37.2988 19.4144V22.5771H41.6239C41.3974 23.4819 40.9531 24.292 40.3128 24.9383C39.3459 25.9164 38.0087 26.4507 36.5452 26.4507C33.505 26.4507 31.031 24.0033 31.031 20.9914C31.031 17.9839 33.505 15.5322 36.5452 15.5322C38.1742 15.5322 39.6726 16.2216 40.7092 17.4108L43.1832 15.4072C41.5411 13.5028 39.1063 12.3652 36.5452 12.3652C31.741 12.3652 27.834 16.2345 27.834 20.9871C27.834 25.7397 31.741 29.609 36.5452 29.609C38.8798 29.609 41.0272 28.7774 42.5995 27.1875C43.9193 25.8517 44.7948 23.9903 44.9603 22.1289C45.0431 21.2198 45.0518 20.3149 44.9995 19.4058L37.2988 19.4144ZM53.0487 26.0758C50.762 26.0758 48.9021 24.2403 48.9021 21.9738C48.9021 19.7074 50.7576 17.8719 53.0487 17.8719C55.3397 17.8719 57.1952 19.7074 57.1952 21.9738C57.1952 24.2403 55.3397 26.0758 53.0487 26.0758ZM57.1952 16.381C56.0323 15.5365 54.5993 15.041 53.0487 15.041C49.1722 15.041 46.0318 18.1519 46.0318 21.9868C46.0318 25.8216 49.1765 28.9325 53.0487 28.9325C54.5993 28.9325 56.0323 28.4327 57.1952 27.5925V28.5533H60.0699V15.4202H57.1952V16.381ZM66.2375 12.3739H63.3628V15.4331H61.6423V18.1175H63.3628V25.1408C63.3628 25.8647 63.4543 26.4765 63.6372 26.9548C63.8158 27.4288 64.0945 27.7993 64.4212 28.088C64.7522 28.381 65.1399 28.6094 65.6016 28.7429C66.072 28.8722 66.586 28.9239 67.1348 28.9239C67.701 28.9239 68.2063 28.8679 68.6331 28.7516C69.0338 28.6438 69.4171 28.493 69.7699 28.3034V26.1404C69.2037 26.3817 68.6723 26.4722 68.0669 26.4981C67.4266 26.5282 67.052 26.3472 66.7384 26.0499C66.4074 25.7397 66.2332 25.3347 66.2332 24.6582V18.1175H69.7699V15.4331H66.2332V12.3739H66.2375Z" fill="white"/>
<path fill-rule="evenodd" clip-rule="evenodd" d="M12.5517 27.2175C8.76669 27.2175 5.69598 24.1798 5.69598 20.4354C5.69598 16.6911 8.76669 13.6534 12.5517 13.6534V8.09937C5.66549 8.09937 0.0859375 13.6232 0.0859375 20.4354C0.0859375 27.2476 5.66549 32.7672 12.5517 32.7672C19.4336 32.7672 25.0175 27.2433 25.0175 20.4354H19.4075C19.4075 24.1841 16.3368 27.2175 12.5517 27.2175Z" fill="white"/>
<path fill-rule="evenodd" clip-rule="evenodd" d="M12.5498 20.4354H19.4056V13.6533H12.5498V20.4354Z" fill="white"/>
</g>
</svg>
