<svg width="140" height="40" viewBox="0 0 140 40" fill="none" xmlns="http://www.w3.org/2000/svg">
<path fill-rule="evenodd" clip-rule="evenodd" d="M90.1486 15.1479H93.2411V12.0887H90.1486V15.1479ZM73.7105 20.2452C74.3029 18.6941 75.8143 17.591 77.587 17.591C79.3598 17.591 80.8755 18.6941 81.4635 20.2452H73.7105ZM77.587 14.7429C73.7105 14.7429 70.5658 17.8539 70.5658 21.6887C70.5658 25.5235 73.7105 28.6344 77.587 28.6344C80.2483 28.6344 82.5612 27.1695 83.7502 25.0151L81.1586 23.7698C80.4356 24.9806 79.1071 25.7906 77.587 25.7906C75.6662 25.7906 74.0503 24.498 73.5799 22.74H81.5942V22.7443H84.5299C84.5822 22.3996 84.6083 22.0463 84.6083 21.6887C84.6083 17.8539 81.4679 14.7429 77.587 14.7429ZM85.4272 28.2639H88.5196V25.2046H85.4272V28.2639ZM90.1486 28.2639H93.2411V16.4923H90.1486V28.2639ZM101.87 25.7906C99.5786 25.7906 97.7231 23.9551 97.7231 21.6887C97.7231 19.4223 99.5786 17.5867 101.87 17.5867C104.161 17.5867 106.016 19.4223 106.016 21.6887C106.016 23.9551 104.161 25.7906 101.87 25.7906ZM101.87 14.7429C97.9931 14.7429 94.8484 17.8539 94.8484 21.6887C94.8484 25.5235 97.9931 28.6344 101.87 28.6344C105.746 28.6344 108.891 25.5235 108.891 21.6887C108.891 17.8539 105.746 14.7429 101.87 14.7429ZM37.2148 19.1293V22.2919H41.5399C41.3134 23.1967 40.8691 24.0068 40.2289 24.6531C39.2619 25.6312 37.9247 26.1655 36.4612 26.1655C33.421 26.1655 30.947 23.7181 30.947 20.7063C30.947 17.6987 33.421 15.247 36.4612 15.247C38.0902 15.247 39.5886 15.9364 40.6252 17.1257L43.0992 15.1221C41.4571 13.2176 39.0224 12.0801 36.4612 12.0801C31.657 12.0801 27.75 15.9494 27.75 20.702C27.75 25.4546 31.657 29.3238 36.4612 29.3238C38.7959 29.3238 40.9432 28.4922 42.5156 26.9023C43.8353 25.5666 44.7108 23.7052 44.8763 21.8438C44.9591 20.9346 44.9678 20.0298 44.9155 19.1206L37.2148 19.1293ZM52.9647 25.7906C50.678 25.7906 48.8181 23.9551 48.8181 21.6887C48.8181 19.4223 50.6736 17.5867 52.9647 17.5867C55.2558 17.5867 57.1112 19.4223 57.1112 21.6887C57.1112 23.9551 55.2558 25.7906 52.9647 25.7906ZM57.1112 16.0959C55.9483 15.2513 54.5153 14.7558 52.9647 14.7558C49.0882 14.7558 45.9478 17.8668 45.9478 21.7016C45.9478 25.5364 49.0926 28.6474 52.9647 28.6474C54.5153 28.6474 55.9483 28.1475 57.1112 27.3073V28.2682H59.986V15.135H57.1112V16.0959ZM66.1535 12.0887H63.2788V15.1479H61.5583V17.8323H63.2788V24.8556C63.2788 25.5795 63.3703 26.1914 63.5532 26.6696C63.7318 27.1436 64.0106 27.5142 64.3372 27.8028C64.6683 28.0958 65.0559 28.3242 65.5176 28.4578C65.988 28.587 66.502 28.6387 67.0508 28.6387C67.617 28.6387 68.1223 28.5827 68.5491 28.4664C68.9498 28.3587 69.3331 28.2079 69.6859 28.0183V25.8553C69.1197 26.0966 68.5883 26.187 67.9829 26.2129C67.3426 26.2431 66.968 26.0621 66.6544 25.7648C66.3234 25.4546 66.1492 25.0495 66.1492 24.373V17.8323H69.6859V15.1479H66.1492V12.0887H66.1535Z" fill="white"/>
<path fill-rule="evenodd" clip-rule="evenodd" d="M12.4658 26.9321C8.68076 26.9321 5.61004 23.8944 5.61004 20.15C5.61004 16.4057 8.68076 13.368 12.4658 13.368V7.81396C5.57955 7.81396 0 13.3378 0 20.15C0 26.9622 5.57955 32.4818 12.4658 32.4818C19.3477 32.4818 24.9316 26.9579 24.9316 20.15H19.3215C19.3215 23.8987 16.2508 26.9321 12.4658 26.9321Z" fill="white"/>
<path fill-rule="evenodd" clip-rule="evenodd" d="M12.4648 20.1502H19.3206V13.3682H12.4648V20.1502Z" fill="white"/>
</svg>
