<svg width="140" height="40" viewBox="0 0 140 40" fill="none" xmlns="http://www.w3.org/2000/svg">
<g clip-path="url(#clip0_3035_8187)">
<mask id="mask0_3035_8187" style="mask-type:luminance" maskUnits="userSpaceOnUse" x="0" y="2" width="89" height="36">
<path d="M89 2.85791H0V37.8579H89V2.85791Z" fill="white"/>
</mask>
<g mask="url(#mask0_3035_8187)">
<path d="M14.7624 13.6574C14.8645 8.51779 12.0029 4.03916 10.5125 2.96278C10.5057 2.95585 10.373 2.88318 10.3831 3.08392C10.3831 3.08737 10.3797 3.08737 10.3797 3.09084C10.2267 12.7992 5.31997 15.4157 2.65573 18.9736C-3.26489 26.8855 1.67572 35.9121 8.07609 37.6218C8.18509 37.6495 8.48108 37.7395 9.04254 37.8571C9.33514 37.9195 9.42024 37.6668 9.20579 37.2895C8.44022 35.9362 7.07912 33.6519 6.81042 30.7169C6.19793 23.9021 14.6433 19.6381 14.7624 13.6574Z" fill="white"/>
<path d="M17.9867 16.9488C17.9357 16.9107 17.8643 16.9142 17.8575 16.9798C17.7214 18.2155 16.4657 20.7767 14.812 23.1717C9.24521 31.2464 12.0491 34.9081 14.2268 37.4486C14.6283 37.9193 14.829 37.8155 15.04 37.4798C15.2374 37.1614 15.5367 36.7564 16.8231 36.1369C17.0238 36.04 21.8829 33.4166 22.4103 27.4428C22.9173 21.6628 19.2729 18.0078 17.9867 16.9488Z" fill="#C2C2C2"/>
<path d="M46.8941 15.4778V36.7252H42.4128V28.1419H33.8006V36.7252H29.207V15.4778H33.8006V24.0612H42.4128V15.4778H46.8941Z" fill="white"/>
<path d="M67.6138 15.478V19.6798H65.4804H61.1794V36.722H56.5688V19.6798H52.3835H50.25V15.478H67.6138Z" fill="white"/>
<path fill-rule="evenodd" clip-rule="evenodd" d="M83.9328 36.7463L78.6653 29.3534L73.4389 36.7151L68.3281 36.722L76.076 25.8751L68.7636 15.478H73.871L89.0197 36.7463H83.9328Z" fill="white"/>
<path d="M80.0977 20.2336L82.6259 23.8055L88.6147 15.4746H83.5344L80.0977 20.2336Z" fill="#C2C2C2"/>
</g>
</g>
<defs>
<clipPath id="clip0_3035_8187">
<rect width="89" height="35" fill="white" transform="translate(0 2.85791)"/>
</clipPath>
</defs>
</svg>
