<svg width="140" height="40" viewBox="0 0 140 40" fill="none" xmlns="http://www.w3.org/2000/svg">
<path d="M83.5242 20.1708C83.5242 19.542 83.5242 18.9505 83.5039 18.4043C83.4901 17.889 83.4394 17.3754 83.352 16.8674C83.2703 16.4036 83.1261 15.9531 82.9233 15.5284C82.7092 15.0905 82.4231 14.6921 82.077 14.35C81.5862 13.8446 81.0022 13.4401 80.3576 13.1591C79.6602 12.8752 78.9133 12.7345 78.161 12.7452C77.4058 12.7354 76.6561 12.8761 75.9554 13.1591C75.307 13.4363 74.7193 13.839 74.2258 14.3443C73.8804 14.6863 73.5953 15.0847 73.3829 15.5227C73.1818 15.9475 73.0398 16.3981 72.9609 16.8617C72.8755 17.3699 72.8266 17.8835 72.8146 18.3987C72.8011 18.9449 72.7944 19.5364 72.7977 20.1652C72.8011 20.7939 72.7977 21.3809 72.8146 21.9305C72.8266 22.4457 72.8755 22.9593 72.9609 23.4674C73.0398 23.9311 73.1818 24.3817 73.3829 24.8064C73.5962 25.2439 73.8811 25.6423 74.2258 25.9849C74.7185 26.4906 75.3064 26.8927 75.9554 27.1678C76.6557 27.4527 77.4055 27.5942 78.161 27.584C78.9136 27.5951 79.6607 27.4536 80.3576 27.1678C81.0023 26.8905 81.5866 26.4886 82.077 25.9849C82.4223 25.6421 82.7083 25.2438 82.9233 24.8064C83.1261 24.3818 83.2703 23.9313 83.352 23.4674C83.4384 22.9609 83.4884 22.4488 83.5017 21.935C83.5186 21.3854 83.5264 20.7973 83.5219 20.1697L83.5242 20.1708ZM80.6884 20.1708C80.6884 20.8675 80.6783 21.4476 80.6546 21.909C80.6414 22.288 80.6038 22.6658 80.5421 23.0399C80.4999 23.2892 80.4242 23.5316 80.317 23.7603C80.2301 23.9447 80.1163 24.1151 79.9795 24.2659C79.7682 24.5089 79.5062 24.702 79.212 24.8313C78.881 24.9737 78.5244 25.046 78.1643 25.044C77.8025 25.0455 77.4442 24.9732 77.111 24.8313C76.8097 24.7044 76.5405 24.5112 76.3233 24.2659C76.1856 24.1158 76.0718 23.9453 75.9857 23.7603C75.8816 23.5313 75.8096 23.2889 75.7719 23.0399C75.7118 22.6656 75.6743 22.2879 75.6594 21.909C75.6391 21.4476 75.629 20.8682 75.629 20.1708C75.629 19.4742 75.6391 18.8929 75.6594 18.4315C75.6743 18.0526 75.7119 17.6749 75.7719 17.3005C75.8096 17.0516 75.8816 16.8091 75.9857 16.5801C76.072 16.3954 76.1859 16.2249 76.3233 16.0746C76.5408 15.8297 76.8099 15.6365 77.111 15.5092C77.4437 15.3657 77.8024 15.2933 78.1643 15.2966C78.5245 15.2928 78.8815 15.3652 79.212 15.5092C79.5059 15.6389 79.7679 15.8319 79.9795 16.0746C80.116 16.2256 80.2298 16.3959 80.317 16.5801C80.4242 16.8089 80.4999 17.0513 80.5421 17.3005C80.6037 17.6747 80.6413 18.0524 80.6546 18.4315C80.6794 18.8917 80.6884 19.473 80.6884 20.1708Z" fill="white"/>
<path d="M106.121 13.1225C106.12 12.985 106.009 12.8738 105.872 12.8726H103.533C103.396 12.8732 103.285 12.9847 103.284 13.1225V21.8079L97.5786 12.9427C97.5404 12.8827 97.5066 12.8726 97.4222 12.8726H95.2526C95.116 12.8744 95.0057 12.9852 95.0039 13.1225V27.216C95.0057 27.3531 95.1162 27.4636 95.2526 27.4648H97.591C97.7275 27.4642 97.8379 27.3532 97.8386 27.216V18.5079L103.545 27.3936C103.584 27.4535 103.616 27.4637 103.701 27.4637H105.87C106.007 27.4631 106.117 27.3522 106.119 27.2149L106.121 13.1225Z" fill="white"/>
<path d="M90.444 13.1225C90.4434 12.9847 90.3324 12.8732 90.1953 12.8726H87.8581C87.721 12.8732 87.61 12.9847 87.6094 13.1225V27.2149C87.61 27.3526 87.721 27.4642 87.8581 27.4648H90.1953C90.3324 27.4642 90.4434 27.3526 90.444 27.2149V13.1225Z" fill="white"/>
<path d="M62.4625 20.1713C62.4625 19.4701 62.4704 18.8866 62.4906 18.4218C62.5044 18.0428 62.542 17.6651 62.6031 17.2909C62.8192 16.0355 63.7757 15.2948 64.9967 15.2948C65.7934 15.3016 66.5158 15.5979 66.9772 16.2719C67.1862 16.5866 67.3385 16.9357 67.4273 17.3033C67.4342 17.342 67.4694 17.369 67.5084 17.3655H70.2597C70.2991 17.3655 70.3138 17.3384 70.307 17.2999C70.0065 15.5888 69.0984 14.0519 67.4937 13.2908C66.7051 12.9238 65.8443 12.7402 64.9753 12.7536C63.4261 12.7536 62.1211 13.2867 61.0603 14.3527C60.4547 14.9459 60.0413 15.709 59.8743 16.5422C59.7122 17.3625 59.6304 18.5718 59.6289 20.1702C59.6274 21.7685 59.7092 22.9775 59.8743 23.797C60.0399 24.6313 60.4521 25.3959 61.057 25.991C62.117 27.0563 63.422 27.589 64.9719 27.589C65.8408 27.6022 66.7014 27.419 67.4904 27.0529C69.095 26.2918 70.0032 24.7549 70.3036 23.0438C70.3104 23.0043 70.2958 22.9782 70.2564 22.9782H67.5039C67.4647 22.9741 67.4292 23.0014 67.4228 23.0404C67.3338 23.4076 67.1815 23.7563 66.9727 24.0707C66.5113 24.7493 65.7889 25.0422 64.9922 25.0478C63.7712 25.0478 62.8147 24.3082 62.5986 23.0529C62.5375 22.6787 62.4999 22.3009 62.4861 21.922C62.4704 21.4549 62.4625 20.8702 62.4625 20.1713Z" fill="white"/>
<path d="M33.4011 13.1225C33.4004 12.9847 33.2895 12.8732 33.1524 12.8726H30.8151C30.678 12.8732 30.567 12.9847 30.5664 13.1225V27.216C30.5676 27.3533 30.6784 27.4642 30.8151 27.4649H33.1524C33.289 27.4642 33.3998 27.3533 33.4011 27.216V23.0791L35.2769 20.8252L39.13 27.3902C39.1597 27.4386 39.213 27.4671 39.2695 27.4649H42.1098C42.2404 27.4649 42.264 27.3834 42.1987 27.2714L37.154 18.6764L41.7824 13.0965C41.8758 12.9834 41.8364 12.876 41.6901 12.876H38.5854C38.5476 12.8737 38.5112 12.8907 38.4886 12.9212L33.4011 19.053V13.1225Z" fill="white"/>
<path d="M50.4289 25.0469C49.1134 25.0469 47.9206 23.8232 47.9206 22.3621V13.1225C47.92 12.9847 47.809 12.8732 47.6719 12.8726H45.3346C45.1975 12.8732 45.0866 12.9847 45.0859 13.1225V22.3259C45.0859 25.5434 47.4806 27.5881 50.4289 27.5881C53.3772 27.5881 55.7719 25.5434 55.7719 22.3259V13.1225C55.7707 12.985 55.66 12.8738 55.5232 12.8726H53.1848C53.0481 12.8738 52.9378 12.9852 52.9372 13.1225V22.3621C52.9372 23.8221 51.7433 25.0469 50.4289 25.0469Z" fill="white"/>
<path fill-rule="evenodd" clip-rule="evenodd" d="M7.07144 20.1708L14.3274 27.4641L18.9074 22.8613C19.7264 22.1202 20.9793 22.1532 21.7586 22.9363C22.5379 23.7195 22.5707 24.9786 21.8332 25.8017L15.7892 31.877C14.9774 32.6794 13.6753 32.6794 12.8634 31.877L4.14339 23.1112V28.3214C4.14339 29.4712 3.21586 30.4034 2.07169 30.4034C0.927529 30.4034 0 29.4712 0 28.3214V12.0135C0 10.8636 0.927529 9.9315 2.07169 9.9315C3.21586 9.9315 4.14339 10.8636 4.14339 12.0135V17.2237L12.8623 8.46017C13.6739 7.65716 14.9765 7.65716 15.7881 8.46017L21.8366 14.5343C22.574 15.3574 22.5412 16.6166 21.762 17.3997C20.9827 18.1828 19.7298 18.2158 18.9108 17.4747L14.3308 12.8719L7.07144 20.1708ZM14.3308 18.0866C13.4919 18.0861 12.7353 18.5936 12.4139 19.3724C12.0926 20.1512 12.2697 21.0479 12.8628 21.6442C13.4558 22.2406 14.348 22.4191 15.1231 22.0966C15.8982 21.774 16.4036 21.014 16.4036 20.1708C16.4039 19.618 16.1857 19.0878 15.797 18.6967C15.4083 18.3056 14.8809 18.0857 14.3308 18.0854V18.0866Z" fill="white"/>
</svg>
