<svg width="140" height="40" viewBox="0 0 140 40" fill="none" xmlns="http://www.w3.org/2000/svg">
<g opacity="0.4">
<path fill-rule="evenodd" clip-rule="evenodd" d="M0 15.8942V37.6668H61.0862V2.85791H23.5472V15.8942H0ZM12.2842 30.773H12.7619L15.219 20.8081H19.7237V32.8888H17.4031V22.9239H16.9253L14.5365 32.8888H10.5778L8.18899 22.9239H7.71122V32.8888H5.39062V20.8081H9.89531L12.2842 30.773ZM44.7042 32.8888H36.4456V20.8081H44.7042V22.9239H38.8345V25.7223H43.8852V27.7698H38.8345V30.773H44.7042V32.8888ZM24.2284 26.8143C24.2284 29.2714 25.4569 31.1142 28.1188 31.1142C30.7807 31.1142 32.0092 29.2032 32.0092 26.8143C32.0092 24.4255 30.7807 22.5826 28.1188 22.5826C25.4569 22.5826 24.2284 24.3572 24.2284 26.8143ZM21.7713 26.8143C21.7713 23.0604 24.0919 20.4668 28.1188 20.4668C32.1457 20.4668 34.4663 23.0604 34.4663 26.8143C34.4663 30.5682 32.1457 33.2301 28.1188 33.2301C24.0919 33.2301 21.7713 30.5682 21.7713 26.8143ZM48.8677 32.8888H46.3423L50.2327 26.473L46.5471 20.8081H49.1407L51.8025 25.108L54.4644 20.8081H57.058L53.2358 26.5413L57.2628 32.8888H54.7374L51.666 28.1111L48.8677 32.8888Z" fill="white"/>
</g>
</svg>
