<svg width="140" height="40" viewBox="0 0 140 40" fill="none" xmlns="http://www.w3.org/2000/svg">
<path d="M24.3665 7.81396H0.553713C0.406857 7.81396 0.266009 7.87072 0.162208 7.97188C0.0582965 8.07294 0 8.21006 0 8.35314V31.536C0 31.679 0.0582965 31.8161 0.162208 31.9171C0.266009 32.0183 0.406857 32.075 0.553713 32.075H24.3665C24.5135 32.075 24.6543 32.0183 24.7581 31.9171C24.8621 31.8161 24.9203 31.679 24.9203 31.536V8.35314C24.9203 8.21006 24.8621 8.07294 24.7581 7.97188C24.6543 7.87072 24.5135 7.81396 24.3665 7.81396ZM16.6135 23.4489C16.6135 23.5919 16.5552 23.729 16.4513 23.8302C16.3475 23.9312 16.2067 23.9881 16.0598 23.9881H8.86053C8.71368 23.9881 8.57283 23.9312 8.46892 23.8302C8.36512 23.729 8.30682 23.5919 8.30682 23.4489V16.4401C8.30682 16.2971 8.36512 16.16 8.46892 16.0589C8.57283 15.9578 8.71368 15.901 8.86053 15.901H16.0598C16.2067 15.901 16.3475 15.9578 16.4513 16.0589C16.5552 16.16 16.6135 16.2971 16.6135 16.4401V23.4489Z" fill="white"/>
<path d="M74.2178 15.8999H67.0187C66.7128 15.8999 66.4648 16.1412 66.4648 16.439V23.4478C66.4648 23.7455 66.7128 23.987 67.0187 23.987H74.2178C74.5237 23.987 74.7717 23.7455 74.7717 23.4478V16.439C74.7717 16.1412 74.5237 15.8999 74.2178 15.8999Z" fill="white"/>
<path d="M65.9132 7.81396H58.714C58.4081 7.81396 58.1602 8.05528 58.1602 8.35314V15.3619C58.1602 15.6596 58.4081 15.901 58.714 15.901H65.9132C66.2191 15.901 66.467 15.6596 66.467 15.3619V8.35314C66.467 8.05528 66.2191 7.81396 65.9132 7.81396Z" fill="white"/>
<path d="M82.5226 7.81396H75.3234C75.0175 7.81396 74.7695 8.05528 74.7695 8.35314V15.3619C74.7695 15.6596 75.0175 15.901 75.3234 15.901H82.5226C82.8285 15.901 83.0764 15.6596 83.0764 15.3619V8.35314C83.0764 8.05528 82.8285 7.81396 82.5226 7.81396Z" fill="white"/>
<path d="M65.9132 23.9888H58.714C58.4081 23.9888 58.1602 24.2301 58.1602 24.5278V31.5367C58.1602 31.8344 58.4081 32.0758 58.714 32.0758H65.9132C66.2191 32.0758 66.467 31.8344 66.467 31.5367V24.5278C66.467 24.2301 66.2191 23.9888 65.9132 23.9888Z" fill="white"/>
<path d="M82.5226 23.9888H75.3234C75.0175 23.9888 74.7695 24.2301 74.7695 24.5278V31.5367C74.7695 31.8344 75.0175 32.0758 75.3234 32.0758H82.5226C82.8285 32.0758 83.0764 31.8344 83.0764 31.5367V24.5278C83.0764 24.2301 82.8285 23.9888 82.5226 23.9888Z" fill="white"/>
<path d="M53.4405 7.81396H46.2413C45.9355 7.81396 45.6875 8.05528 45.6875 8.35314V15.3619C45.6875 15.6596 45.9355 15.901 46.2413 15.901H53.4405C53.7463 15.901 53.9943 15.6596 53.9943 15.3619V8.35314C53.9943 8.05528 53.7463 7.81396 53.4405 7.81396Z" fill="white"/>
<path d="M53.4405 23.9888H46.2413C45.9355 23.9888 45.6875 24.2301 45.6875 24.5278V31.5367C45.6875 31.8344 45.9355 32.0758 46.2413 32.0758H53.4405C53.7463 32.0758 53.9943 31.8344 53.9943 31.5367V24.5278C53.9943 24.2301 53.7463 23.9888 53.4405 23.9888Z" fill="white"/>
<path d="M45.6879 16.434C45.6879 16.2911 45.6294 16.1539 45.5256 16.0529C45.4217 15.9517 45.2809 15.895 45.134 15.895H37.381V8.35314C37.381 8.21006 37.3226 8.07294 37.2188 7.97188C37.1149 7.87072 36.9741 7.81396 36.8272 7.81396H29.628C29.4811 7.81396 29.3402 7.87072 29.2364 7.97188C29.1325 8.07294 29.0742 8.21006 29.0742 8.35314V31.5239C29.0742 31.6668 29.1325 31.8039 29.2364 31.905C29.3402 32.0062 29.4811 32.0629 29.628 32.0629H36.8272C36.9741 32.0629 37.1149 32.0062 37.2188 31.905C37.3226 31.8039 37.381 31.6668 37.381 31.5239V23.982H45.134C45.2809 23.982 45.4217 23.9252 45.5256 23.8241C45.6294 23.7229 45.6879 23.5858 45.6879 23.4429V16.434Z" fill="white"/>
</svg>
