<svg width="140" height="40" viewBox="0 0 140 40" fill="none" xmlns="http://www.w3.org/2000/svg">
<path d="M100.931 20.967C100.991 20.6146 101.032 20.2533 101.032 19.8831C101.032 16.288 98.0496 13.3709 94.3706 13.3709C90.6915 13.3709 87.7089 16.288 87.7089 19.8831C87.7089 23.4827 90.6915 26.3953 94.3706 26.3953C96.753 26.3953 98.9568 25.1509 100.139 23.1392L97.5731 21.694C96.9134 22.8136 95.6947 23.5005 94.3706 23.5005C92.7487 23.4961 91.3192 22.4702 90.8381 20.9625L100.931 20.967ZM94.366 16.2657C95.9833 16.2701 97.4128 17.2916 97.8939 18.7948H90.8335C91.3238 17.2916 92.7487 16.2701 94.366 16.2657ZM65.4008 20.967C65.4604 20.6146 65.497 20.2533 65.497 19.8831C65.497 16.288 62.5144 13.3709 58.8353 13.3709C55.1563 13.3709 52.1736 16.288 52.1736 19.8831C52.1736 23.4827 55.1563 26.3953 58.8353 26.3953C61.2178 26.3953 63.417 25.1509 64.6036 23.1392L62.0379 21.694C61.3782 22.8136 60.1594 23.5005 58.8353 23.5005C57.2134 23.5005 55.784 22.4702 55.3029 20.9625L65.4008 20.967ZM58.8399 16.2657C60.4572 16.2701 61.8867 17.2916 62.3678 18.7948H55.3075C55.7931 17.2916 57.2226 16.2701 58.8399 16.2657ZM44.4032 13.3664C43.5006 13.3664 42.6117 13.5805 41.8099 13.9953V10.1147H38.8502V26.3953H41.8099V18.7948C41.8054 17.3986 42.9645 16.2657 44.3986 16.2612C45.8326 16.2657 46.9918 17.3986 46.9872 18.7948V26.3909H49.9469V18.7948C49.9561 15.7973 47.4683 13.3664 44.4032 13.3664ZM114.539 26.3909L109.728 19.8786L114.406 13.5448H110.892L107.969 17.4968L105.05 13.5448H101.536L106.214 19.8786L101.403 26.3909H104.918L107.973 22.2561L111.029 26.3909H114.539ZM29.9664 13.3664C28.6469 13.3664 27.3594 13.75 26.2644 14.4637V14.4503H23.3047V29.647H26.2644V25.2936C27.3594 26.0117 28.6469 26.3953 29.9664 26.3909C33.6455 26.3909 36.6281 23.4738 36.6281 19.8786C36.6327 16.2791 33.65 13.3664 29.9664 13.3664ZM29.9664 23.4961C27.9184 23.4916 26.2598 21.8725 26.2644 19.8786C26.2598 17.8848 27.9138 16.2657 29.9618 16.2612C32.0098 16.2657 33.6684 17.8848 33.6638 19.8786C33.6729 21.8725 32.019 23.4916 29.9664 23.4961ZM85.4959 18.4245C85.4959 15.6278 83.173 13.3575 80.3141 13.3575C78.9121 13.3575 77.5697 13.9106 76.5984 14.8963C74.9261 13.2192 72.287 12.8891 70.2345 14.0979H67.7146V18.4067V18.4379V26.3998H70.6743V18.4379C70.6743 17.2425 71.6685 16.2701 72.8964 16.2657C74.1243 16.2701 75.1185 17.2425 75.1185 18.4379H75.1277V26.3998H78.0874V18.4379H78.0966V18.4245C78.0966 17.2291 79.0862 16.2568 80.3187 16.2523C81.5465 16.2568 82.5408 17.2291 82.5408 18.4245V18.4379H82.5453V26.3998H85.5051L85.4959 18.4245Z" fill="white"/>
<path d="M0 26.3897C0 29.9848 2.98265 32.9019 6.66171 32.9019V19.8774C6.66171 23.4726 3.67906 26.3897 0 26.3897Z" fill="white"/>
<path d="M9.99189 19.878C9.99189 23.4731 12.9745 26.3902 16.6536 26.3902V13.3657C16.6536 16.9653 13.671 19.878 9.99189 19.878ZM0.00390625 13.3657V26.3902C3.68297 26.3902 6.66562 23.4731 6.66562 19.878C6.66562 16.2828 3.68297 13.3657 0.00390625 13.3657Z" fill="white"/>
<path d="M9.98828 6.85791V19.8779C13.6673 19.8779 16.65 16.9653 16.65 13.3657C16.65 9.76612 13.6673 6.85791 9.98828 6.85791Z" fill="white"/>
</svg>
