<svg width="140" height="40" viewBox="0 0 140 40" fill="none" xmlns="http://www.w3.org/2000/svg">
<path d="M21.9159 22.1933C21.9159 16.1404 17.0108 11.2354 10.958 11.2354C4.9051 11.2354 0 16.1427 0 22.1933C0 28.2439 4.9051 33.1513 10.958 33.1513C11.5702 33.1513 12.169 33.0993 12.7542 33.0021C12.7858 33.0451 12.8219 33.0857 12.8694 33.1196L17.309 36.2172C17.6389 36.4477 18.0908 36.2082 18.0863 35.8038L18.0094 30.5778C20.3976 28.567 21.9159 25.5575 21.9159 22.1933ZM5.23948 22.1933C5.23948 19.0347 7.79935 16.4748 10.958 16.4748C14.1166 16.4748 16.6764 19.0347 16.6764 22.1933C16.6764 25.3519 14.1166 27.9118 10.958 27.9118C7.79935 27.9118 5.23948 25.3519 5.23948 22.1933Z" fill="#8D8D93"/>
<path d="M39.2794 12.1865H34.9549C34.6748 12.1865 34.4466 12.4147 34.4466 12.6949V22.4531C34.4466 22.4531 34.5618 27.1119 30.5537 27.1119C26.5456 27.1119 26.7715 22.4531 26.7715 22.4531V12.6949C26.7715 12.4147 26.5433 12.1865 26.2631 12.1865H21.9387C21.6585 12.1865 21.4326 12.4125 21.4303 12.6904C21.4213 13.6235 21.419 16.1653 21.4891 22.7536C21.5185 25.5778 21.8393 27.7129 23.2424 29.6153C25.0905 32.1232 28.8433 32.7513 30.6102 32.7219C32.377 32.7513 35.7886 32.0441 37.978 29.6153C39.4692 27.9615 39.7019 25.5756 39.7312 22.7536C39.8013 16.1653 39.7968 13.6235 39.79 12.6904C39.7877 12.4102 39.5595 12.1865 39.2816 12.1865H39.2794Z" fill="white"/>
<path d="M45.0727 10.5039C46.7698 10.5039 48.1455 9.12817 48.1455 7.43114C48.1455 5.73411 46.7698 4.3584 45.0727 4.3584C43.3757 4.3584 42 5.73411 42 7.43114C42 9.12817 43.3757 10.5039 45.0727 10.5039Z" fill="white"/>
<path d="M47.2484 12.1372H43.1634C42.7841 12.1372 42.4766 12.4447 42.4766 12.8241V31.7373C42.4766 32.1166 42.7841 32.4241 43.1634 32.4241H47.2484C47.6277 32.4241 47.9352 32.1166 47.9352 31.7373V12.8241C47.9352 12.4447 47.6277 12.1372 47.2484 12.1372Z" fill="white"/>
<path d="M68.2658 31.0797L61.1714 21.6468L67.649 13.3165C68.024 12.8172 67.6761 12.1033 67.0525 12.0942L62.2513 12.0129L55.8844 20.1444V2.85791L50.4258 6.83214V31.6378C50.4258 32.0174 50.7331 32.3246 51.1126 32.3246H55.1976C55.5771 32.3246 55.8844 32.0174 55.8844 31.6378V23.1538L55.9974 23.251L62.8478 32.2975L67.649 32.293C68.2726 32.293 68.6341 31.5836 68.2658 31.0797Z" fill="white"/>
</svg>
