<?xml version="1.0" standalone="no"?>
<svg id="Frame290107" width="138" height="139" viewBox="0 0 138 139" fill="none" xmlns="http://www.w3.org/2000/svg" style="max-width: 100%; max-height: 100%;">
<path d="M70.6934 1.5166H128.669V67.791V137.517H10V69.0669V67.791V1.5166H70.6934Z" stroke="white" stroke-width="2" stroke-dasharray="0,0,0,509.3388366699219"><animate attributeType="XML" attributeName="stroke-dasharray" repeatCount="1" dur="2.5s" values="0,0,0,509.3388366699219; 
          0,254.66941833496094,254.66941833496094,0; 
          509.3388366699219,0,0,0" keyTimes="0; 0.5; 1" fill="freeze"></animate></path>
<path d="M68 2V138.5" stroke="white" stroke-width="2" stroke-dasharray="0,0,0,136.5"><animate attributeType="XML" attributeName="stroke-dasharray" repeatCount="1" dur="2.5s" values="0,0,0,136.5; 
          0,68.25,68.25,0; 
          136.5,0,0,0" keyTimes="0; 0.5; 1" fill="freeze"></animate></path>
<path d="M11 70.9995L128.5 70.9995" stroke="white" stroke-width="2" stroke-dasharray="0,0,0,117.5"><animate attributeType="XML" attributeName="stroke-dasharray" repeatCount="1" dur="2.5s" values="0,0,0,117.5; 
          0,58.75,58.75,0; 
          117.5,0,0,0" keyTimes="0; 0.5; 1" fill="freeze"></animate></path>
<path d="M40.6526 117.682C38.8646 117.732 37.0908 117.313 35.4944 116.464C34.0753 115.656 32.9188 114.424 32.1667 112.926C31.3579 111.278 30.9605 109.443 31.0031 107.59V99.5581C30.9605 97.7151 31.365 95.8906 32.1667 94.2514C32.933 92.7702 34.0824 91.5518 35.4944 90.7425C37.0766 89.8602 38.8575 89.4208 40.6526 89.4666C42.4265 89.4238 44.1861 89.8639 45.7471 90.7425C47.1519 91.5562 48.2942 92.7746 49.0463 94.2514C49.8552 95.8906 50.2525 97.7151 50.2099 99.5581V104.314H34.0824V107.59C33.9618 109.531 34.572 111.444 35.7711 112.926C36.4026 113.598 37.1689 114.119 38.0061 114.454C38.8505 114.79 39.7515 114.931 40.6526 114.869C42.1284 114.942 43.5901 114.537 44.8318 113.709C45.9315 112.921 46.712 111.747 47.0526 110.404H50.1532C49.9971 111.465 49.6353 112.481 49.096 113.397C48.5639 114.313 47.8543 115.109 47.0242 115.739C45.1581 117.095 42.9231 117.776 40.6526 117.682ZM47.1377 102.081V99.5581C47.2371 97.6155 46.6482 95.7023 45.4703 94.1938C44.8531 93.5248 44.0939 93.0049 43.2637 92.6697C42.4336 92.3345 41.5395 92.1913 40.6526 92.2511C39.7515 92.1905 38.8576 92.3301 38.0132 92.6601C37.176 92.9894 36.4097 93.5026 35.7711 94.1642C34.572 95.672 33.9689 97.6007 34.0824 99.5581V101.704H47.5776L47.1377 102.081Z" fill="#D6D6D6" stroke-dasharray="0,0,0,156.3494415283203"><animate attributeType="XML" attributeName="stroke-dasharray" repeatCount="1" dur="2.5s" values="0,0,0,156.3494415283203; 
          0,78.17472076416016,78.17472076416016,0; 
          156.3494415283203,0,0,0" keyTimes="0; 0.5; 1" fill="freeze"></animate></path>
<path d="M111.186 92.0335L109.164 90.1484L99.0462 102.154L88.9284 90.1484L86.9062 92.0335L97.244 104.271L86.9062 116.537L88.9284 118.421L99.0462 106.417L109.164 118.421L111.186 116.537L100.848 104.271L111.186 92.0335Z" fill="#D6D6D6" stroke-dasharray="0,0,0,137.9779815673828"><animate attributeType="XML" attributeName="stroke-dasharray" repeatCount="1" dur="2.5s" values="0,0,0,137.9779815673828; 
          0,68.9889907836914,68.9889907836914,0; 
          137.9779815673828,0,0,0" keyTimes="0; 0.5; 1" fill="freeze"></animate></path>
<path d="M42.478 47.0057V24.7648V21.5166H39.3704H33.9141V24.7648H39.3704V47.0057H33.9141V50.2539H47.9343V47.0057H42.478Z" fill="#D6D6D6" stroke-dasharray="0,0,0,96.42759704589844"><animate attributeType="XML" attributeName="stroke-dasharray" repeatCount="1" dur="2.5s" values="0,0,0,96.42759704589844; 
          0,48.21379852294922,48.21379852294922,0; 
          96.42759704589844,0,0,0" keyTimes="0; 0.5; 1" fill="freeze"></animate></path>
</svg>