<svg width="139" height="139" viewBox="0 0 139 139" fill="none" xmlns="http://www.w3.org/2000/svg">
<path d="M58.964 66.3895L83.5658 66.349L30.3491 135.767L31.9363 136.984L87.6242 64.3423L63.0224 64.3828L109.242 4.09166L107.655 2.87485L58.964 66.3895Z" fill="white"/>
<path fill-rule="evenodd" clip-rule="evenodd" d="M36.167 54.4833C47.4888 54.4833 56.667 45.3051 56.667 33.9833C56.667 22.6614 47.4888 13.4833 36.167 13.4833C24.8452 13.4833 15.667 22.6614 15.667 33.9833C15.667 45.3051 24.8452 54.4833 36.167 54.4833ZM36.167 52.4833C46.3843 52.4833 54.667 44.2005 54.667 33.9833C54.667 23.766 46.3843 15.4833 36.167 15.4833C25.9497 15.4833 17.667 23.766 17.667 33.9833C17.667 44.2005 25.9497 52.4833 36.167 52.4833Z" fill="white"/>
<path fill-rule="evenodd" clip-rule="evenodd" d="M103.167 125.483C114.489 125.483 123.667 116.305 123.667 104.983C123.667 93.6614 114.489 84.4833 103.167 84.4833C91.8452 84.4833 82.667 93.6614 82.667 104.983C82.667 116.305 91.8452 125.483 103.167 125.483ZM103.167 123.483C113.384 123.483 121.667 115.201 121.667 104.983C121.667 94.766 113.384 86.4833 103.167 86.4833C92.9497 86.4833 84.667 94.766 84.667 104.983C84.667 115.201 92.9497 123.483 103.167 123.483Z" fill="white"/>
</svg>
