<svg width="138" height="139" viewBox="0 0 138 139" fill="none" xmlns="http://www.w3.org/2000/svg">
<path d="M65.8184 1.48328L72.182 1.48328V22.4833H65.8184V1.48328Z" stroke="white" stroke-width="2"/>
<path d="M65.8184 137.302H72.182V116.302H65.8184V137.302Z" stroke="white" stroke-width="2"/>
<path d="M137 66.4833L137 72.4833L116 72.4833L116 66.4833L137 66.4833Z" stroke="white" stroke-width="2"/>
<path d="M1 66.4833L1 72.4833L22 72.4833L22 66.4833L1 66.4833Z" stroke="white" stroke-width="2"/>
<path d="M119.268 115.162L114.769 119.662L99.9194 104.813L104.419 100.313L119.268 115.162Z" stroke="white" stroke-width="2"/>
<path d="M23.2305 19.1237L18.7307 23.6235L33.5799 38.4727L38.0797 33.9729L23.2305 19.1237Z" stroke="white" stroke-width="2"/>
<path d="M114.77 19.1232L119.269 23.623L104.42 38.4722L99.9203 33.9724L114.77 19.1232Z" stroke="white" stroke-width="2"/>
<path d="M18.7306 115.162L23.2304 119.662L38.0796 104.813L33.5799 100.313L18.7306 115.162Z" stroke="white" stroke-width="2"/>
<path d="M41.335 90.4833V50.3333H64.71V55.2283H46.725V67.1633H62.785V71.9483H46.725V85.5883H64.71V90.4833H41.335ZM71.0135 90.4833L82.4535 70.0783L71.6185 50.3333H77.8335L83.7735 61.7733C84.1035 62.3966 84.4335 63.0749 84.7635 63.8083C85.1302 64.5049 85.4052 65.0366 85.5885 65.4033C85.7718 65.0366 86.0285 64.5049 86.3585 63.8083C86.6885 63.0749 87.0185 62.3966 87.3485 61.7733L93.3435 50.3333H99.3385L88.5035 69.8033L99.9435 90.4833H93.7835L87.1835 78.1633C86.8535 77.5033 86.5235 76.8249 86.1935 76.1283C85.8635 75.3949 85.6069 74.8266 85.4235 74.4233C85.2402 74.8266 84.9835 75.3766 84.6535 76.0733C84.3235 76.7699 83.9752 77.4483 83.6085 78.1083L77.0085 90.4833H71.0135Z" fill="white"/>
</svg>
