<svg width="139" height="139" viewBox="0 0 139 139" fill="none" xmlns="http://www.w3.org/2000/svg">
<path fill-rule="evenodd" clip-rule="evenodd" d="M47.833 58C53.9081 58 58.833 62.9249 58.833 69C58.833 75.0751 53.9081 80 47.833 80C41.7579 80 36.833 75.0751 36.833 69C36.833 62.9249 41.7579 58 47.833 58ZM47.833 60C52.8036 60 56.833 64.0294 56.833 69C56.833 73.9706 52.8036 78 47.833 78C42.8624 78 38.833 73.9706 38.833 69C38.833 64.0294 42.8624 60 47.833 60Z" fill="white"/>
<path fill-rule="evenodd" clip-rule="evenodd" d="M127.333 64V74H86.5155C84.0612 93.1777 67.678 108 47.833 108C26.2939 108 8.83301 90.5391 8.83301 69C8.83301 47.4609 26.2939 30 47.833 30C67.678 30 84.0612 44.8223 86.5155 64H127.333ZM84.7551 66L84.5317 64.2539C82.2035 46.0617 66.6588 32 47.833 32C27.3985 32 10.833 48.5655 10.833 69C10.833 89.4345 27.3985 106 47.833 106C66.6588 106 82.2035 91.9383 84.5317 73.7461L84.7551 72H125.333V66H84.7551Z" fill="white"/>
<path fill-rule="evenodd" clip-rule="evenodd" d="M111.333 85V77H127.333V85H111.333ZM113.333 83V79H125.333V83H113.333Z" fill="white"/>
<path fill-rule="evenodd" clip-rule="evenodd" d="M138.333 69.4833C138.333 107.591 107.441 138.483 69.333 138.483C31.2254 138.483 0.333008 107.591 0.333008 69.4833C0.333008 31.3756 31.2254 0.483276 69.333 0.483276C107.441 0.483276 138.333 31.3756 138.333 69.4833ZM136.333 69.4833C136.333 106.486 106.336 136.483 69.333 136.483C32.3299 136.483 2.33301 106.486 2.33301 69.4833C2.33301 32.4802 32.3299 2.48328 69.333 2.48328C106.336 2.48328 136.333 32.4802 136.333 69.4833Z" fill="white"/>
</svg>
