<?xml version="1.0" standalone="no"?>
<svg id="#3" width="363" height="400" viewBox="0 0 363 400" fill="none" xmlns="http://www.w3.org/2000/svg" style="max-width: 100%; max-height: 100%;">
<rect width="362.667" height="400" transform="translate(0.332031)" fill="#191927" stroke-dasharray="0,0,1122.6458125000001,402.68817187499985"><animate attributeType="XML" attributeName="stroke-dasharray" repeatCount="indefinite" dur="0.5755846910005153s" values="0,0,1122.6458125000001,402.68817187499985; 
          0,402.68817187499985,1122.6458125000001,0; 
          1122.6458125000001,402.68817187499985,0,0" keyTimes="0; 0.2639999999999999; 1" begin="0.23713117754213187s"></animate></rect>
<path fill-rule="evenodd" clip-rule="evenodd" d="M154.289 47L177.578 88.0254L176.607 89.2773H176.605L109.326 176L109.289 175.951L109.252 176L41.973 89.2773H41.9713L41 88.0254L64.2891 47L154.289 47ZM153.058 49.1681L110.41 49.1681L108.167 49.1681L65.5198 49.1681L64.2891 51.1982L43.9076 87.1014L44.5862 89.2773L107.221 170.014L109.289 172.589L111.357 170.014L173.992 89.2773L174.671 87.1014L154.289 51.1982L153.058 49.1681Z" fill="white" stroke-dasharray="0,0,586.9991718750001,210.5540507812499"><animate attributeType="XML" attributeName="stroke-dasharray" repeatCount="indefinite" dur="0.6274557109936s" values="0,0,586.9991718750001,210.5540507812499; 
          0,210.5540507812499,586.9991718750001,0; 
          586.9991718750001,210.5540507812499,0,0" keyTimes="0; 0.2639999999999999; 1" begin="0.12987275340358878s"></animate></path>
<path d="M64 48.626L86.4 88.1932L109.001 172.748" stroke="white" stroke-width="2" stroke-dasharray="0,0,97.88144140625002,35.10964746093749"><animate attributeType="XML" attributeName="stroke-dasharray" repeatCount="indefinite" dur="0.5941308828988647s" values="0,0,97.88144140625002,35.10964746093749; 
          0,35.10964746093749,97.88144140625002,0; 
          97.88144140625002,35.10964746093749,0,0" keyTimes="0; 0.2639999999999999; 1" begin="0.23659648905377248s"></animate></path>
<path d="M154.5 48.626L132.1 88.1932L109.499 172.748" stroke="white" stroke-width="2" stroke-dasharray="0,0,97.88143017578126,35.109643432617176"><animate attributeType="XML" attributeName="stroke-dasharray" repeatCount="indefinite" dur="0.7011510583933762s" values="0,0,97.88143017578126,35.109643432617176; 
          0,35.109643432617176,97.88143017578126,0; 
          97.88143017578126,35.109643432617176,0,0" keyTimes="0; 0.2639999999999999; 1" begin="0.14649458514342356s"></animate></path>
<path d="M43.0039 88H176.004" stroke="white" stroke-width="2" stroke-dasharray="0,0,97.88806738281251,35.11202416992186"><animate attributeType="XML" attributeName="stroke-dasharray" repeatCount="indefinite" dur="0.6639435017926717s" values="0,0,97.88806738281251,35.11202416992186; 
          0,35.11202416992186,97.88806738281251,0; 
          97.88806738281251,35.11202416992186,0,0" keyTimes="0; 0.2639999999999999; 1" begin="0.2437333077576001s"></animate></path>
<path d="M87.3047 88.1932L109.505 48.626" stroke="white" stroke-width="2" stroke-dasharray="0,0,33.39215356445313,11.977620300292964"><animate attributeType="XML" attributeName="stroke-dasharray" repeatCount="indefinite" dur="0.6155121328609359s" values="0,0,33.39215356445313,11.977620300292964; 
          0,11.977620300292964,33.39215356445313,0; 
          33.39215356445313,11.977620300292964,0,0" keyTimes="0; 0.2639999999999999; 1" begin="0.20498045566864784s"></animate></path>
<path d="M131.203 88.1932L109.003 48.626" stroke="white" stroke-width="2" stroke-dasharray="0,0,33.39204968261719,11.977583038330074"><animate attributeType="XML" attributeName="stroke-dasharray" repeatCount="indefinite" dur="0.689875164166922s" values="0,0,33.39204968261719,11.977583038330074; 
          0,11.977583038330074,33.39204968261719,0; 
          33.39204968261719,11.977583038330074,0,0" keyTimes="0; 0.2639999999999999; 1" begin="0.3441272731311259s"></animate></path>
<path d="M54.136 279.248H45.064L43.496 283H41.2L49.208 264.212H50.02L58.028 283H55.704L54.136 279.248ZM49.6 268.188L45.904 277.288H53.296L49.6 268.188ZM68.4009 283.308C67.0943 283.308 65.8903 282.991 64.7889 282.356C63.7063 281.721 62.8476 280.863 62.2129 279.78C61.5783 278.679 61.2609 277.475 61.2609 276.168C61.2609 274.861 61.5783 273.667 62.2129 272.584C62.8476 271.501 63.7063 270.643 64.7889 270.008C65.8903 269.373 67.0943 269.056 68.4009 269.056C69.5956 269.056 70.6783 269.327 71.6489 269.868C72.6196 270.391 73.4129 271.109 74.0289 272.024L72.4889 273.256C71.3876 271.781 70.0343 271.044 68.4289 271.044C67.4956 271.044 66.6463 271.277 65.8809 271.744C65.1343 272.192 64.5463 272.808 64.1169 273.592C63.6876 274.376 63.4729 275.235 63.4729 276.168C63.4729 277.12 63.6876 277.988 64.1169 278.772C64.5463 279.556 65.1343 280.181 65.8809 280.648C66.6463 281.096 67.4956 281.32 68.4289 281.32C70.0343 281.32 71.3783 280.592 72.4609 279.136L74.0009 280.34C73.3849 281.255 72.5916 281.983 71.6209 282.524C70.6689 283.047 69.5956 283.308 68.4009 283.308ZM84.9494 283.308C83.6427 283.308 82.4387 282.991 81.3374 282.356C80.2547 281.721 79.396 280.863 78.7614 279.78C78.1267 278.679 77.8094 277.475 77.8094 276.168C77.8094 274.861 78.1267 273.667 78.7614 272.584C79.396 271.501 80.2547 270.643 81.3374 270.008C82.4387 269.373 83.6427 269.056 84.9494 269.056C86.144 269.056 87.2267 269.327 88.1974 269.868C89.168 270.391 89.9614 271.109 90.5774 272.024L89.0374 273.256C87.936 271.781 86.5827 271.044 84.9774 271.044C84.044 271.044 83.1947 271.277 82.4294 271.744C81.6827 272.192 81.0947 272.808 80.6654 273.592C80.236 274.376 80.0214 275.235 80.0214 276.168C80.0214 277.12 80.236 277.988 80.6654 278.772C81.0947 279.556 81.6827 280.181 82.4294 280.648C83.1947 281.096 84.044 281.32 84.9774 281.32C86.5827 281.32 87.9267 280.592 89.0094 279.136L90.5494 280.34C89.9334 281.255 89.14 281.983 88.1694 282.524C87.2174 283.047 86.144 283.308 84.9494 283.308ZM107.378 276.84H96.5978C96.7285 278.184 97.2605 279.267 98.1938 280.088C99.1271 280.909 100.266 281.32 101.61 281.32C103.159 281.32 104.55 280.704 105.782 279.472L107.042 280.928C106.332 281.675 105.511 282.263 104.578 282.692C103.663 283.103 102.664 283.308 101.582 283.308C100.238 283.308 99.0151 283 97.9138 282.384C96.8125 281.749 95.9445 280.891 95.3098 279.808C94.6751 278.725 94.3578 277.521 94.3578 276.196C94.3578 274.889 94.6658 273.695 95.2818 272.612C95.8978 271.511 96.7378 270.643 97.8018 270.008C98.8658 269.373 100.042 269.056 101.33 269.056C102.487 269.056 103.542 269.317 104.494 269.84C105.446 270.363 106.192 271.091 106.734 272.024C107.275 272.957 107.546 274.021 107.546 275.216C107.546 275.739 107.49 276.28 107.378 276.84ZM101.274 271.016C100.135 271.016 99.1458 271.38 98.3058 272.108C97.4658 272.817 96.9245 273.76 96.6818 274.936H105.334C105.315 273.723 104.914 272.771 104.13 272.08C103.364 271.371 102.412 271.016 101.274 271.016ZM116.766 283.308C115.627 283.308 114.601 283.065 113.686 282.58C112.79 282.076 112.043 281.432 111.446 280.648L112.818 279.22C113.471 279.892 114.097 280.415 114.694 280.788C115.291 281.143 115.973 281.32 116.738 281.32C117.485 281.32 118.101 281.152 118.586 280.816C119.09 280.461 119.342 279.985 119.342 279.388C119.342 278.847 119.155 278.436 118.782 278.156C118.409 277.857 117.802 277.54 116.962 277.204L115.646 276.644C114.507 276.177 113.658 275.664 113.098 275.104C112.538 274.525 112.258 273.779 112.258 272.864C112.258 271.669 112.697 270.736 113.574 270.064C114.451 269.392 115.543 269.056 116.85 269.056C117.802 269.056 118.661 269.252 119.426 269.644C120.191 270.017 120.854 270.54 121.414 271.212L120.098 272.556C119.631 272.089 119.109 271.725 118.53 271.464C117.97 271.184 117.373 271.044 116.738 271.044C116.066 271.044 115.515 271.193 115.086 271.492C114.675 271.791 114.47 272.211 114.47 272.752C114.47 273.181 114.629 273.536 114.946 273.816C115.282 274.077 115.861 274.385 116.682 274.74L117.942 275.272C119.211 275.813 120.126 276.392 120.686 277.008C121.265 277.605 121.554 278.371 121.554 279.304C121.554 280.573 121.087 281.563 120.154 282.272C119.239 282.963 118.11 283.308 116.766 283.308ZM130.881 283.308C129.742 283.308 128.715 283.065 127.801 282.58C126.905 282.076 126.158 281.432 125.561 280.648L126.933 279.22C127.586 279.892 128.211 280.415 128.809 280.788C129.406 281.143 130.087 281.32 130.853 281.32C131.599 281.32 132.215 281.152 132.701 280.816C133.205 280.461 133.457 279.985 133.457 279.388C133.457 278.847 133.27 278.436 132.897 278.156C132.523 277.857 131.917 277.54 131.077 277.204L129.761 276.644C128.622 276.177 127.773 275.664 127.213 275.104C126.653 274.525 126.373 273.779 126.373 272.864C126.373 271.669 126.811 270.736 127.689 270.064C128.566 269.392 129.658 269.056 130.965 269.056C131.917 269.056 132.775 269.252 133.541 269.644C134.306 270.017 134.969 270.54 135.529 271.212L134.213 272.556C133.746 272.089 133.223 271.725 132.645 271.464C132.085 271.184 131.487 271.044 130.853 271.044C130.181 271.044 129.63 271.193 129.201 271.492C128.79 271.791 128.585 272.211 128.585 272.752C128.585 273.181 128.743 273.536 129.061 273.816C129.397 274.077 129.975 274.385 130.797 274.74L132.057 275.272C133.326 275.813 134.241 276.392 134.801 277.008C135.379 277.605 135.669 278.371 135.669 279.304C135.669 280.573 135.202 281.563 134.269 282.272C133.354 282.963 132.225 283.308 130.881 283.308ZM157.659 281.18V283C156.801 283.205 156.045 283.308 155.391 283.308C153.973 283.308 152.853 282.944 152.031 282.216C151.21 281.488 150.799 280.377 150.799 278.884V271.296H148.503V269.364H150.799V265.64H152.955V269.364H157.211V271.296H152.955V278.744C152.955 279.715 153.198 280.396 153.683 280.788C154.187 281.161 154.906 281.348 155.839 281.348C156.362 281.348 156.969 281.292 157.659 281.18ZM168.134 283.28C166.827 283.28 165.633 282.963 164.55 282.328C163.467 281.693 162.609 280.835 161.974 279.752C161.339 278.651 161.022 277.456 161.022 276.168C161.022 274.861 161.339 273.667 161.974 272.584C162.609 271.483 163.467 270.624 164.55 270.008C165.651 269.373 166.855 269.056 168.162 269.056C169.469 269.056 170.663 269.373 171.746 270.008C172.847 270.643 173.715 271.501 174.35 272.584C174.985 273.667 175.302 274.861 175.302 276.168C175.302 277.456 174.985 278.651 174.35 279.752C173.715 280.835 172.847 281.693 171.746 282.328C170.645 282.963 169.441 283.28 168.134 283.28ZM168.134 281.292C169.049 281.292 169.879 281.068 170.626 280.62C171.391 280.172 171.989 279.565 172.418 278.8C172.866 278.016 173.09 277.148 173.09 276.196C173.09 275.225 172.875 274.348 172.446 273.564C172.017 272.78 171.419 272.164 170.654 271.716C169.907 271.268 169.077 271.044 168.162 271.044C167.229 271.044 166.389 271.268 165.642 271.716C164.895 272.164 164.307 272.78 163.878 273.564C163.449 274.348 163.234 275.225 163.234 276.196C163.234 277.148 163.449 278.016 163.878 278.8C164.307 279.565 164.895 280.172 165.642 280.62C166.389 281.068 167.219 281.292 168.134 281.292ZM196.907 269.056C198.195 269.056 199.353 269.373 200.379 270.008C201.406 270.624 202.209 271.473 202.787 272.556C203.366 273.639 203.655 274.843 203.655 276.168C203.655 277.493 203.357 278.707 202.759 279.808C202.181 280.891 201.378 281.749 200.351 282.384C199.325 283 198.177 283.308 196.907 283.308C195.899 283.308 194.947 283.112 194.051 282.72C193.174 282.309 192.455 281.749 191.895 281.04V288.04H189.739V269.364H191.755V271.548C192.278 270.764 192.997 270.157 193.911 269.728C194.845 269.28 195.843 269.056 196.907 269.056ZM196.599 281.32C197.514 281.32 198.335 281.105 199.063 280.676C199.81 280.228 200.389 279.612 200.799 278.828C201.229 278.044 201.443 277.167 201.443 276.196C201.443 275.225 201.229 274.348 200.799 273.564C200.389 272.78 199.81 272.164 199.063 271.716C198.335 271.268 197.514 271.044 196.599 271.044C195.778 271.044 195.003 271.231 194.275 271.604C193.566 271.977 192.987 272.547 192.539 273.312C192.091 274.077 191.867 275.029 191.867 276.168C191.867 277.307 192.082 278.268 192.511 279.052C192.959 279.817 193.538 280.387 194.247 280.76C194.975 281.133 195.759 281.32 196.599 281.32ZM216.083 269.364V271.268H215.271C214.505 271.268 213.796 271.427 213.143 271.744C212.489 272.061 211.967 272.519 211.575 273.116C211.183 273.713 210.987 274.432 210.987 275.272V283H208.831V269.364H210.847V271.296C211.332 270.643 211.948 270.139 212.695 269.784C213.46 269.429 214.253 269.252 215.075 269.252C215.373 269.252 215.709 269.289 216.083 269.364ZM232.142 276.84H221.362C221.493 278.184 222.025 279.267 222.958 280.088C223.891 280.909 225.03 281.32 226.374 281.32C227.923 281.32 229.314 280.704 230.546 279.472L231.806 280.928C231.097 281.675 230.275 282.263 229.342 282.692C228.427 283.103 227.429 283.308 226.346 283.308C225.002 283.308 223.779 283 222.678 282.384C221.577 281.749 220.709 280.891 220.074 279.808C219.439 278.725 219.122 277.521 219.122 276.196C219.122 274.889 219.43 273.695 220.046 272.612C220.662 271.511 221.502 270.643 222.566 270.008C223.63 269.373 224.806 269.056 226.094 269.056C227.251 269.056 228.306 269.317 229.258 269.84C230.21 270.363 230.957 271.091 231.498 272.024C232.039 272.957 232.31 274.021 232.31 275.216C232.31 275.739 232.254 276.28 232.142 276.84ZM226.038 271.016C224.899 271.016 223.91 271.38 223.07 272.108C222.23 272.817 221.689 273.76 221.446 274.936H230.098C230.079 273.723 229.678 272.771 228.894 272.08C228.129 271.371 227.177 271.016 226.038 271.016ZM252.45 269.056C254.018 269.056 255.231 269.551 256.09 270.54C256.967 271.511 257.406 272.808 257.406 274.432V283H255.25V274.712C255.25 273.611 254.961 272.724 254.382 272.052C253.822 271.38 253.038 271.044 252.03 271.044C251.003 271.044 250.163 271.38 249.51 272.052C248.857 272.724 248.53 273.545 248.53 274.516V283H246.374V274.712C246.374 273.611 246.075 272.724 245.478 272.052C244.899 271.38 244.115 271.044 243.126 271.044C242.099 271.044 241.259 271.389 240.606 272.08C239.971 272.752 239.654 273.629 239.654 274.712V283H237.498V269.364H239.514V270.792C239.999 270.232 240.587 269.803 241.278 269.504C241.969 269.205 242.734 269.056 243.574 269.056C244.563 269.056 245.413 269.261 246.122 269.672C246.831 270.083 247.382 270.661 247.774 271.408C248.278 270.699 248.931 270.129 249.734 269.7C250.537 269.271 251.442 269.056 252.45 269.056ZM263.371 269.364H265.527V283H263.371V269.364ZM264.463 265.724C264.015 265.724 263.632 265.575 263.315 265.276C262.997 264.977 262.839 264.604 262.839 264.156C262.839 263.727 262.997 263.363 263.315 263.064C263.632 262.747 264.015 262.588 264.463 262.588C264.892 262.588 265.265 262.747 265.583 263.064C265.9 263.363 266.059 263.727 266.059 264.156C266.059 264.604 265.9 264.977 265.583 265.276C265.284 265.575 264.911 265.724 264.463 265.724ZM277.149 283.308C276.085 283.308 275.124 283.075 274.265 282.608C273.407 282.123 272.725 281.451 272.221 280.592C271.736 279.715 271.493 278.707 271.493 277.568V269.364H273.621V277.708C273.621 278.809 273.957 279.687 274.629 280.34C275.301 280.993 276.141 281.32 277.149 281.32C278.139 281.32 278.96 280.993 279.613 280.34C280.285 279.668 280.621 278.791 280.621 277.708V269.364H282.777V277.568C282.777 278.707 282.525 279.715 282.021 280.592C281.536 281.451 280.864 282.123 280.005 282.608C279.147 283.075 278.195 283.308 277.149 283.308ZM303.681 269.056C305.249 269.056 306.463 269.551 307.321 270.54C308.199 271.511 308.637 272.808 308.637 274.432V283H306.481V274.712C306.481 273.611 306.192 272.724 305.613 272.052C305.053 271.38 304.269 271.044 303.261 271.044C302.235 271.044 301.395 271.38 300.741 272.052C300.088 272.724 299.761 273.545 299.761 274.516V283H297.605V274.712C297.605 273.611 297.307 272.724 296.709 272.052C296.131 271.38 295.347 271.044 294.357 271.044C293.331 271.044 292.491 271.389 291.837 272.08C291.203 272.752 290.885 273.629 290.885 274.712V283H288.729V269.364H290.745V270.792C291.231 270.232 291.819 269.803 292.509 269.504C293.2 269.205 293.965 269.056 294.805 269.056C295.795 269.056 296.644 269.261 297.353 269.672C298.063 270.083 298.613 270.661 299.005 271.408C299.509 270.699 300.163 270.129 300.965 269.7C301.768 269.271 302.673 269.056 303.681 269.056ZM50.16 313.18V315C49.3014 315.205 48.5454 315.308 47.892 315.308C46.4734 315.308 45.3534 314.944 44.532 314.216C43.7107 313.488 43.3 312.377 43.3 310.884V303.296H41.004V301.364H43.3V297.64H45.456V301.364H49.712V303.296H45.456V310.744C45.456 311.715 45.6987 312.396 46.184 312.788C46.688 313.161 47.4067 313.348 48.34 313.348C48.8627 313.348 49.4694 313.292 50.16 313.18ZM62.0281 301.364V303.268H61.2161C60.4508 303.268 59.7414 303.427 59.0881 303.744C58.4348 304.061 57.9121 304.519 57.5201 305.116C57.1281 305.713 56.9321 306.432 56.9321 307.272V315H54.7761V301.364H56.7921V303.296C57.2774 302.643 57.8934 302.139 58.6401 301.784C59.4054 301.429 60.1988 301.252 61.0201 301.252C61.3188 301.252 61.6548 301.289 62.0281 301.364ZM70.9472 301.056C72.5525 301.056 73.8405 301.532 74.8112 302.484C75.7819 303.436 76.2672 304.808 76.2672 306.6V315H74.2512V313.236C73.7472 313.908 73.1032 314.421 72.3192 314.776C71.5352 315.131 70.6485 315.308 69.6592 315.308C68.2592 315.308 67.1112 314.963 66.2152 314.272C65.3379 313.581 64.8992 312.648 64.8992 311.472C64.8992 310.315 65.3472 309.391 66.2432 308.7C67.1392 308.009 68.3245 307.664 69.7992 307.664H74.1112V306.488C74.1112 305.368 73.8125 304.519 73.2152 303.94C72.6365 303.343 71.8339 303.044 70.8072 303.044C69.9859 303.044 69.2579 303.231 68.6232 303.604C67.9885 303.959 67.3912 304.5 66.8312 305.228L65.4032 304.052C66.0192 303.044 66.8125 302.297 67.7832 301.812C68.7539 301.308 69.8085 301.056 70.9472 301.056ZM69.9392 313.516C70.6859 313.516 71.3765 313.357 72.0112 313.04C72.6459 312.704 73.1499 312.247 73.5232 311.668C73.9152 311.089 74.1112 310.455 74.1112 309.764V309.428H70.0512C69.0992 309.428 68.3712 309.596 67.8672 309.932C67.3632 310.249 67.1112 310.725 67.1112 311.36C67.1112 312.051 67.3819 312.583 67.9232 312.956C68.4645 313.329 69.1365 313.516 69.9392 313.516ZM95.2042 294V315H93.1602V312.844C92.6375 313.609 91.9095 314.216 90.9762 314.664C90.0615 315.093 89.0722 315.308 88.0082 315.308C86.7388 315.308 85.5908 315 84.5642 314.384C83.5375 313.749 82.7255 312.891 82.1282 311.808C81.5495 310.725 81.2602 309.521 81.2602 308.196C81.2602 306.871 81.5495 305.667 82.1282 304.584C82.7255 303.483 83.5375 302.624 84.5642 302.008C85.5908 301.373 86.7388 301.056 88.0082 301.056C89.0348 301.056 89.9962 301.261 90.8922 301.672C91.7882 302.083 92.5068 302.652 93.0482 303.38V294H95.2042ZM88.3162 313.32C89.1375 313.32 89.9122 313.133 90.6402 312.76C91.3682 312.387 91.9562 311.817 92.4042 311.052C92.8522 310.287 93.0762 309.335 93.0762 308.196C93.0762 307.057 92.8522 306.105 92.4042 305.34C91.9562 304.556 91.3682 303.977 90.6402 303.604C89.9122 303.231 89.1375 303.044 88.3162 303.044C87.4015 303.044 86.5708 303.268 85.8242 303.716C85.0962 304.145 84.5175 304.752 84.0882 305.536C83.6775 306.32 83.4722 307.197 83.4722 308.168C83.4722 309.139 83.6775 310.016 84.0882 310.8C84.5175 311.584 85.0962 312.2 85.8242 312.648C86.5708 313.096 87.4015 313.32 88.3162 313.32ZM101.332 301.364H103.488V315H101.332V301.364ZM102.424 297.724C101.976 297.724 101.593 297.575 101.276 297.276C100.958 296.977 100.8 296.604 100.8 296.156C100.8 295.727 100.958 295.363 101.276 295.064C101.593 294.747 101.976 294.588 102.424 294.588C102.853 294.588 103.226 294.747 103.544 295.064C103.861 295.363 104.02 295.727 104.02 296.156C104.02 296.604 103.861 296.977 103.544 297.276C103.245 297.575 102.872 297.724 102.424 297.724ZM115.838 301.056C117.425 301.056 118.666 301.551 119.562 302.54C120.458 303.529 120.906 304.827 120.906 306.432V315H118.75V306.684C118.75 305.601 118.442 304.724 117.826 304.052C117.229 303.38 116.408 303.044 115.362 303.044C114.317 303.044 113.458 303.389 112.786 304.08C112.114 304.752 111.778 305.62 111.778 306.684V315H109.622V301.364H111.638V302.82C112.142 302.26 112.749 301.831 113.458 301.532C114.186 301.215 114.98 301.056 115.838 301.056ZM139.986 301.364V313.684C139.986 315.756 139.379 317.38 138.166 318.556C136.971 319.751 135.366 320.348 133.35 320.348C132.024 320.348 130.811 320.096 129.71 319.592C128.627 319.107 127.703 318.481 126.938 317.716L128.198 316.204C128.963 316.876 129.747 317.399 130.55 317.772C131.352 318.164 132.267 318.36 133.294 318.36C134.712 318.36 135.823 317.968 136.626 317.184C137.428 316.4 137.83 315.271 137.83 313.796V312.592C137.288 313.301 136.56 313.861 135.646 314.272C134.75 314.664 133.788 314.86 132.762 314.86C131.492 314.86 130.344 314.561 129.318 313.964C128.31 313.367 127.516 312.545 126.938 311.5C126.359 310.455 126.07 309.279 126.07 307.972C126.07 306.665 126.359 305.489 126.938 304.444C127.516 303.399 128.31 302.577 129.318 301.98C130.344 301.364 131.492 301.056 132.762 301.056C133.844 301.056 134.843 301.28 135.758 301.728C136.691 302.157 137.419 302.764 137.942 303.548V301.364H139.986ZM133.098 312.872C133.938 312.872 134.712 312.695 135.422 312.34C136.15 311.985 136.738 311.444 137.186 310.716C137.634 309.969 137.858 309.055 137.858 307.972C137.858 306.889 137.634 305.984 137.186 305.256C136.738 304.528 136.15 303.987 135.422 303.632C134.694 303.277 133.919 303.1 133.098 303.1C132.183 303.1 131.352 303.315 130.606 303.744C129.878 304.155 129.299 304.733 128.87 305.48C128.459 306.208 128.254 307.048 128.254 308C128.254 308.952 128.459 309.801 128.87 310.548C129.299 311.276 129.878 311.845 130.606 312.256C131.352 312.667 132.183 312.872 133.098 312.872ZM162.525 301.056C163.795 301.056 164.943 301.373 165.969 302.008C166.996 302.624 167.799 303.483 168.377 304.584C168.975 305.667 169.273 306.871 169.273 308.196C169.273 309.521 168.984 310.725 168.405 311.808C167.827 312.891 167.024 313.749 165.997 314.384C164.971 315 163.823 315.308 162.553 315.308C161.489 315.308 160.491 315.093 159.557 314.664C158.624 314.216 157.896 313.609 157.373 312.844V315H155.357V294H157.513V303.352C158.055 302.643 158.764 302.083 159.641 301.672C160.537 301.261 161.499 301.056 162.525 301.056ZM162.217 313.32C163.132 313.32 163.953 313.096 164.681 312.648C165.428 312.2 166.007 311.584 166.417 310.8C166.847 310.016 167.061 309.139 167.061 308.168C167.061 307.197 166.847 306.32 166.417 305.536C166.007 304.752 165.428 304.145 164.681 303.716C163.953 303.268 163.132 303.044 162.217 303.044C161.377 303.044 160.593 303.231 159.865 303.604C159.156 303.977 158.577 304.556 158.129 305.34C157.7 306.105 157.485 307.057 157.485 308.196C157.485 309.335 157.709 310.287 158.157 311.052C158.605 311.817 159.184 312.387 159.893 312.76C160.621 313.133 161.396 313.32 162.217 313.32ZM180.581 315.28C179.274 315.28 178.079 314.963 176.997 314.328C175.914 313.693 175.055 312.835 174.421 311.752C173.786 310.651 173.469 309.456 173.469 308.168C173.469 306.861 173.786 305.667 174.421 304.584C175.055 303.483 175.914 302.624 176.997 302.008C178.098 301.373 179.302 301.056 180.609 301.056C181.915 301.056 183.11 301.373 184.193 302.008C185.294 302.643 186.162 303.501 186.797 304.584C187.431 305.667 187.749 306.861 187.749 308.168C187.749 309.456 187.431 310.651 186.797 311.752C186.162 312.835 185.294 313.693 184.193 314.328C183.091 314.963 181.887 315.28 180.581 315.28ZM180.581 313.292C181.495 313.292 182.326 313.068 183.073 312.62C183.838 312.172 184.435 311.565 184.865 310.8C185.313 310.016 185.537 309.148 185.537 308.196C185.537 307.225 185.322 306.348 184.893 305.564C184.463 304.78 183.866 304.164 183.101 303.716C182.354 303.268 181.523 303.044 180.609 303.044C179.675 303.044 178.835 303.268 178.089 303.716C177.342 304.164 176.754 304.78 176.325 305.564C175.895 306.348 175.681 307.225 175.681 308.196C175.681 309.148 175.895 310.016 176.325 310.8C176.754 311.565 177.342 312.172 178.089 312.62C178.835 313.068 179.666 313.292 180.581 313.292ZM197.839 301.056C199.444 301.056 200.732 301.532 201.703 302.484C202.673 303.436 203.159 304.808 203.159 306.6V315H201.143V313.236C200.639 313.908 199.995 314.421 199.211 314.776C198.427 315.131 197.54 315.308 196.551 315.308C195.151 315.308 194.003 314.963 193.107 314.272C192.229 313.581 191.791 312.648 191.791 311.472C191.791 310.315 192.239 309.391 193.135 308.7C194.031 308.009 195.216 307.664 196.691 307.664H201.003V306.488C201.003 305.368 200.704 304.519 200.107 303.94C199.528 303.343 198.725 303.044 197.699 303.044C196.877 303.044 196.149 303.231 195.515 303.604C194.88 303.959 194.283 304.5 193.723 305.228L192.295 304.052C192.911 303.044 193.704 302.297 194.675 301.812C195.645 301.308 196.7 301.056 197.839 301.056ZM196.831 313.516C197.577 313.516 198.268 313.357 198.903 313.04C199.537 312.704 200.041 312.247 200.415 311.668C200.807 311.089 201.003 310.455 201.003 309.764V309.428H196.943C195.991 309.428 195.263 309.596 194.759 309.932C194.255 310.249 194.003 310.725 194.003 311.36C194.003 312.051 194.273 312.583 194.815 312.956C195.356 313.329 196.028 313.516 196.831 313.516ZM216.384 301.364V303.268H215.572C214.806 303.268 214.097 303.427 213.444 303.744C212.79 304.061 212.268 304.519 211.876 305.116C211.484 305.713 211.288 306.432 211.288 307.272V315H209.132V301.364H211.148V303.296C211.633 302.643 212.249 302.139 212.996 301.784C213.761 301.429 214.554 301.252 215.376 301.252C215.674 301.252 216.01 301.289 216.384 301.364ZM233.367 294V315H231.323V312.844C230.8 313.609 230.072 314.216 229.139 314.664C228.224 315.093 227.235 315.308 226.171 315.308C224.901 315.308 223.753 315 222.727 314.384C221.7 313.749 220.888 312.891 220.291 311.808C219.712 310.725 219.423 309.521 219.423 308.196C219.423 306.871 219.712 305.667 220.291 304.584C220.888 303.483 221.7 302.624 222.727 302.008C223.753 301.373 224.901 301.056 226.171 301.056C227.197 301.056 228.159 301.261 229.055 301.672C229.951 302.083 230.669 302.652 231.211 303.38V294H233.367ZM226.479 313.32C227.3 313.32 228.075 313.133 228.803 312.76C229.531 312.387 230.119 311.817 230.567 311.052C231.015 310.287 231.239 309.335 231.239 308.196C231.239 307.057 231.015 306.105 230.567 305.34C230.119 304.556 229.531 303.977 228.803 303.604C228.075 303.231 227.3 303.044 226.479 303.044C225.564 303.044 224.733 303.268 223.987 303.716C223.259 304.145 222.68 304.752 222.251 305.536C221.84 306.32 221.635 307.197 221.635 308.168C221.635 309.139 221.84 310.016 222.251 310.8C222.68 311.584 223.259 312.2 223.987 312.648C224.733 313.096 225.564 313.32 226.479 313.32ZM48.06 327.652C47.1454 327.652 46.436 327.848 45.932 328.24C45.4467 328.613 45.204 329.285 45.204 330.256V333.364H48.62V335.296H45.204V347H43.048V335.296H41.088V333.364H43.048V330.116C43.048 328.623 43.4494 327.512 44.252 326.784C45.0734 326.056 46.1747 325.692 47.556 325.692C48.1534 325.692 48.7227 325.767 49.264 325.916V327.736C48.816 327.68 48.4147 327.652 48.06 327.652ZM64.6286 340.84H53.8486C53.9793 342.184 54.5113 343.267 55.4446 344.088C56.3779 344.909 57.5166 345.32 58.8606 345.32C60.4099 345.32 61.8006 344.704 63.0326 343.472L64.2926 344.928C63.5833 345.675 62.7619 346.263 61.8286 346.692C60.9139 347.103 59.9153 347.308 58.8326 347.308C57.4886 347.308 56.2659 347 55.1646 346.384C54.0633 345.749 53.1953 344.891 52.5606 343.808C51.9259 342.725 51.6086 341.521 51.6086 340.196C51.6086 338.889 51.9166 337.695 52.5326 336.612C53.1486 335.511 53.9886 334.643 55.0526 334.008C56.1166 333.373 57.2926 333.056 58.5806 333.056C59.7379 333.056 60.7926 333.317 61.7446 333.84C62.6966 334.363 63.4433 335.091 63.9846 336.024C64.5259 336.957 64.7966 338.021 64.7966 339.216C64.7966 339.739 64.7406 340.28 64.6286 340.84ZM58.5246 335.016C57.3859 335.016 56.3966 335.38 55.5566 336.108C54.7166 336.817 54.1753 337.76 53.9326 338.936H62.5846C62.5659 337.723 62.1646 336.771 61.3806 336.08C60.6153 335.371 59.6633 335.016 58.5246 335.016ZM74.8847 333.056C76.49 333.056 77.778 333.532 78.7487 334.484C79.7194 335.436 80.2047 336.808 80.2047 338.6V347H78.1887V345.236C77.6847 345.908 77.0407 346.421 76.2567 346.776C75.4727 347.131 74.586 347.308 73.5967 347.308C72.1967 347.308 71.0487 346.963 70.1527 346.272C69.2754 345.581 68.8367 344.648 68.8367 343.472C68.8367 342.315 69.2847 341.391 70.1807 340.7C71.0767 340.009 72.262 339.664 73.7367 339.664H78.0487V338.488C78.0487 337.368 77.75 336.519 77.1527 335.94C76.574 335.343 75.7714 335.044 74.7447 335.044C73.9234 335.044 73.1954 335.231 72.5607 335.604C71.926 335.959 71.3287 336.5 70.7687 337.228L69.3407 336.052C69.9567 335.044 70.75 334.297 71.7207 333.812C72.6914 333.308 73.746 333.056 74.8847 333.056ZM73.8767 345.516C74.6234 345.516 75.314 345.357 75.9487 345.04C76.5834 344.704 77.0874 344.247 77.4607 343.668C77.8527 343.089 78.0487 342.455 78.0487 341.764V341.428H73.9887C73.0367 341.428 72.3087 341.596 71.8047 341.932C71.3007 342.249 71.0487 342.725 71.0487 343.36C71.0487 344.051 71.3194 344.583 71.8607 344.956C72.402 345.329 73.074 345.516 73.8767 345.516ZM93.6257 345.18V347C92.767 347.205 92.011 347.308 91.3577 347.308C89.939 347.308 88.819 346.944 87.9977 346.216C87.1763 345.488 86.7657 344.377 86.7657 342.884V335.296H84.4697V333.364H86.7657V329.64H88.9217V333.364H93.1777V335.296H88.9217V342.744C88.9217 343.715 89.1643 344.396 89.6497 344.788C90.1537 345.161 90.8723 345.348 91.8057 345.348C92.3283 345.348 92.935 345.292 93.6257 345.18ZM103.73 347.308C102.666 347.308 101.704 347.075 100.846 346.608C99.9871 346.123 99.3057 345.451 98.8017 344.592C98.3164 343.715 98.0737 342.707 98.0737 341.568V333.364H100.202V341.708C100.202 342.809 100.538 343.687 101.21 344.34C101.882 344.993 102.722 345.32 103.73 345.32C104.719 345.32 105.54 344.993 106.194 344.34C106.866 343.668 107.202 342.791 107.202 341.708V333.364H109.358V341.568C109.358 342.707 109.106 343.715 108.602 344.592C108.116 345.451 107.444 346.123 106.586 346.608C105.727 347.075 104.775 347.308 103.73 347.308ZM122.562 333.364V335.268H121.75C120.984 335.268 120.275 335.427 119.622 335.744C118.968 336.061 118.446 336.519 118.054 337.116C117.662 337.713 117.466 338.432 117.466 339.272V347H115.31V333.364H117.326V335.296C117.811 334.643 118.427 334.139 119.174 333.784C119.939 333.429 120.732 333.252 121.554 333.252C121.852 333.252 122.188 333.289 122.562 333.364ZM138.621 340.84H127.841C127.971 342.184 128.503 343.267 129.437 344.088C130.37 344.909 131.509 345.32 132.853 345.32C134.402 345.32 135.793 344.704 137.025 343.472L138.285 344.928C137.575 345.675 136.754 346.263 135.821 346.692C134.906 347.103 133.907 347.308 132.825 347.308C131.481 347.308 130.258 347 129.157 346.384C128.055 345.749 127.187 344.891 126.553 343.808C125.918 342.725 125.601 341.521 125.601 340.196C125.601 338.889 125.909 337.695 126.525 336.612C127.141 335.511 127.981 334.643 129.045 334.008C130.109 333.373 131.285 333.056 132.573 333.056C133.73 333.056 134.785 333.317 135.737 333.84C136.689 334.363 137.435 335.091 137.977 336.024C138.518 336.957 138.789 338.021 138.789 339.216C138.789 339.739 138.733 340.28 138.621 340.84ZM132.517 335.016C131.378 335.016 130.389 335.38 129.549 336.108C128.709 336.817 128.167 337.76 127.925 338.936H136.577C136.558 337.723 136.157 336.771 135.373 336.08C134.607 335.371 133.655 335.016 132.517 335.016ZM148.009 347.308C146.87 347.308 145.844 347.065 144.929 346.58C144.033 346.076 143.286 345.432 142.689 344.648L144.061 343.22C144.714 343.892 145.34 344.415 145.937 344.788C146.534 345.143 147.216 345.32 147.981 345.32C148.728 345.32 149.344 345.152 149.829 344.816C150.333 344.461 150.585 343.985 150.585 343.388C150.585 342.847 150.398 342.436 150.025 342.156C149.652 341.857 149.045 341.54 148.205 341.204L146.889 340.644C145.75 340.177 144.901 339.664 144.341 339.104C143.781 338.525 143.501 337.779 143.501 336.864C143.501 335.669 143.94 334.736 144.817 334.064C145.694 333.392 146.786 333.056 148.093 333.056C149.045 333.056 149.904 333.252 150.669 333.644C151.434 334.017 152.097 334.54 152.657 335.212L151.341 336.556C150.874 336.089 150.352 335.725 149.773 335.464C149.213 335.184 148.616 335.044 147.981 335.044C147.309 335.044 146.758 335.193 146.329 335.492C145.918 335.791 145.713 336.211 145.713 336.752C145.713 337.181 145.872 337.536 146.189 337.816C146.525 338.077 147.104 338.385 147.925 338.74L149.185 339.272C150.454 339.813 151.369 340.392 151.929 341.008C152.508 341.605 152.797 342.371 152.797 343.304C152.797 344.573 152.33 345.563 151.397 346.272C150.482 346.963 149.353 347.308 148.009 347.308Z" fill="white" stroke-dasharray="0,0,1913.7940625000003,686.4696093749998"><animate attributeType="XML" attributeName="stroke-dasharray" repeatCount="indefinite" dur="0.672184998315202s" values="0,0,1913.7940625000003,686.4696093749998; 
          0,686.4696093749998,1913.7940625000003,0; 
          1913.7940625000003,686.4696093749998,0,0" keyTimes="0; 0.2639999999999999; 1" begin="0.33320345329293555s"></animate></path>
</svg>