<?xml version="1.0" standalone="no"?>
<svg id="#1" width="363" height="400" viewBox="0 0 363 400" fill="none" xmlns="http://www.w3.org/2000/svg" style="max-width: 100%; max-height: 100%;">
<rect width="362.667" height="400" fill="#191927" stroke-dasharray="0,0,951.8084062500002,573.5255781249998"><animate attributeType="XML" attributeName="stroke-dasharray" repeatCount="indefinite" dur="1.6666666666666667s" values="0,0,951.8084062500002,573.5255781249998; 
          0,573.5255781249998,951.8084062500002,0; 
          951.8084062500002,573.5255781249998,0,0" keyTimes="0; 0.3759999999999999; 1"></animate></rect>
<path d="M110.693 41H168.669V107.274V177H50V108.55V107.274V41H110.693Z" stroke="white" stroke-width="2" stroke-dasharray="0,0,317.82691992187506,191.51109277343744"><animate attributeType="XML" attributeName="stroke-dasharray" repeatCount="indefinite" dur="1.6666666666666667s" values="0,0,317.82691992187506,191.51109277343744; 
          0,191.51109277343744,317.82691992187506,0; 
          317.82691992187506,191.51109277343744,0,0" keyTimes="0; 0.3759999999999999; 1"></animate></path>
<path d="M108 41.4834V177.983" stroke="white" stroke-width="2" stroke-dasharray="0,0,85.17575244140626,51.32385083007811"><animate attributeType="XML" attributeName="stroke-dasharray" repeatCount="indefinite" dur="1.6666666666666667s" values="0,0,85.17575244140626,51.32385083007811; 
          0,51.32385083007811,85.17575244140626,0; 
          85.17575244140626,51.32385083007811,0,0" keyTimes="0; 0.3759999999999999; 1"></animate></path>
<path d="M51 110.483L168.5 110.483" stroke="white" stroke-width="2" stroke-dasharray="0,0,73.32000000000001,44.179999999999986"><animate attributeType="XML" attributeName="stroke-dasharray" repeatCount="indefinite" dur="1.6666666666666667s" values="0,0,73.32000000000001,44.179999999999986; 
          0,44.179999999999986,73.32000000000001,0; 
          73.32000000000001,44.179999999999986,0,0" keyTimes="0; 0.3759999999999999; 1"></animate></path>
<path d="M80.6526 157.165C78.8646 157.215 77.0908 156.797 75.4944 155.948C74.0753 155.139 72.9188 153.907 72.1667 152.409C71.3579 150.761 70.9605 148.926 71.0031 147.074V139.042C70.9605 137.199 71.365 135.374 72.1667 133.735C72.933 132.254 74.0824 131.035 75.4944 130.226C77.0766 129.344 78.8575 128.904 80.6526 128.95C82.4265 128.907 84.1861 129.347 85.7471 130.226C87.1519 131.04 88.2942 132.258 89.0463 133.735C89.8552 135.374 90.2525 137.199 90.2099 139.042V143.797H74.0824V147.074C73.9618 149.014 74.572 150.927 75.7711 152.409C76.4026 153.081 77.1689 153.603 78.0061 153.938C78.8505 154.273 79.7515 154.415 80.6526 154.353C82.1284 154.426 83.5901 154.02 84.8318 153.193C85.9315 152.404 86.712 151.231 87.0526 149.887H90.1532C89.9971 150.948 89.6353 151.965 89.096 152.88C88.5639 153.796 87.8543 154.592 87.0242 155.223C85.1581 156.578 82.9231 157.26 80.6526 157.165ZM87.1377 141.565V139.042C87.2371 137.099 86.6482 135.186 85.4703 133.677C84.8531 133.008 84.0939 132.488 83.2637 132.153C82.4336 131.818 81.5395 131.675 80.6526 131.734C79.7515 131.674 78.8576 131.813 78.0132 132.144C77.176 132.473 76.4097 132.986 75.7711 133.648C74.572 135.155 73.9689 137.084 74.0824 139.042V141.187H87.5776L87.1377 141.565Z" fill="#D6D6D6" stroke-dasharray="0,0,97.56319409179689,58.78807849121092"><animate attributeType="XML" attributeName="stroke-dasharray" repeatCount="indefinite" dur="1.6666666666666667s" values="0,0,97.56319409179689,58.78807849121092; 
          0,58.78807849121092,97.56319409179689,0; 
          97.56319409179689,58.78807849121092,0,0" keyTimes="0; 0.3759999999999999; 1"></animate></path>
<path d="M151.186 131.517L149.164 129.632L139.046 141.637L128.928 129.632L126.906 131.517L137.244 143.754L126.906 156.02L128.928 157.905L139.046 145.9L149.164 157.905L151.186 156.02L140.848 143.754L151.186 131.517Z" fill="#D6D6D6" stroke-dasharray="0,0,86.09923168945313,51.880306274414046"><animate attributeType="XML" attributeName="stroke-dasharray" repeatCount="indefinite" dur="1.6666666666666667s" values="0,0,86.09923168945313,51.880306274414046; 
          0,51.880306274414046,86.09923168945313,0; 
          86.09923168945313,51.880306274414046,0,0" keyTimes="0; 0.3759999999999999; 1"></animate></path>
<path d="M82.478 86.4891V64.2482V61H79.3704H73.9141V64.2482H79.3704V86.4891H73.9141V89.7373H87.9343V86.4891H82.478Z" fill="#D6D6D6" stroke-dasharray="0,0,60.170820556640635,36.2567764892578"><animate attributeType="XML" attributeName="stroke-dasharray" repeatCount="indefinite" dur="1.6666666666666667s" values="0,0,60.170820556640635,36.2567764892578; 
          0,36.2567764892578,60.170820556640635,0; 
          60.170820556640635,36.2567764892578,0,0" keyTimes="0; 0.3759999999999999; 1"></animate></path>
<path d="M47.028 266.48H40.532V264.52H55.736V266.48H49.212V283H47.028V266.48ZM64.0761 283.28C62.7694 283.28 61.5747 282.963 60.4921 282.328C59.4094 281.693 58.5507 280.835 57.9161 279.752C57.2814 278.651 56.9641 277.456 56.9641 276.168C56.9641 274.861 57.2814 273.667 57.9161 272.584C58.5507 271.483 59.4094 270.624 60.4921 270.008C61.5934 269.373 62.7974 269.056 64.1041 269.056C65.4107 269.056 66.6054 269.373 67.6881 270.008C68.7894 270.643 69.6574 271.501 70.2921 272.584C70.9267 273.667 71.2441 274.861 71.2441 276.168C71.2441 277.456 70.9267 278.651 70.2921 279.752C69.6574 280.835 68.7894 281.693 67.6881 282.328C66.5867 282.963 65.3827 283.28 64.0761 283.28ZM64.0761 281.292C64.9907 281.292 65.8214 281.068 66.5681 280.62C67.3334 280.172 67.9307 279.565 68.3601 278.8C68.8081 278.016 69.0321 277.148 69.0321 276.196C69.0321 275.225 68.8174 274.348 68.3881 273.564C67.9587 272.78 67.3614 272.164 66.5961 271.716C65.8494 271.268 65.0187 271.044 64.1041 271.044C63.1707 271.044 62.3307 271.268 61.5841 271.716C60.8374 272.164 60.2494 272.78 59.8201 273.564C59.3907 274.348 59.1761 275.225 59.1761 276.196C59.1761 277.148 59.3907 278.016 59.8201 278.8C60.2494 279.565 60.8374 280.172 61.5841 280.62C62.3307 281.068 63.1614 281.292 64.0761 281.292ZM76.4339 262H78.5899V283H76.4339V262ZM87.8579 283H85.0859L78.8139 275.328L84.4979 269.364H87.3259L81.4179 275.356L87.8579 283ZM103.491 276.84H92.7111C92.8418 278.184 93.3738 279.267 94.3071 280.088C95.2404 280.909 96.3791 281.32 97.7231 281.32C99.2724 281.32 100.663 280.704 101.895 279.472L103.155 280.928C102.446 281.675 101.624 282.263 100.691 282.692C99.7764 283.103 98.7778 283.308 97.6951 283.308C96.3511 283.308 95.1284 283 94.0271 282.384C92.9258 281.749 92.0578 280.891 91.4231 279.808C90.7884 278.725 90.4711 277.521 90.4711 276.196C90.4711 274.889 90.7791 273.695 91.3951 272.612C92.0111 271.511 92.8511 270.643 93.9151 270.008C94.9791 269.373 96.1551 269.056 97.4431 269.056C98.6004 269.056 99.6551 269.317 100.607 269.84C101.559 270.363 102.306 271.091 102.847 272.024C103.388 272.957 103.659 274.021 103.659 275.216C103.659 275.739 103.603 276.28 103.491 276.84ZM97.3871 271.016C96.2484 271.016 95.2591 271.38 94.4191 272.108C93.5791 272.817 93.0378 273.76 92.7951 274.936H101.447C101.428 273.723 101.027 272.771 100.243 272.08C99.4778 271.371 98.5258 271.016 97.3871 271.016ZM115.063 269.056C116.65 269.056 117.891 269.551 118.787 270.54C119.683 271.529 120.131 272.827 120.131 274.432V283H117.975V274.684C117.975 273.601 117.667 272.724 117.051 272.052C116.454 271.38 115.633 271.044 114.587 271.044C113.542 271.044 112.683 271.389 112.011 272.08C111.339 272.752 111.003 273.62 111.003 274.684V283H108.847V269.364H110.863V270.82C111.367 270.26 111.974 269.831 112.683 269.532C113.411 269.215 114.205 269.056 115.063 269.056ZM134.178 273.284H145.91V275.104H134.178V273.284ZM167.334 269.056C168.622 269.056 169.779 269.373 170.806 270.008C171.833 270.624 172.635 271.473 173.214 272.556C173.793 273.639 174.082 274.843 174.082 276.168C174.082 277.493 173.783 278.707 173.186 279.808C172.607 280.891 171.805 281.749 170.778 282.384C169.751 283 168.603 283.308 167.334 283.308C166.326 283.308 165.374 283.112 164.478 282.72C163.601 282.309 162.882 281.749 162.322 281.04V288.04H160.166V269.364H162.182V271.548C162.705 270.764 163.423 270.157 164.338 269.728C165.271 269.28 166.27 269.056 167.334 269.056ZM167.026 281.32C167.941 281.32 168.762 281.105 169.49 280.676C170.237 280.228 170.815 279.612 171.226 278.828C171.655 278.044 171.87 277.167 171.87 276.196C171.87 275.225 171.655 274.348 171.226 273.564C170.815 272.78 170.237 272.164 169.49 271.716C168.762 271.268 167.941 271.044 167.026 271.044C166.205 271.044 165.43 271.231 164.702 271.604C163.993 271.977 163.414 272.547 162.966 273.312C162.518 274.077 162.294 275.029 162.294 276.168C162.294 277.307 162.509 278.268 162.938 279.052C163.386 279.817 163.965 280.387 164.674 280.76C165.402 281.133 166.186 281.32 167.026 281.32ZM185.389 283.28C184.083 283.28 182.888 282.963 181.805 282.328C180.723 281.693 179.864 280.835 179.229 279.752C178.595 278.651 178.277 277.456 178.277 276.168C178.277 274.861 178.595 273.667 179.229 272.584C179.864 271.483 180.723 270.624 181.805 270.008C182.907 269.373 184.111 269.056 185.417 269.056C186.724 269.056 187.919 269.373 189.001 270.008C190.103 270.643 190.971 271.501 191.605 272.584C192.24 273.667 192.557 274.861 192.557 276.168C192.557 277.456 192.24 278.651 191.605 279.752C190.971 280.835 190.103 281.693 189.001 282.328C187.9 282.963 186.696 283.28 185.389 283.28ZM185.389 281.292C186.304 281.292 187.135 281.068 187.881 280.62C188.647 280.172 189.244 279.565 189.673 278.8C190.121 278.016 190.345 277.148 190.345 276.196C190.345 275.225 190.131 274.348 189.701 273.564C189.272 272.78 188.675 272.164 187.909 271.716C187.163 271.268 186.332 271.044 185.417 271.044C184.484 271.044 183.644 271.268 182.897 271.716C182.151 272.164 181.563 272.78 181.133 273.564C180.704 274.348 180.489 275.225 180.489 276.196C180.489 277.148 180.704 278.016 181.133 278.8C181.563 279.565 182.151 280.172 182.897 280.62C183.644 281.068 184.475 281.292 185.389 281.292ZM217.892 269.364L212.152 283.308H211.368L206.72 273.004L202.1 283.308H201.344L195.548 269.364H197.844L201.792 279.472L206.328 269.056H207.14L211.732 279.388L215.596 269.364H217.892ZM233.91 276.84H223.13C223.261 278.184 223.793 279.267 224.726 280.088C225.659 280.909 226.798 281.32 228.142 281.32C229.691 281.32 231.082 280.704 232.314 279.472L233.574 280.928C232.865 281.675 232.043 282.263 231.11 282.692C230.195 283.103 229.197 283.308 228.114 283.308C226.77 283.308 225.547 283 224.446 282.384C223.345 281.749 222.477 280.891 221.842 279.808C221.207 278.725 220.89 277.521 220.89 276.196C220.89 274.889 221.198 273.695 221.814 272.612C222.43 271.511 223.27 270.643 224.334 270.008C225.398 269.373 226.574 269.056 227.862 269.056C229.019 269.056 230.074 269.317 231.026 269.84C231.978 270.363 232.725 271.091 233.266 272.024C233.807 272.957 234.078 274.021 234.078 275.216C234.078 275.739 234.022 276.28 233.91 276.84ZM227.806 271.016C226.667 271.016 225.678 271.38 224.838 272.108C223.998 272.817 223.457 273.76 223.214 274.936H231.866C231.847 273.723 231.446 272.771 230.662 272.08C229.897 271.371 228.945 271.016 227.806 271.016ZM246.518 269.364V271.268H245.706C244.941 271.268 244.231 271.427 243.578 271.744C242.925 272.061 242.402 272.519 242.01 273.116C241.618 273.713 241.422 274.432 241.422 275.272V283H239.266V269.364H241.282V271.296C241.767 270.643 242.383 270.139 243.13 269.784C243.895 269.429 244.689 269.252 245.51 269.252C245.809 269.252 246.145 269.289 246.518 269.364ZM262.577 276.84H251.797C251.928 278.184 252.46 279.267 253.393 280.088C254.326 280.909 255.465 281.32 256.809 281.32C258.358 281.32 259.749 280.704 260.981 279.472L262.241 280.928C261.532 281.675 260.71 282.263 259.777 282.692C258.862 283.103 257.864 283.308 256.781 283.308C255.437 283.308 254.214 283 253.113 282.384C252.012 281.749 251.144 280.891 250.509 279.808C249.874 278.725 249.557 277.521 249.557 276.196C249.557 274.889 249.865 273.695 250.481 272.612C251.097 271.511 251.937 270.643 253.001 270.008C254.065 269.373 255.241 269.056 256.529 269.056C257.686 269.056 258.741 269.317 259.693 269.84C260.645 270.363 261.392 271.091 261.933 272.024C262.474 272.957 262.745 274.021 262.745 275.216C262.745 275.739 262.689 276.28 262.577 276.84ZM256.473 271.016C255.334 271.016 254.345 271.38 253.505 272.108C252.665 272.817 252.124 273.76 251.881 274.936H260.533C260.514 273.723 260.113 272.771 259.329 272.08C258.564 271.371 257.612 271.016 256.473 271.016ZM280.897 262V283H278.853V280.844C278.33 281.609 277.602 282.216 276.669 282.664C275.754 283.093 274.765 283.308 273.701 283.308C272.432 283.308 271.284 283 270.257 282.384C269.23 281.749 268.418 280.891 267.821 279.808C267.242 278.725 266.953 277.521 266.953 276.196C266.953 274.871 267.242 273.667 267.821 272.584C268.418 271.483 269.23 270.624 270.257 270.008C271.284 269.373 272.432 269.056 273.701 269.056C274.728 269.056 275.689 269.261 276.585 269.672C277.481 270.083 278.2 270.652 278.741 271.38V262H280.897ZM274.009 281.32C274.83 281.32 275.605 281.133 276.333 280.76C277.061 280.387 277.649 279.817 278.097 279.052C278.545 278.287 278.769 277.335 278.769 276.196C278.769 275.057 278.545 274.105 278.097 273.34C277.649 272.556 277.061 271.977 276.333 271.604C275.605 271.231 274.83 271.044 274.009 271.044C273.094 271.044 272.264 271.268 271.517 271.716C270.789 272.145 270.21 272.752 269.781 273.536C269.37 274.32 269.165 275.197 269.165 276.168C269.165 277.139 269.37 278.016 269.781 278.8C270.21 279.584 270.789 280.2 271.517 280.648C272.264 281.096 273.094 281.32 274.009 281.32ZM49.548 301.056C50.836 301.056 51.9933 301.373 53.02 302.008C54.0467 302.624 54.8493 303.473 55.428 304.556C56.0067 305.639 56.296 306.843 56.296 308.168C56.296 309.493 55.9973 310.707 55.4 311.808C54.8213 312.891 54.0187 313.749 52.992 314.384C51.9653 315 50.8173 315.308 49.548 315.308C48.54 315.308 47.588 315.112 46.692 314.72C45.8147 314.309 45.096 313.749 44.536 313.04V320.04H42.38V301.364H44.396V303.548C44.9187 302.764 45.6373 302.157 46.552 301.728C47.4853 301.28 48.484 301.056 49.548 301.056ZM49.24 313.32C50.1547 313.32 50.976 313.105 51.704 312.676C52.4507 312.228 53.0293 311.612 53.44 310.828C53.8693 310.044 54.084 309.167 54.084 308.196C54.084 307.225 53.8693 306.348 53.44 305.564C53.0293 304.78 52.4507 304.164 51.704 303.716C50.976 303.268 50.1547 303.044 49.24 303.044C48.4187 303.044 47.644 303.231 46.916 303.604C46.2067 303.977 45.628 304.547 45.18 305.312C44.732 306.077 44.508 307.029 44.508 308.168C44.508 309.307 44.7227 310.268 45.152 311.052C45.6 311.817 46.1787 312.387 46.888 312.76C47.616 313.133 48.4 313.32 49.24 313.32ZM68.7234 301.364V303.268H67.9114C67.1461 303.268 66.4367 303.427 65.7834 303.744C65.1301 304.061 64.6074 304.519 64.2154 305.116C63.8234 305.713 63.6274 306.432 63.6274 307.272V315H61.4714V301.364H63.4874V303.296C63.9727 302.643 64.5887 302.139 65.3354 301.784C66.1007 301.429 66.8941 301.252 67.7154 301.252C68.0141 301.252 68.3501 301.289 68.7234 301.364ZM78.8745 315.28C77.5678 315.28 76.3732 314.963 75.2905 314.328C74.2078 313.693 73.3492 312.835 72.7145 311.752C72.0798 310.651 71.7625 309.456 71.7625 308.168C71.7625 306.861 72.0798 305.667 72.7145 304.584C73.3492 303.483 74.2078 302.624 75.2905 302.008C76.3918 301.373 77.5958 301.056 78.9025 301.056C80.2092 301.056 81.4038 301.373 82.4865 302.008C83.5878 302.643 84.4558 303.501 85.0905 304.584C85.7252 305.667 86.0425 306.861 86.0425 308.168C86.0425 309.456 85.7252 310.651 85.0905 311.752C84.4558 312.835 83.5878 313.693 82.4865 314.328C81.3852 314.963 80.1812 315.28 78.8745 315.28ZM78.8745 313.292C79.7892 313.292 80.6198 313.068 81.3665 312.62C82.1318 312.172 82.7292 311.565 83.1585 310.8C83.6065 310.016 83.8305 309.148 83.8305 308.196C83.8305 307.225 83.6158 306.348 83.1865 305.564C82.7572 304.78 82.1598 304.164 81.3945 303.716C80.6478 303.268 79.8172 303.044 78.9025 303.044C77.9692 303.044 77.1292 303.268 76.3825 303.716C75.6358 304.164 75.0478 304.78 74.6185 305.564C74.1892 306.348 73.9745 307.225 73.9745 308.196C73.9745 309.148 74.1892 310.016 74.6185 310.8C75.0478 311.565 75.6358 312.172 76.3825 312.62C77.1292 313.068 77.9598 313.292 78.8745 313.292ZM104.196 294V315H102.152V312.844C101.63 313.609 100.902 314.216 99.9683 314.664C99.0537 315.093 98.0643 315.308 97.0003 315.308C95.731 315.308 94.583 315 93.5563 314.384C92.5297 313.749 91.7177 312.891 91.1203 311.808C90.5417 310.725 90.2523 309.521 90.2523 308.196C90.2523 306.871 90.5417 305.667 91.1203 304.584C91.7177 303.483 92.5297 302.624 93.5563 302.008C94.583 301.373 95.731 301.056 97.0003 301.056C98.027 301.056 98.9883 301.261 99.8843 301.672C100.78 302.083 101.499 302.652 102.04 303.38V294H104.196ZM97.3083 313.32C98.1297 313.32 98.9043 313.133 99.6323 312.76C100.36 312.387 100.948 311.817 101.396 311.052C101.844 310.287 102.068 309.335 102.068 308.196C102.068 307.057 101.844 306.105 101.396 305.34C100.948 304.556 100.36 303.977 99.6323 303.604C98.9043 303.231 98.1297 303.044 97.3083 303.044C96.3937 303.044 95.563 303.268 94.8163 303.716C94.0883 304.145 93.5097 304.752 93.0803 305.536C92.6697 306.32 92.4643 307.197 92.4643 308.168C92.4643 309.139 92.6697 310.016 93.0803 310.8C93.5097 311.584 94.0883 312.2 94.8163 312.648C95.563 313.096 96.3937 313.32 97.3083 313.32ZM115.812 315.308C114.748 315.308 113.786 315.075 112.928 314.608C112.069 314.123 111.388 313.451 110.884 312.592C110.398 311.715 110.156 310.707 110.156 309.568V301.364H112.284V309.708C112.284 310.809 112.62 311.687 113.292 312.34C113.964 312.993 114.804 313.32 115.812 313.32C116.801 313.32 117.622 312.993 118.276 312.34C118.948 311.668 119.284 310.791 119.284 309.708V301.364H121.44V309.568C121.44 310.707 121.188 311.715 120.684 312.592C120.198 313.451 119.526 314.123 118.668 314.608C117.809 315.075 116.857 315.308 115.812 315.308ZM133.552 315.308C132.245 315.308 131.041 314.991 129.94 314.356C128.857 313.721 127.998 312.863 127.364 311.78C126.729 310.679 126.412 309.475 126.412 308.168C126.412 306.861 126.729 305.667 127.364 304.584C127.998 303.501 128.857 302.643 129.94 302.008C131.041 301.373 132.245 301.056 133.552 301.056C134.746 301.056 135.829 301.327 136.8 301.868C137.77 302.391 138.564 303.109 139.18 304.024L137.64 305.256C136.538 303.781 135.185 303.044 133.58 303.044C132.646 303.044 131.797 303.277 131.032 303.744C130.285 304.192 129.697 304.808 129.268 305.592C128.838 306.376 128.624 307.235 128.624 308.168C128.624 309.12 128.838 309.988 129.268 310.772C129.697 311.556 130.285 312.181 131.032 312.648C131.797 313.096 132.646 313.32 133.58 313.32C135.185 313.32 136.529 312.592 137.612 311.136L139.152 312.34C138.536 313.255 137.742 313.983 136.772 314.524C135.82 315.047 134.746 315.308 133.552 315.308ZM151.662 313.18V315C150.803 315.205 150.047 315.308 149.394 315.308C147.975 315.308 146.855 314.944 146.034 314.216C145.212 313.488 144.802 312.377 144.802 310.884V303.296H142.506V301.364H144.802V297.64H146.958V301.364H151.214V303.296H146.958V310.744C146.958 311.715 147.2 312.396 147.686 312.788C148.19 313.161 148.908 313.348 149.842 313.348C150.364 313.348 150.971 313.292 151.662 313.18ZM170.425 301.056C172.031 301.056 173.319 301.532 174.289 302.484C175.26 303.436 175.745 304.808 175.745 306.6V315H173.729V313.236C173.225 313.908 172.581 314.421 171.797 314.776C171.013 315.131 170.127 315.308 169.137 315.308C167.737 315.308 166.589 314.963 165.693 314.272C164.816 313.581 164.377 312.648 164.377 311.472C164.377 310.315 164.825 309.391 165.721 308.7C166.617 308.009 167.803 307.664 169.277 307.664H173.589V306.488C173.589 305.368 173.291 304.519 172.693 303.94C172.115 303.343 171.312 303.044 170.285 303.044C169.464 303.044 168.736 303.231 168.101 303.604C167.467 303.959 166.869 304.5 166.309 305.228L164.881 304.052C165.497 303.044 166.291 302.297 167.261 301.812C168.232 301.308 169.287 301.056 170.425 301.056ZM169.417 313.516C170.164 313.516 170.855 313.357 171.489 313.04C172.124 312.704 172.628 312.247 173.001 311.668C173.393 311.089 173.589 310.455 173.589 309.764V309.428H169.529C168.577 309.428 167.849 309.596 167.345 309.932C166.841 310.249 166.589 310.725 166.589 311.36C166.589 312.051 166.86 312.583 167.401 312.956C167.943 313.329 168.615 313.516 169.417 313.516ZM187.878 315.308C186.572 315.308 185.368 314.991 184.266 314.356C183.184 313.721 182.325 312.863 181.69 311.78C181.056 310.679 180.738 309.475 180.738 308.168C180.738 306.861 181.056 305.667 181.69 304.584C182.325 303.501 183.184 302.643 184.266 302.008C185.368 301.373 186.572 301.056 187.878 301.056C189.073 301.056 190.156 301.327 191.126 301.868C192.097 302.391 192.89 303.109 193.506 304.024L191.966 305.256C190.865 303.781 189.512 303.044 187.906 303.044C186.973 303.044 186.124 303.277 185.358 303.744C184.612 304.192 184.024 304.808 183.594 305.592C183.165 306.376 182.95 307.235 182.95 308.168C182.95 309.12 183.165 309.988 183.594 310.772C184.024 311.556 184.612 312.181 185.358 312.648C186.124 313.096 186.973 313.32 187.906 313.32C189.512 313.32 190.856 312.592 191.938 311.136L193.478 312.34C192.862 313.255 192.069 313.983 191.098 314.524C190.146 315.047 189.073 315.308 187.878 315.308ZM204.427 315.308C203.12 315.308 201.916 314.991 200.815 314.356C199.732 313.721 198.873 312.863 198.239 311.78C197.604 310.679 197.287 309.475 197.287 308.168C197.287 306.861 197.604 305.667 198.239 304.584C198.873 303.501 199.732 302.643 200.815 302.008C201.916 301.373 203.12 301.056 204.427 301.056C205.621 301.056 206.704 301.327 207.675 301.868C208.645 302.391 209.439 303.109 210.055 304.024L208.515 305.256C207.413 303.781 206.06 303.044 204.455 303.044C203.521 303.044 202.672 303.277 201.907 303.744C201.16 304.192 200.572 304.808 200.143 305.592C199.713 306.376 199.499 307.235 199.499 308.168C199.499 309.12 199.713 309.988 200.143 310.772C200.572 311.556 201.16 312.181 201.907 312.648C202.672 313.096 203.521 313.32 204.455 313.32C206.06 313.32 207.404 312.592 208.487 311.136L210.027 312.34C209.411 313.255 208.617 313.983 207.647 314.524C206.695 315.047 205.621 315.308 204.427 315.308ZM226.855 308.84H216.075C216.206 310.184 216.738 311.267 217.671 312.088C218.604 312.909 219.743 313.32 221.087 313.32C222.636 313.32 224.027 312.704 225.259 311.472L226.519 312.928C225.81 313.675 224.988 314.263 224.055 314.692C223.14 315.103 222.142 315.308 221.059 315.308C219.715 315.308 218.492 315 217.391 314.384C216.29 313.749 215.422 312.891 214.787 311.808C214.152 310.725 213.835 309.521 213.835 308.196C213.835 306.889 214.143 305.695 214.759 304.612C215.375 303.511 216.215 302.643 217.279 302.008C218.343 301.373 219.519 301.056 220.807 301.056C221.964 301.056 223.019 301.317 223.971 301.84C224.923 302.363 225.67 303.091 226.211 304.024C226.752 304.957 227.023 306.021 227.023 307.216C227.023 307.739 226.967 308.28 226.855 308.84ZM220.751 303.016C219.612 303.016 218.623 303.38 217.783 304.108C216.943 304.817 216.402 305.76 216.159 306.936H224.811C224.792 305.723 224.391 304.771 223.607 304.08C222.842 303.371 221.89 303.016 220.751 303.016ZM236.243 315.308C235.105 315.308 234.078 315.065 233.163 314.58C232.267 314.076 231.521 313.432 230.923 312.648L232.295 311.22C232.949 311.892 233.574 312.415 234.171 312.788C234.769 313.143 235.45 313.32 236.215 313.32C236.962 313.32 237.578 313.152 238.063 312.816C238.567 312.461 238.819 311.985 238.819 311.388C238.819 310.847 238.633 310.436 238.259 310.156C237.886 309.857 237.279 309.54 236.439 309.204L235.123 308.644C233.985 308.177 233.135 307.664 232.575 307.104C232.015 306.525 231.735 305.779 231.735 304.864C231.735 303.669 232.174 302.736 233.051 302.064C233.929 301.392 235.021 301.056 236.327 301.056C237.279 301.056 238.138 301.252 238.903 301.644C239.669 302.017 240.331 302.54 240.891 303.212L239.575 304.556C239.109 304.089 238.586 303.725 238.007 303.464C237.447 303.184 236.85 303.044 236.215 303.044C235.543 303.044 234.993 303.193 234.563 303.492C234.153 303.791 233.947 304.211 233.947 304.752C233.947 305.181 234.106 305.536 234.423 305.816C234.759 306.077 235.338 306.385 236.159 306.74L237.419 307.272C238.689 307.813 239.603 308.392 240.163 309.008C240.742 309.605 241.031 310.371 241.031 311.304C241.031 312.573 240.565 313.563 239.631 314.272C238.717 314.963 237.587 315.308 236.243 315.308ZM250.358 315.308C249.219 315.308 248.193 315.065 247.278 314.58C246.382 314.076 245.635 313.432 245.038 312.648L246.41 311.22C247.063 311.892 247.689 312.415 248.286 312.788C248.883 313.143 249.565 313.32 250.33 313.32C251.077 313.32 251.693 313.152 252.178 312.816C252.682 312.461 252.934 311.985 252.934 311.388C252.934 310.847 252.747 310.436 252.374 310.156C252.001 309.857 251.394 309.54 250.554 309.204L249.238 308.644C248.099 308.177 247.25 307.664 246.69 307.104C246.13 306.525 245.85 305.779 245.85 304.864C245.85 303.669 246.289 302.736 247.166 302.064C248.043 301.392 249.135 301.056 250.442 301.056C251.394 301.056 252.253 301.252 253.018 301.644C253.783 302.017 254.446 302.54 255.006 303.212L253.69 304.556C253.223 304.089 252.701 303.725 252.122 303.464C251.562 303.184 250.965 303.044 250.33 303.044C249.658 303.044 249.107 303.193 248.678 303.492C248.267 303.791 248.062 304.211 248.062 304.752C248.062 305.181 248.221 305.536 248.538 305.816C248.874 306.077 249.453 306.385 250.274 306.74L251.534 307.272C252.803 307.813 253.718 308.392 254.278 309.008C254.857 309.605 255.146 310.371 255.146 311.304C255.146 312.573 254.679 313.563 253.746 314.272C252.831 314.963 251.702 315.308 250.358 315.308Z" fill="white" stroke-dasharray="0,0,1216.9555429687503,733.2937246093747"><animate attributeType="XML" attributeName="stroke-dasharray" repeatCount="indefinite" dur="1.6666666666666667s" values="0,0,1216.9555429687503,733.2937246093747; 
          0,733.2937246093747,1216.9555429687503,0; 
          1216.9555429687503,733.2937246093747,0,0" keyTimes="0; 0.3759999999999999; 1"></animate></path>
</svg>