<svg width="138" height="138" viewBox="0 0 138 138" fill="none" xmlns="http://www.w3.org/2000/svg">
<path fill-rule="evenodd" clip-rule="evenodd" d="M137.242 45.0254L113.953 4L23.9531 4.00001L0.664062 45.0254L1.63532 46.2773H1.63705L68.9158 133L68.9531 132.951L68.9904 133L136.269 46.2773H136.271L137.242 45.0254ZM70.118 6.16807L112.708 6.16807L91.3175 43.9522L70.118 6.16807ZM68.918 8.11663L89.0511 44H48.7849L68.918 8.11663ZM25.1509 6.2225L46.5145 43.9591L67.718 6.16807L25.1839 6.16808L25.1509 6.2225ZM44.2394 44L23.9624 8.18286L23.9531 8.19823L3.62916 44H44.2394ZM4.1638 46H45.2446L66.9068 127.041L66.8855 127.014L4.2503 46.2773L4.1638 46ZM90.5133 46L68.9141 126.805L47.3148 46H90.5133ZM92.5835 46L70.8824 127.187L71.0208 127.014L133.656 46.2773L133.742 46H92.5835ZM134.277 44L113.953 8.19823L113.903 8.11622L93.5887 44H134.277Z" fill="white"/>
</svg>
