<svg width="139" height="139" viewBox="0 0 139 139" fill="none" xmlns="http://www.w3.org/2000/svg">
<path fill-rule="evenodd" clip-rule="evenodd" d="M96.999 19.4833C96.999 20.5878 97.8945 21.4833 98.999 21.4833H132.999C134.104 21.4833 134.999 20.5878 134.999 19.4833V9.48328C134.999 8.37871 134.104 7.48328 132.999 7.48328H98.999C97.8945 7.48328 96.999 8.37871 96.999 9.48328V19.4833ZM98.999 9.48328V19.4833H132.999V9.48328H98.999Z" fill="white"/>
<path fill-rule="evenodd" clip-rule="evenodd" d="M50.999 63.4833C50.999 64.5878 51.8945 65.4833 52.999 65.4833H86.999C88.1036 65.4833 88.999 64.5878 88.999 63.4833V53.4833C88.999 52.3787 88.1036 51.4833 86.999 51.4833H52.999C51.8945 51.4833 50.999 52.3787 50.999 53.4833V63.4833ZM52.999 53.4833V63.4833H86.999V53.4833H52.999Z" fill="white"/>
<path fill-rule="evenodd" clip-rule="evenodd" d="M6.99902 109.483C5.89445 109.483 4.99902 108.588 4.99902 107.483V97.4833C4.99902 96.3787 5.89445 95.4833 6.99902 95.4833H40.999C42.1036 95.4833 42.999 96.3787 42.999 97.4833V107.483C42.999 108.588 42.1036 109.483 40.999 109.483H6.99902ZM6.99902 107.483V97.4833H40.999V107.483H6.99902Z" fill="white"/>
<path fill-rule="evenodd" clip-rule="evenodd" d="M6.99902 131.483C5.89445 131.483 4.99902 130.588 4.99902 129.483V119.483C4.99902 118.379 5.89445 117.483 6.99902 117.483H40.999C42.1036 117.483 42.999 118.379 42.999 119.483V129.483C42.999 130.588 42.1036 131.483 40.999 131.483H6.99902ZM6.99902 129.483V119.483H40.999V129.483H6.99902Z" fill="white"/>
<path fill-rule="evenodd" clip-rule="evenodd" d="M52.999 87.4833C51.8945 87.4833 50.999 86.5878 50.999 85.4833V75.4833C50.999 74.3787 51.8945 73.4833 52.999 73.4833H86.999C88.1036 73.4833 88.999 74.3787 88.999 75.4833V85.4833C88.999 86.5878 88.1036 87.4833 86.999 87.4833H52.999ZM52.999 85.4833V75.4833H86.999V85.4833H52.999Z" fill="white"/>
<path fill-rule="evenodd" clip-rule="evenodd" d="M50.999 107.483C50.999 108.588 51.8945 109.483 52.999 109.483H86.999C88.1036 109.483 88.999 108.588 88.999 107.483V97.4833C88.999 96.3787 88.1036 95.4833 86.999 95.4833H52.999C51.8945 95.4833 50.999 96.3787 50.999 97.4833V107.483ZM52.999 97.4833V107.483H86.999V97.4833H52.999Z" fill="white"/>
<path fill-rule="evenodd" clip-rule="evenodd" d="M52.999 131.483C51.8945 131.483 50.999 130.588 50.999 129.483V119.483C50.999 118.379 51.8945 117.483 52.999 117.483H86.999C88.1036 117.483 88.999 118.379 88.999 119.483V129.483C88.999 130.588 88.1036 131.483 86.999 131.483H52.999ZM52.999 129.483V119.483H86.999V129.483H52.999Z" fill="white"/>
<path fill-rule="evenodd" clip-rule="evenodd" d="M98.999 43.4833C97.8945 43.4833 96.999 42.5878 96.999 41.4833V31.4833C96.999 30.3787 97.8945 29.4833 98.999 29.4833H132.999C134.104 29.4833 134.999 30.3787 134.999 31.4833V41.4833C134.999 42.5878 134.104 43.4833 132.999 43.4833H98.999ZM98.999 41.4833V31.4833H132.999V41.4833H98.999Z" fill="white"/>
<path fill-rule="evenodd" clip-rule="evenodd" d="M96.999 63.4833C96.999 64.5878 97.8945 65.4833 98.999 65.4833H132.999C134.104 65.4833 134.999 64.5878 134.999 63.4833V53.4833C134.999 52.3787 134.104 51.4833 132.999 51.4833H98.999C97.8945 51.4833 96.999 52.3787 96.999 53.4833V63.4833ZM98.999 53.4833V63.4833H132.999V53.4833H98.999Z" fill="white"/>
<path fill-rule="evenodd" clip-rule="evenodd" d="M98.999 87.4833C97.8945 87.4833 96.999 86.5878 96.999 85.4833V75.4833C96.999 74.3787 97.8945 73.4833 98.999 73.4833H132.999C134.104 73.4833 134.999 74.3787 134.999 75.4833V85.4833C134.999 86.5878 134.104 87.4833 132.999 87.4833H98.999ZM98.999 85.4833V75.4833H132.999V85.4833H98.999Z" fill="white"/>
<path fill-rule="evenodd" clip-rule="evenodd" d="M96.999 107.483C96.999 108.588 97.8945 109.483 98.999 109.483H132.999C134.104 109.483 134.999 108.588 134.999 107.483V97.4833C134.999 96.3787 134.104 95.4833 132.999 95.4833H98.999C97.8945 95.4833 96.999 96.3787 96.999 97.4833V107.483ZM98.999 97.4833V107.483H132.999V97.4833H98.999Z" fill="white"/>
<path fill-rule="evenodd" clip-rule="evenodd" d="M98.999 131.483C97.8945 131.483 96.999 130.588 96.999 129.483V119.483C96.999 118.379 97.8945 117.483 98.999 117.483H132.999C134.104 117.483 134.999 118.379 134.999 119.483V129.483C134.999 130.588 134.104 131.483 132.999 131.483H98.999ZM98.999 129.483V119.483H132.999V129.483H98.999Z" fill="white"/>
</svg>
