<svg width="138" height="139" viewBox="0 0 138 139" fill="none" xmlns="http://www.w3.org/2000/svg">
<path fill-rule="evenodd" clip-rule="evenodd" d="M3 44.4051C3 23.5508 18.428 6.48328 37.6493 6.48328C51.4565 6.48328 63.4393 13.5636 69 26.2537C74.5607 13.5636 86.5435 6.48328 100.351 6.48328C119.572 6.48328 135 23.5508 135 44.4051C135 63.6971 122.611 82.6992 108.372 98.2763C94.0975 113.892 77.7823 126.261 69.5928 132.289C69.2402 132.548 68.7598 132.548 68.4072 132.289C60.2177 126.261 43.9025 113.892 29.6284 98.2763C15.3895 82.6992 3 63.6971 3 44.4051ZM37.6493 8.48328C19.7032 8.48328 5 24.4767 5 44.4051C5 52.1268 7.07866 59.8513 10.5312 67.3585L22.3756 55.5141C25.0795 52.8102 29.4635 52.8102 32.1674 55.5141C33.529 56.8758 34.2049 58.6634 34.1952 60.448L37.5631 57.0801C40.267 54.3761 44.651 54.3761 47.3549 57.0801C48.717 58.4422 49.3929 60.2306 49.3827 62.0159L51.2623 60.1362C53.9663 57.4323 58.3502 57.4323 61.0541 60.1362C63.758 62.8401 63.758 67.224 61.0541 69.928L52.3629 78.6191C54.1486 78.6085 55.9377 79.2845 57.3002 80.647C60.0041 83.3509 60.0041 87.7348 57.3002 90.4387L40.8684 106.87C51.7911 117.283 62.5882 125.507 69 130.241C75.42 125.501 86.2366 117.262 97.1736 106.83L80.7818 90.4387C78.0779 87.7348 78.0779 83.3509 80.7818 80.647C82.1443 79.2845 83.9334 78.6085 85.7191 78.6191L77.0279 69.928C74.324 67.224 74.324 62.8401 77.0279 60.1362C79.7318 57.4323 84.1157 57.4323 86.8197 60.1362L88.6993 62.0159C88.6891 60.2306 89.365 58.4422 90.7271 57.0801C93.4311 54.3761 97.815 54.3761 100.519 57.0801L103.887 60.448C103.877 58.6634 104.553 56.8757 105.915 55.5141C108.619 52.8102 113.002 52.8102 115.706 55.5141L127.495 67.3023C130.932 59.8128 133 52.1075 133 44.4051C133 24.4767 118.297 8.48328 100.351 8.48328C86.4729 8.48328 74.6855 15.9889 69.942 29.3015C69.8 29.6998 69.4229 29.9658 69 29.9658C68.5771 29.9658 68.1999 29.6998 68.058 29.3015C63.3145 15.9889 51.5271 8.48328 37.6493 8.48328ZM39.4267 105.484L55.886 89.0245C57.8088 87.1016 57.8088 83.984 55.886 82.0612C53.9631 80.1383 50.8455 80.1383 48.9227 82.0612L32.5229 98.4609C34.7943 100.89 37.1091 103.235 39.4267 105.484ZM31.1629 96.9907L59.6399 68.5137C61.5627 66.5909 61.5627 63.4733 59.6399 61.5504C57.717 59.6276 54.5994 59.6276 52.6766 61.5504L24.7135 89.5135C26.766 92.0495 28.9084 94.5244 31.1046 96.927C31.124 96.9482 31.1434 96.9695 31.1629 96.9907ZM23.4581 87.9402L45.9407 65.4576C47.8635 63.5347 47.8635 60.4171 45.9407 58.4943C44.0178 56.5714 40.9002 56.5714 38.9773 58.4943L32.2571 65.2145C32.2275 65.2452 32.1976 65.2756 32.1674 65.3059L17.5983 79.8749C19.4229 82.6172 21.3892 85.3097 23.4581 87.9402ZM16.4814 78.1618L30.8287 63.8145C32.6757 61.8863 32.6505 58.8257 30.7532 56.9284C28.8303 55.0055 25.7127 55.0055 23.7898 56.9284L11.444 69.2742C12.9257 72.2797 14.6201 75.2471 16.4814 78.1618ZM105.517 98.4185C103.246 100.848 100.932 103.193 98.6149 105.443L82.196 89.0245C80.2732 87.1016 80.2732 83.984 82.196 82.0612C84.1189 80.1383 87.2365 80.1383 89.1594 82.0612L105.517 98.4185ZM106.895 96.927L106.876 96.9479L78.4421 68.5137C76.5193 66.5909 76.5193 63.4733 78.4421 61.5504C80.365 59.6276 83.4826 59.6276 85.4055 61.5504L113.323 89.4681C111.259 92.02 109.105 94.5101 106.895 96.927ZM120.434 79.8256C118.611 82.569 116.646 85.2626 114.578 87.8942L92.1414 65.4576C90.2185 63.5347 90.2185 60.4171 92.1414 58.4943C94.0642 56.5714 97.1818 56.5714 99.1047 58.4943L105.825 65.2145C105.855 65.2452 105.884 65.2756 105.915 65.3059L120.434 79.8256ZM126.583 69.2192C125.103 72.2264 123.411 75.1953 121.551 78.1117L107.253 63.8145C105.406 61.8863 105.431 58.8257 107.329 56.9283C109.252 55.0055 112.369 55.0055 114.292 56.9283L126.583 69.2192Z" fill="white"/>
</svg>
