<svg width="139" height="139" viewBox="0 0 139 139" fill="none" xmlns="http://www.w3.org/2000/svg">
<path fill-rule="evenodd" clip-rule="evenodd" d="M137.911 45.3284L114.622 7.48328L24.6221 7.48328L1.33301 45.3284L2.30427 46.4833H2.306L69.5848 136.483L69.6221 136.438L69.6594 136.483L136.938 46.4833H136.94L137.911 45.3284ZM70.7434 9.48328L113.391 9.48328L91.9931 44.2554L70.7434 9.48328ZM68.5001 9.48328L25.8528 9.48328L47.2508 44.2549L68.5001 9.48328ZM49.4551 44.4833H89.7884L69.6218 11.4833L49.4551 44.4833ZM91.2903 46.4833L69.6221 130.909L47.9539 46.4833H91.2903ZM45.8708 46.4833H4.91924L67.5544 130.962L45.8708 46.4833ZM4.24056 44.476L24.6221 11.3561L45.0036 44.476H4.24056ZM134.325 46.4833H93.3733L71.6897 130.962L134.325 46.4833ZM114.622 11.3561L135.004 44.476H94.2406L114.622 11.3561Z" fill="white"/>
</svg>
