<svg width="138" height="139" viewBox="0 0 138 139" fill="none" xmlns="http://www.w3.org/2000/svg">
<path fill-rule="evenodd" clip-rule="evenodd" d="M127.669 2H11V136H127.669V2ZM9 0V138H129.669V0H9Z" fill="white"/>
<path fill-rule="evenodd" clip-rule="evenodd" d="M67 137.983V1.48328H69V137.983H67Z" fill="white"/>
<path fill-rule="evenodd" clip-rule="evenodd" d="M128.5 71.483H11V69.483H128.5V71.483Z" fill="white"/>
<path d="M41.6526 118.165C39.8646 118.216 38.0908 117.797 36.4944 116.948C35.0753 116.139 33.9188 114.908 33.1667 113.409C32.3579 111.761 31.9605 109.926 32.0031 108.074V100.042C31.9605 98.1987 32.365 96.3741 33.1667 94.7349C33.933 93.2537 35.0824 92.0353 36.4944 91.2261C38.0766 90.3437 39.8575 89.9044 41.6526 89.9501C43.4265 89.9073 45.1861 90.3474 46.7471 91.2261C48.1519 92.0398 49.2942 93.2581 50.0463 94.7349C50.8552 96.3741 51.2525 98.1987 51.2099 100.042V104.798H35.0824V108.074C34.9618 110.014 35.572 111.927 36.7711 113.409C37.4026 114.081 38.1689 114.603 39.0061 114.938C39.8505 115.273 40.7515 115.415 41.6526 115.353C43.1284 115.426 44.5901 115.021 45.8318 114.193C46.9315 113.404 47.712 112.231 48.0526 110.887H51.1532C50.9971 111.948 50.6353 112.965 50.096 113.881C49.5639 114.796 48.8543 115.592 48.0242 116.223C46.1581 117.578 43.9231 118.26 41.6526 118.165ZM48.1377 102.565V100.042C48.2371 98.099 47.6482 96.1858 46.4703 94.6773C45.8531 94.0083 45.0939 93.4885 44.2637 93.1532C43.4336 92.818 42.5395 92.6748 41.6526 92.7346C40.7515 92.674 39.8576 92.8136 39.0132 93.1436C38.176 93.4729 37.4097 93.9862 36.7711 94.6478C35.572 96.1555 34.9689 98.0842 35.0824 100.042V102.187H48.5776L48.1377 102.565Z" fill="#D6D6D6"/>
<path d="M111.187 91.5169L109.165 89.6318L99.0472 101.637L88.9294 89.6318L86.9072 91.5169L97.245 103.754L86.9072 116.02L88.9294 117.905L99.0472 105.9L109.165 117.905L111.187 116.02L100.849 103.754L111.187 91.5169Z" fill="#D6D6D6"/>
<path d="M43.478 50.6007V28.3597V25.1116H40.3704H34.9141V28.3597H40.3704V50.6007H34.9141V53.8488H48.9343V50.6007H43.478Z" fill="#D6D6D6"/>
</svg>
