<svg width="139" height="139" viewBox="0 0 139 139" fill="none" xmlns="http://www.w3.org/2000/svg">
<rect x="1.33301" y="1.48328" width="136" height="136" stroke="white" stroke-width="2"/>
<path d="M24.173 121.483V116.533H34.953V85.9533L24.173 94.0383V88.0983L33.303 81.3333H40.398V116.533H49.198V121.483H24.173ZM68.8115 122.033C67.3815 122.033 66.2265 121.612 65.3465 120.768C64.5032 119.925 64.0815 118.807 64.0815 117.413C64.0815 115.947 64.5032 114.792 65.3465 113.948C66.2265 113.068 67.3815 112.628 68.8115 112.628C70.2415 112.628 71.3782 113.068 72.2215 113.948C73.1015 114.792 73.5415 115.947 73.5415 117.413C73.5415 118.807 73.1015 119.925 72.2215 120.768C71.3782 121.612 70.2415 122.033 68.8115 122.033ZM90.185 121.483V116.258L103.165 102.233C104.962 100.327 106.263 98.6216 107.07 97.1183C107.877 95.5783 108.28 94.0566 108.28 92.5533C108.28 90.4266 107.657 88.7399 106.41 87.4933C105.2 86.2466 103.55 85.6233 101.46 85.6233C99.3334 85.6233 97.6467 86.2649 96.4 87.5483C95.1534 88.8316 94.53 90.5733 94.53 92.7733H89.085C89.1217 90.3166 89.6534 88.1899 90.68 86.3933C91.7434 84.5966 93.1917 83.2216 95.025 82.2683C96.8584 81.2783 99.0034 80.7833 101.46 80.7833C103.99 80.7833 106.153 81.2599 107.95 82.2133C109.783 83.1666 111.195 84.5233 112.185 86.2833C113.212 88.0433 113.725 90.1149 113.725 92.4983C113.725 94.4783 113.175 96.5133 112.075 98.6033C110.975 100.657 109.178 103.003 106.685 105.643L96.565 116.533H114.33V121.483H90.185Z" fill="white"/>
</svg>
