<svg width="140" height="40" viewBox="0 0 140 40" fill="none" xmlns="http://www.w3.org/2000/svg">
<path d="M63.8105 15.4218H56.4564L58.579 8.85791H52.0474L44.9766 30.7422H58.5688C60.101 30.7422 61.5938 30.2546 62.8333 29.3491C64.0729 28.4436 64.9955 27.1668 65.469 25.7017L67.247 20.2118C67.4257 19.6646 67.4731 19.0826 67.3854 18.5134C67.2976 17.9442 67.0772 17.4039 66.7421 16.9368C66.4069 16.4697 65.9666 16.0889 65.4571 15.8256C64.9476 15.5623 64.3834 15.4239 63.8105 15.4218ZM60.7733 20.0231L59.3025 24.5729C59.0661 25.3057 58.6049 25.9445 57.9851 26.3976C57.3653 26.8506 56.6187 27.0947 55.8524 27.0948H52.6855L55.2791 19.0692H60.084C60.1985 19.0689 60.3114 19.0959 60.4134 19.1481C60.5155 19.2002 60.6038 19.2759 60.6711 19.369C60.7384 19.4621 60.7827 19.57 60.8005 19.6837C60.8183 19.7974 60.809 19.9137 60.7733 20.0231Z" fill="white" fill-opacity="0.5"/>
<path d="M75.2678 8.85791L73.8516 13.2361H80.3832L81.796 8.85791H75.2678Z" fill="white" fill-opacity="0.5"/>
<path d="M68.1953 30.7427H74.727L79.6752 15.4224H73.1469L68.1953 30.7427Z" fill="white" fill-opacity="0.5"/>
<path d="M89.4681 19.0692H93.8601L95.0374 15.4218H90.6455L92.7681 8.85791H86.2364L80.7081 25.9659C80.5315 26.5137 80.4864 27.0957 80.5763 27.6644C80.6662 28.2331 80.8886 28.7724 81.2254 29.2382C81.5621 29.7039 82.0037 30.083 82.514 30.3444C83.0243 30.6058 83.5889 30.7421 84.1616 30.7422H91.4099L92.5906 27.0948H87.8676C87.7539 27.0946 87.6418 27.0673 87.5406 27.0151C87.4393 26.9629 87.3519 26.8874 87.2853 26.7946C87.2187 26.7019 87.1749 26.5946 87.1575 26.4816C87.1401 26.3686 87.1495 26.253 87.1851 26.1444L89.4681 19.0692Z" fill="white" fill-opacity="0.5"/>
<path d="M18.6426 16.4958L25.7851 8.85791H18.1341L12.2406 27.0948H7.34015C7.22651 27.0933 7.11481 27.065 7.01402 27.0122C6.91323 26.9594 6.82615 26.8836 6.75978 26.7908C6.69341 26.6981 6.64959 26.591 6.63186 26.4781C6.61412 26.3652 6.62295 26.2497 6.65764 26.1409L12.2372 8.85791H5.70553L0.177183 25.9728C0.000566502 26.5197 -0.0448373 27.1008 0.0446832 27.6687C0.134204 28.2366 0.356107 28.7751 0.692256 29.2402C1.0284 29.7054 1.46926 30.0839 1.97878 30.345C2.4883 30.606 3.05202 30.7421 3.62387 30.7422H17.5915L22.5397 15.4218L18.6426 16.4958Z" fill="white"/>
<path d="M42.8013 8.85791H27.786L30.0247 16.4958L26.8203 15.4252L21.8516 30.7422H28.3832L30.7413 23.4474H37.8019C39.3334 23.4467 40.8255 22.9587 42.0644 22.0533C43.3033 21.1479 44.2254 19.8715 44.6987 18.407L46.2446 13.6273C46.4203 13.0807 46.4652 12.5001 46.3755 11.9328C46.2858 11.3655 46.0642 10.8275 45.7286 10.3626C45.393 9.89778 44.9529 9.51919 44.4442 9.2577C43.9355 8.99622 43.3726 8.85924 42.8013 8.85791ZM39.7709 13.4557L38.5356 17.2815C38.2985 18.0138 37.8371 18.6518 37.2174 19.1042C36.5976 19.5566 35.8513 19.8002 35.0855 19.8H31.9186L34.2767 12.5053H39.085C39.1991 12.505 39.3115 12.5319 39.4132 12.5838C39.5149 12.6358 39.6028 12.7113 39.6698 12.8041C39.7368 12.8969 39.7809 13.0044 39.7985 13.1177C39.816 13.2309 39.8066 13.3468 39.7709 13.4557Z" fill="white"/>
</svg>
